<?xml version="1.0" standalone="no"?>
<!DOCTYPE svg PUBLIC "-//W3C//DTD SVG 20010904//EN"
 "http://www.w3.org/TR/2001/REC-SVG-20010904/DTD/svg10.dtd">
<svg version="1.0" xmlns="http://www.w3.org/2000/svg"
 width="240.000000pt" height="240.000000pt" viewBox="0 0 240.000000 240.000000"
 preserveAspectRatio="xMidYMid meet">
<metadata>
Created by potrace 1.11, written by Peter Selinger 2001-2013
</metadata>
<g transform="translate(0.000000,240.000000) scale(0.100000,-0.100000)"
fill="#000000" stroke="none">
<path d="M1460 2340 c-19 -5 -51 -12 -70 -15 -19 -3 -66 -12 -105 -20 -38 -8
-83 -16 -100 -19 -16 -3 -133 -26 -260 -50 -126 -25 -242 -47 -256 -49 -14 -3
-75 -15 -135 -27 -60 -12 -116 -24 -124 -25 -8 -2 -24 -4 -35 -4 -55 -3 -51
-15 52 -153 54 -73 182 -245 283 -383 289 -395 289 -395 308 -395 9 0 35 5 57
10 22 5 51 11 65 13 14 3 43 10 65 15 22 6 54 13 70 16 17 2 170 34 340 71
171 36 381 81 468 100 88 19 161 35 163 38 3 3 -127 164 -225 279 -11 13 -129
154 -262 313 -133 160 -247 291 -253 292 -6 0 -27 -3 -46 -7z"/>
<path d="M296 2034 c-7 -65 -9 -73 -37 -254 -26 -167 -29 -181 -34 -210 -3
-14 -7 -47 -11 -75 -3 -27 -7 -57 -9 -65 -1 -8 -6 -35 -10 -60 -3 -25 -9 -58
-12 -75 -3 -16 -6 -41 -8 -55 -2 -14 -11 -72 -20 -130 -10 -58 -18 -113 -17
-123 1 -14 124 -196 286 -422 25 -35 199 -281 271 -384 39 -56 72 -101 75
-101 3 0 6 8 7 18 2 17 3 24 23 122 6 30 13 66 16 80 2 14 9 45 14 70 5 25 12
56 14 70 3 14 8 36 11 50 3 14 8 39 11 55 10 59 68 340 83 405 5 25 12 61 16
80 3 19 10 56 16 82 6 26 7 53 2 61 -8 14 -629 855 -661 896 l-19 24 -7 -59z"/>
<path d="M2194 1418 c-24 -6 -251 -54 -344 -72 -14 -2 -92 -19 -175 -36 -82
-17 -215 -44 -295 -60 -80 -16 -156 -31 -170 -34 -14 -3 -61 -13 -105 -22 -44
-9 -83 -19 -87 -22 -4 -4 -23 -90 -43 -192 -21 -102 -38 -192 -40 -200 -4 -16
-114 -571 -121 -605 -10 -52 -14 -72 -20 -98 -3 -16 -1 -27 5 -27 11 0 47 8
366 85 83 20 158 38 168 40 10 2 75 18 145 35 70 17 138 34 152 36 13 3 99 23
190 46 152 37 179 48 180 71 0 8 -61 4 -110 -8 -14 -3 -39 -8 -57 -10 -18 -3
-36 -6 -40 -7 -18 -5 -83 14 -78 22 3 5 1 11 -3 14 -24 14 13 86 45 86 16 0
18 36 2 46 -8 4 -9 0 -4 -15 4 -12 2 -22 -4 -22 -6 -1 -15 -2 -21 -3 -16 -2
-39 -40 -40 -63 0 -16 -8 -24 -27 -29 -16 -3 -34 -7 -41 -10 -7 -2 -34 -6 -60
-10 -26 -3 -50 -8 -54 -10 -4 -3 -27 -7 -52 -9 -25 -3 -55 -9 -68 -13 -19 -7
-53 -8 -104 -3 -6 1 -25 14 -44 31 -30 27 -32 33 -27 71 6 45 41 85 83 95 19
5 21 10 15 32 -8 28 -6 66 6 92 3 8 7 17 8 20 5 19 43 69 48 63 4 -3 7 -2 7 4
0 23 133 69 190 65 85 -5 90 -6 90 -14 0 -4 3 -7 8 -6 9 3 63 -32 77 -50 6 -7
32 -14 58 -16 48 -5 97 -28 97 -46 0 -6 -13 -13 -30 -16 -16 -4 -30 -10 -30
-15 0 -5 -3 -8 -7 -7 -26 7 -83 -60 -83 -97 0 -17 17 1 33 34 38 83 201 104
253 33 9 -13 13 -10 22 19 18 55 53 201 50 204 -3 3 -32 -2 -123 -20 -67 -14
-96 -13 -117 4 -21 18 -21 19 -5 45 10 14 22 26 28 26 6 0 9 7 5 15 -9 26 16
66 53 84 43 21 86 19 114 -6 14 -13 18 -13 12 -3 -6 12 -5 13 6 3 7 -7 21 -13
31 -13 10 0 18 -6 18 -12 1 -19 18 13 24 43 2 13 27 114 55 223 28 110 51 205
51 212 0 14 -20 14 -66 2z"/>
</g>
</svg>
