<svg xmlns="http://www.w3.org/2000/svg" width="21" height="24" viewBox="0 0 21 24">
  <g id="Polygon_17" data-name="Polygon 17" transform="translate(21) rotate(90)" fill="none">
    <path d="M10.264,3.039a2,2,0,0,1,3.473,0L22.29,18.008A2,2,0,0,1,20.554,21H3.446A2,2,0,0,1,1.71,18.008Z" stroke="none"/>
    <path d="M 11.99999904632568 3.531129837036133 C 11.89162921905518 3.531129837036133 11.69112873077393 3.563859939575195 11.56586933135986 3.783060073852539 L 3.012239456176758 18.75192070007324 C 2.887939453125 18.96944046020508 2.959928512573242 19.15795135498047 3.013908386230469 19.25096130371094 C 3.067878723144531 19.34397125244141 3.195829391479492 19.5 3.446359634399414 19.5 L 20.55363845825195 19.5 C 20.80416870117188 19.5 20.93211936950684 19.34397125244141 20.98609924316406 19.2509708404541 C 21.04006958007812 19.15796089172363 21.11205863952637 18.96944999694824 20.98777008056641 18.75193023681641 L 12.4341287612915 3.783060073852539 C 12.30886936187744 3.563859939575195 12.10836887359619 3.531129837036133 11.99999904632568 3.531129837036133 M 11.99999904632568 2.0311279296875 C 12.67629623413086 2.0311279296875 13.35259437561035 2.367034912109375 13.73648929595947 3.038850784301758 L 22.29012870788574 18.00772094726562 C 23.0520191192627 19.34103965759277 22.08928871154785 21 20.55363845825195 21 L 3.446359634399414 21 C 1.91071891784668 21 0.9479789733886719 19.34103965759277 1.709869384765625 18.00772094726562 L 10.26350879669189 3.038850784301758 C 10.64740371704102 2.367034912109375 11.32370185852051 2.0311279296875 11.99999904632568 2.0311279296875 Z" stroke="none" fill="#4877f4"/>
  </g>
</svg>
