<svg xmlns="http://www.w3.org/2000/svg" width="19.752" height="19.752" viewBox="0 0 19.752 19.752">
  <g id="gear" transform="translate(0.75 0.75)">
    <path id="Path_849" data-name="Path 849" d="M17.265,7.739a2.281,2.281,0,0,1-1.4-3.387,1.143,1.143,0,0,0-.107-1.5L15.4,2.5a1.146,1.146,0,0,0-1.5-.107,2.281,2.281,0,0,1-3.387-1.4A1.145,1.145,0,0,0,9.376,0h-.5A1.146,1.146,0,0,0,7.739.987a2.281,2.281,0,0,1-3.387,1.4,1.146,1.146,0,0,0-1.5.106L2.5,2.85a1.146,1.146,0,0,0-.106,1.5,2.281,2.281,0,0,1-1.4,3.387A1.146,1.146,0,0,0,0,8.876v.5a1.146,1.146,0,0,0,.987,1.137A2.281,2.281,0,0,1,2.39,13.9,1.143,1.143,0,0,0,2.5,15.4l.354.354a1.145,1.145,0,0,0,1.5.107,2.281,2.281,0,0,1,3.387,1.4,1.145,1.145,0,0,0,1.137.987h.5a1.146,1.146,0,0,0,1.137-.987,2.281,2.281,0,0,1,3.387-1.4,1.145,1.145,0,0,0,1.5-.107l.354-.354a1.146,1.146,0,0,0,.107-1.5,2.281,2.281,0,0,1,1.4-3.387,1.145,1.145,0,0,0,.987-1.137v-.5A1.146,1.146,0,0,0,17.265,7.739ZM9.126,12.548a3.422,3.422,0,1,1,3.422-3.422A3.422,3.422,0,0,1,9.126,12.548Z" transform="translate(0 0)" fill="none" stroke="#4877f4" stroke-width="1.5"/>
  </g>
</svg>
