<svg xmlns="http://www.w3.org/2000/svg" width="21.999" height="19.788" viewBox="0 0 21.999 19.788">
  <g id="Group_1906" data-name="Group 1906" transform="translate(0.75 0.77)">
    <g id="sound" transform="translate(0 0)">
      <path id="Path_841" data-name="Path 841" d="M12.582,1.144a1.143,1.143,0,0,0-1.83-.915L4.232,4.575H1.144A1.081,1.081,0,0,0,0,5.719v6.863a1.081,1.081,0,0,0,1.144,1.144H4.232l6.52,4.347a1.177,1.177,0,0,0,1.83-.915Z" transform="translate(0 0)" fill="none" stroke="#4877f4" stroke-width="1.5"/>
    </g>
    <path id="Path_844" data-name="Path 844" d="M10.825,1a10.5,10.5,0,0,1,0,14" transform="translate(7 1)" fill="none" stroke="#4877f4" stroke-linecap="round" stroke-linejoin="round" stroke-width="1.5"/>
    <path id="Path_843" data-name="Path 843" d="M7,4.229a5.5,5.5,0,0,1,0,7.545" transform="translate(8 1)" fill="none" stroke="#4877f4" stroke-linecap="round" stroke-linejoin="round" stroke-width="1.5"/>
  </g>
</svg>
