<svg xmlns="http://www.w3.org/2000/svg" xmlns:xlink="http://www.w3.org/1999/xlink" width="182.245" height="140.27" viewBox="0 0 182.245 140.27">
  <defs>
    <linearGradient id="linear-gradient" x1="0.531" y1="1.017" x2="0.531" y2="-0.007" gradientUnits="objectBoundingBox">
      <stop offset="0" stop-color="gray" stop-opacity="0.251"/>
      <stop offset="0.54" stop-color="gray" stop-opacity="0.122"/>
      <stop offset="1" stop-color="gray" stop-opacity="0.102"/>
    </linearGradient>
    <linearGradient id="linear-gradient-2" x1="0.5" y1="1" x2="0.5" y2="0.001" xlink:href="#linear-gradient"/>
  </defs>
  <g id="contact_center" data-name="contact center" transform="translate(0.007 0)">
    <path id="Path_28" data-name="Path 28" d="M210.456,98.145c-6.715,10.1-5.015,24.141-1.634,35.261,1.138,3.723,2.425,7.657,1.66,11.771-.935,5.032-4.747,8.907-8.655,11.077-7.122,3.957-15.388,3.632-21.521-.844-5.3-3.869-8.9-10.47-14.311-14.149-9.041-6.134-21.113-2.853-31.537,2.42-7.375,3.726-15.473,8.478-22.462,5.5-4.918-2.1-8.105-7.748-9.689-13.848-.764-2.945-1.265-6.154-2.895-8.426a10.806,10.806,0,0,0-3.625-3.03c-12.313-6.951-28.558-1.813-40.47-9.629-8.039-5.269-12.822-15.863-14.607-27.109S39.8,63.93,41,52.159c.847-8.364,2.062-17.312,6.728-24.017a21.474,21.474,0,0,1,20-9.262C74.788,19.73,81,23.942,86.4,29.028c6.754,6.343,12.908,14.386,21.483,16.588,5.84,1.5,12.134.093,18.271-.651,10.262-1.228,20.431-.545,30.532.267,9.672.777,19.4,1.69,28.488,5,6.427,2.345,11.439,7.016,17.465,10.122,3.928,2.025,8.3,2.379,11.983,5.042,4.534,3.277,8.541,9.219,6.965,16.562C220.092,88.954,214.019,92.779,210.456,98.145Z" transform="translate(-39.7 -18.74)" fill="#4877f4" opacity="0.1"/>
    <rect id="Rectangle_89" data-name="Rectangle 89" width="6.65" height="10.067" transform="translate(143.239 41.701)" fill="#4877f4" opacity="0.1"/>
    <rect id="Rectangle_90" data-name="Rectangle 90" width="5.357" height="8.109" transform="translate(143.885 42.68)" fill="#4877f4" opacity="0.1"/>
    <rect id="Rectangle_91" data-name="Rectangle 91" width="10.213" height="10.067" transform="translate(129.741 34.708)" fill="#4877f4" opacity="0.1"/>
    <rect id="Rectangle_92" data-name="Rectangle 92" width="8.227" height="8.109" transform="translate(130.733 35.687)" fill="#4877f4" opacity="0.1"/>
    <rect id="Rectangle_95" data-name="Rectangle 95" width="3.189" height="35.639" transform="translate(63.165 73.611)" fill="#d6d6e3"/>
    <path id="Path_29" data-name="Path 29" d="M910.3,307.328V274.454A3.456,3.456,0,0,1,913.756,271h0a3.456,3.456,0,0,1,3.449,3.454V314.24a3.456,3.456,0,0,1-3.456,3.456h-21.4a3.456,3.456,0,0,1-3.456-3.456h0a3.456,3.456,0,0,1,3.456-3.456h14.5A3.456,3.456,0,0,0,910.3,307.328Z" transform="translate(-750.792 -229.975)" fill="#aebee1"/>
    <path id="Path_30" data-name="Path 30" d="M910.3,307.328V274.454A3.456,3.456,0,0,1,913.756,271h0a3.456,3.456,0,0,1,3.449,3.454V314.24a3.456,3.456,0,0,1-3.456,3.456h-21.4a3.456,3.456,0,0,1-3.456-3.456h0a3.456,3.456,0,0,1,3.456-3.456h14.5A3.456,3.456,0,0,0,910.3,307.328Z" transform="translate(-750.792 -229.975)" fill="#535461"/>
    <path id="Path_31" data-name="Path 31" d="M888.92,314.055a3.456,3.456,0,0,1,3.451-3.271h14.5a3.456,3.456,0,0,0,3.456-3.456V274.454a3.456,3.456,0,0,1,3.29-3.454v43.055Z" transform="translate(-750.817 -229.975)" fill="#d6d6e3"/>
    <path id="Path_32" data-name="Path 32" d="M196.654,314.14V281.266a3.456,3.456,0,0,0-3.448-3.456h0a3.456,3.456,0,0,0-3.456,3.456v39.786a3.456,3.456,0,0,0,3.456,3.464h21.4a3.456,3.456,0,0,0,3.456-3.456h0a3.456,3.456,0,0,0-3.456-3.456h-14.5a3.456,3.456,0,0,1-3.458-3.464Z" transform="translate(-165.353 -235.678)" fill="#aebee1"/>
    <path id="Path_33" data-name="Path 33" d="M196.654,314.14V281.266a3.456,3.456,0,0,0-3.448-3.456h0a3.456,3.456,0,0,0-3.456,3.456v39.786a3.456,3.456,0,0,0,3.456,3.464h21.4a3.456,3.456,0,0,0,3.456-3.456h0a3.456,3.456,0,0,0-3.456-3.456h-14.5a3.456,3.456,0,0,1-3.458-3.464Z" transform="translate(-165.353 -235.678)" fill="#535461"/>
    <path id="Path_34" data-name="Path 34" d="M236.69,320.892a3.456,3.456,0,0,0-3.451-3.271h-14.5a3.456,3.456,0,0,1-3.458-3.456V281.291A3.456,3.456,0,0,0,212,277.84v43.051Z" transform="translate(-183.984 -235.703)" fill="#d6d6e3"/>
    <rect id="Rectangle_96" data-name="Rectangle 96" width="3.189" height="36.47" transform="translate(126.26 73.611)" fill="#d6d6e3"/>
    <rect id="Rectangle_97" data-name="Rectangle 97" width="3.189" height="2.635" transform="translate(63.165 73.611)" opacity="0.1"/>
    <rect id="Rectangle_98" data-name="Rectangle 98" width="3.189" height="2.635" transform="translate(126.26 73.611)" opacity="0.1"/>
    <path id="Path_35" data-name="Path 35" d="M494.854,337.92q-.076.842-.194,1.708h-.451V337.92Z" transform="translate(-420.299 -286.012)" opacity="0.1"/>
    <path id="Path_36" data-name="Path 36" d="M507.921,355.668a.984.984,0,0,1-.922,1.051h-9.733V355.7h8.1a.509.509,0,0,0,.392-.761l-7.344-14.938a.651.651,0,0,0-.569-.368H494.21V337.93H498.8a.455.455,0,0,1,.4.257l8.419,16.263A2.765,2.765,0,0,1,507.921,355.668Z" transform="translate(-420.299 -286.02)" fill="#535461"/>
    <path id="Path_37" data-name="Path 37" d="M461.491,274.413l-.133.224-1.247-.833,3.859-29.675h.994s.041.137.107.4C465.735,247.092,469,261.616,461.491,274.413Z" transform="translate(-391.744 -207.475)" fill="#535461"/>
    <path id="Path_38" data-name="Path 38" d="M465.069,244.527l-3.578,29.887-.133.224-1.247-.833,3.859-29.675h.994S465,244.272,465.069,244.527Z" transform="translate(-391.744 -207.475)" opacity="0.1"/>
    <rect id="Rectangle_99" data-name="Rectangle 99" width="30.784" height="2.358" transform="translate(67.237 66.914) rotate(-83.17)" fill="#d6d6e3"/>
    <path id="Path_39" data-name="Path 39" d="M398.817,445.646a.28.28,0,0,1-.278.278h-.416a.278.278,0,0,1-.278-.278.138.138,0,0,1,0-.033.278.278,0,0,1,.275-.244h.416a.28.28,0,0,1,.268.211A.256.256,0,0,1,398.817,445.646Z" transform="translate(-339.605 -375.987)" fill="#e3edf9"/>
    <path id="Path_40" data-name="Path 40" d="M406.493,445.646a.28.28,0,0,1-.278.278H405.8a.278.278,0,0,1-.278-.278.271.271,0,0,1,.011-.076.262.262,0,0,1,.07-.119.272.272,0,0,1,.2-.081h.416a.28.28,0,0,1,.255.163A.285.285,0,0,1,406.493,445.646Z" transform="translate(-346.032 -375.987)" fill="#e3edf9"/>
    <path id="Path_41" data-name="Path 41" d="M413.312,445.638a.28.28,0,0,1-.278.278h-.416a.278.278,0,0,1-.278-.278.264.264,0,0,1,.024-.115.283.283,0,0,1,.252-.163h.416a.276.276,0,0,1,.278.278Z" transform="translate(-351.743 -375.979)" fill="#e3edf9"/>
    <path id="Path_42" data-name="Path 42" d="M420.994,445.646a.28.28,0,0,1-.278.278H420.3a.278.278,0,0,1-.228-.437l.033-.036a.272.272,0,0,1,.2-.081h.416a.28.28,0,0,1,.2.089A.268.268,0,0,1,420.994,445.646Z" transform="translate(-358.175 -375.987)" fill="#e3edf9"/>
    <path id="Path_43" data-name="Path 43" d="M398.809,446.66a.256.256,0,0,1,.008.067.28.28,0,0,1-.278.278h-.416a.278.278,0,0,1-.278-.278.138.138,0,0,1,0-.033Z" transform="translate(-339.605 -377.068)" opacity="0.1"/>
    <path id="Path_44" data-name="Path 44" d="M406.47,446.39a.287.287,0,0,1,.023.109.28.28,0,0,1-.278.278H405.8a.278.278,0,0,1-.278-.278.271.271,0,0,1,.011-.076Z" transform="translate(-346.032 -376.842)" opacity="0.1"/>
    <path id="Path_45" data-name="Path 45" d="M413.28,446.16a.277.277,0,0,1-.236.424h-.416a.278.278,0,0,1-.278-.278.264.264,0,0,1,.024-.115Z" transform="translate(-351.751 -376.649)" opacity="0.1"/>
    <path id="Path_46" data-name="Path 46" d="M420.994,446.1a.28.28,0,0,1-.278.278H420.3a.278.278,0,0,1-.228-.437l.846-.029A.268.268,0,0,1,420.994,446.1Z" transform="translate(-358.175 -376.44)" opacity="0.1"/>
    <path id="Path_47" data-name="Path 47" d="M399.932,447.632H391.89v-.366a.626.626,0,0,1,.6-.626l6.45-.223a.956.956,0,0,1,.989.955Z" transform="translate(-334.619 -376.864)" fill="#d6d6e3"/>
    <path id="Path_48" data-name="Path 48" d="M685.309,355.668a.984.984,0,0,0,.922,1.051h9.738V355.7h-8.109a.509.509,0,0,1-.392-.761l7.344-14.938a.651.651,0,0,1,.569-.368h3.635V337.93h-4.584a.455.455,0,0,0-.392.255l-8.419,16.263A2.764,2.764,0,0,0,685.309,355.668Z" transform="translate(-580.319 -286.02)" fill="#535461"/>
    <path id="Path_49" data-name="Path 49" d="M770.212,274.413l.133.224,1.247-.833-3.859-29.675h-.994s-.041.137-.107.4C765.965,247.092,762.692,261.616,770.212,274.413Z" transform="translate(-647.344 -207.475)" fill="#535461"/>
    <path id="Path_50" data-name="Path 50" d="M773.23,244.527l3.578,29.887.133.224,1.247-.833-3.858-29.675h-.994S773.3,244.271,773.23,244.527Z" transform="translate(-653.942 -207.475)" opacity="0.1"/>
    <rect id="Rectangle_100" data-name="Rectangle 100" width="2.358" height="30.784" transform="translate(119.376 36.626) rotate(-6.83)" fill="#d6d6e3"/>
    <path id="Path_51" data-name="Path 51" d="M860,445.646a.28.28,0,0,0,.278.278h.416a.278.278,0,0,0,.278-.278.145.145,0,0,0,0-.033.278.278,0,0,0-.275-.244h-.416a.28.28,0,0,0-.268.211.26.26,0,0,0-.013.065Z" transform="translate(-726.6 -375.987)" fill="#e3edf9"/>
    <path id="Path_52" data-name="Path 52" d="M852.327,445.646a.28.28,0,0,0,.278.278h.416a.278.278,0,0,0,.278-.278.27.27,0,0,0-.011-.076.262.262,0,0,0-.07-.119.272.272,0,0,0-.2-.081H852.6a.28.28,0,0,0-.255.163A.285.285,0,0,0,852.327,445.646Z" transform="translate(-720.175 -375.987)" fill="#e3edf9"/>
    <path id="Path_53" data-name="Path 53" d="M845.51,445.638a.28.28,0,0,0,.278.278h.416a.278.278,0,0,0,.278-.278.263.263,0,0,0-.024-.115.283.283,0,0,0-.252-.163h-.416a.277.277,0,0,0-.278.278Z" transform="translate(-714.467 -375.979)" fill="#e3edf9"/>
    <path id="Path_54" data-name="Path 54" d="M837.83,445.646a.28.28,0,0,0,.278.278h.416a.278.278,0,0,0,.228-.437l-.033-.036a.271.271,0,0,0-.2-.081h-.416a.28.28,0,0,0-.2.089A.268.268,0,0,0,837.83,445.646Z" transform="translate(-708.036 -375.987)" fill="#e3edf9"/>
    <path id="Path_55" data-name="Path 55" d="M860.008,446.66a.259.259,0,0,0-.008.067.28.28,0,0,0,.278.278h.416a.278.278,0,0,0,.278-.278.138.138,0,0,0,0-.033Z" transform="translate(-726.6 -377.068)" opacity="0.1"/>
    <path id="Path_56" data-name="Path 56" d="M852.353,446.39a.286.286,0,0,0-.023.109.28.28,0,0,0,.278.278h.416a.278.278,0,0,0,.278-.278.272.272,0,0,0-.011-.076Z" transform="translate(-720.178 -376.842)" opacity="0.1"/>
    <path id="Path_57" data-name="Path 57" d="M845.542,446.16a.277.277,0,0,0,.236.424h.416a.278.278,0,0,0,.278-.278.263.263,0,0,0-.024-.115Z" transform="translate(-714.458 -376.649)" opacity="0.1"/>
    <path id="Path_58" data-name="Path 58" d="M837.83,446.1a.28.28,0,0,0,.278.278h.416a.278.278,0,0,0,.228-.437l-.846-.029A.269.269,0,0,0,837.83,446.1Z" transform="translate(-708.036 -376.44)" opacity="0.1"/>
    <path id="Path_59" data-name="Path 59" d="M822.482,447.632h8.042v-.366a.626.626,0,0,0-.6-.626l-6.45-.223a.956.956,0,0,0-.989.955Z" transform="translate(-695.182 -376.864)" fill="#d6d6e3"/>
    <path id="Path_60" data-name="Path 60" d="M823.986,248.267c3.752-6.364,2.392-19.2,2.544-19.446.135-.216-.382-6.261-3.83-7.738-.623-1.234-1.236-2.625-1.236-2.625a1.092,1.092,0,0,1-.2.148q-.041-.111-.08-.224c-.044-.128-.085-.26-.125-.392a2.53,2.53,0,0,0,.294.075,1.226,1.226,0,0,0,.787-.07.877.877,0,0,0,.226-.174,1.714,1.714,0,0,0,.548-.813l1-2.4a18.706,18.706,0,0,0,1.148-3.326,9.364,9.364,0,0,0-.4-5.181,3.306,3.306,0,0,0-1.124-1.639c-1.117-.758-2.672-.234-3.949-.678-.42-.146-.8-.394-1.218-.543a3.746,3.746,0,0,0-2.8.254,13.328,13.328,0,0,0-2.34,1.626c-.376.288-.976.585-1.418.976a1.428,1.428,0,0,0-.7,1.273c.072.61.714.976,1.312,1.119.1.023.2.041.3.059a5.855,5.855,0,0,0,2.5,9.725,13.722,13.722,0,0,1,.79,1.778q.044.125.086.252a10.148,10.148,0,0,0-1.911.641c-.467.387.511,3.776.511,3.776-.249.316-.5.675-.76,1.06a22.859,22.859,0,0,0-3.6,9.85c-.163,1.286-.374,2.6-.642,3.853l-11.656-2.337-.024.288-.278-.068h0l-.875-.216-.034.2-.133-.063c-2.168-1.016-5.82-2.314-8.294-.976-2.61,1.405,3.023,3.272,6.639,4.266a5.873,5.873,0,0,0-3.253,1.02c-2.622,1.965,4.793,2.988,8.294,3.35l.141.015v.075l1.213.112.285.026.028.433s1.737.285,4.058.629a70.778,70.778,0,0,1-8.2,1.389,6,6,0,0,0-5.11,4.3,3.825,3.825,0,0,0-.059,2.069c.677,2.363-.15,19.747-.337,23.49l-4.285,2.467s-6.668.813-2.226,2.376a9.125,9.125,0,0,0,1.225.325c-.585.377-.535.87,1.19,1.475,4.445,1.558,14.777-.068,14.777-.068s-.226-1.831-.594-3.353l.114.01s-1.067-3.97.551-5.972S802.6,257.5,802.6,257.5s2.833-1.173,11.3-1.249c6.83,1.753,10.159-4.523,10.112-7.767A1.721,1.721,0,0,1,823.986,248.267Z" transform="translate(-663.025 -173.09)" fill="url(#linear-gradient)"/>
    <path id="Path_61" data-name="Path 61" d="M820.3,407.789l-.724,2.927s-.651-.146-1.626-.4c-3.3-.855-10.275-2.909-7.481-4.417,2.409-1.3,5.956-.036,8.062.951.771.363,1.35.688,1.608.841C820.251,407.756,820.3,407.789,820.3,407.789Z" transform="translate(-684.586 -342.474)" fill="#f8b9bf"/>
    <path id="Path_62" data-name="Path 62" d="M861.947,416.438l-.52,2.114s-.651-.146-1.626-.4l.587-3.466c.771.363,1.35.688,1.608.841Z" transform="translate(-726.433 -350.297)" opacity="0.1"/>
    <path id="Path_63" data-name="Path 63" d="M822.91,399.3l-2.02-.5.628-3.7,1.615.4Z" transform="translate(-687.394 -330.845)" fill="#d9dfe8"/>
    <path id="Path_64" data-name="Path 64" d="M828.822,400.381l-.872-.215.328-3.776.766.189Z" transform="translate(-693.306 -331.925)" opacity="0.1"/>
    <path id="Path_65" data-name="Path 65" d="M889.217,343.453s-3.879-2.241-5.6,4.188a52.761,52.761,0,0,0-1.886,9.39l-12.249-2.449-.389,4.474s13.1,4.228,14.744,3.921,6.993-9.27,6.993-9.27S895.687,346.761,889.217,343.453Z" transform="translate(-734.212 -290.328)" fill="#4877f4"/>
    <g id="Group_23" data-name="Group 23" transform="translate(125.24 52.909)" opacity="0.1">
      <path id="Path_66" data-name="Path 66" d="M820.3,407.789l-.724,2.927s-.651-.146-1.626-.4c-3.3-.855-10.275-2.909-7.481-4.417,2.409-1.3,5.956-.036,8.062.951.771.363,1.35.688,1.608.841C820.251,407.756,820.3,407.789,820.3,407.789Z" transform="translate(-809.826 -395.383)"/>
      <path id="Path_67" data-name="Path 67" d="M861.947,416.438l-.52,2.114s-.651-.146-1.626-.4l.587-3.466c.771.363,1.35.688,1.608.841Z" transform="translate(-851.673 -403.206)" opacity="0.1"/>
      <path id="Path_68" data-name="Path 68" d="M822.91,399.3l-2.02-.5.628-3.7,1.615.4Z" transform="translate(-812.634 -383.754)"/>
      <path id="Path_69" data-name="Path 69" d="M828.822,400.381l-.872-.215.328-3.776.766.189Z" transform="translate(-818.546 -384.834)" opacity="0.1"/>
      <path id="Path_70" data-name="Path 70" d="M889.217,344.453s-3.879-2.241-5.6,4.188a52.761,52.761,0,0,0-1.886,9.39l-12.249-2.449-.389,4.474s13.1,4.228,14.744,3.921,6.993-9.27,6.993-9.27S895.687,347.761,889.217,344.453Z" transform="translate(-859.452 -344.075)"/>
    </g>
    <path id="Path_71" data-name="Path 71" d="M796.628,650.191l-5,2.88s-6.479.794-2.163,2.306,14.35-.067,14.35-.067-.558-4.508-1.335-5.138S796.628,650.191,796.628,650.191Z" transform="translate(-666.294 -547.253)" fill="#68739d"/>
    <path id="Path_72" data-name="Path 72" d="M856.136,452.617a34.807,34.807,0,0,1-6.909,2.425,69.24,69.24,0,0,1-8.075,1.376,5.824,5.824,0,0,0-4.963,4.168,3.715,3.715,0,0,0-.057,2.017c.737,2.574-.363,23.5-.363,23.5l7.595.7s-1.036-3.856.537-5.8-.263-16.736-.263-16.736,2.752-1.138,10.974-1.213c7.618,1.952,10.756-6.386,9.581-8.723S856.136,452.617,856.136,452.617Z" transform="translate(-706.311 -381.993)" fill="#6394e2"/>
    <g id="Group_24" data-name="Group 24" transform="translate(121.687 70.549)" opacity="0.1">
      <path id="Path_73" data-name="Path 73" d="M796.628,650.191l-5,2.88s-6.479.794-2.163,2.306,14.35-.067,14.35-.067-.558-4.508-1.335-5.138S796.628,650.191,796.628,650.191Z" transform="translate(-787.982 -617.802)"/>
      <path id="Path_74" data-name="Path 74" d="M856.136,452.617a34.807,34.807,0,0,1-6.909,2.425,69.24,69.24,0,0,1-8.075,1.376,5.824,5.824,0,0,0-4.963,4.168,3.715,3.715,0,0,0-.057,2.017c.737,2.574-.363,23.5-.363,23.5l7.595.7s-1.036-3.856.537-5.8-.263-16.736-.263-16.736,2.752-1.138,10.974-1.213c7.618,1.952,10.756-6.386,9.581-8.723S856.136,452.617,856.136,452.617Z" transform="translate(-827.998 -452.543)"/>
    </g>
    <path id="Path_75" data-name="Path 75" d="M811.055,660.941l-5,2.88s-6.476.787-2.163,2.306,14.35-.067,14.35-.067-.558-4.508-1.335-5.137S811.055,660.941,811.055,660.941Z" transform="translate(-678.376 -556.255)" fill="#68739d"/>
    <path id="Path_76" data-name="Path 76" d="M868.982,473.793c-8.223.075-10.974,1.213-10.974,1.213s1.836,14.8.263,16.736-.537,5.8-.537,5.8l-7.595-.7s.013-.247.034-.69c.182-3.636.984-20.517.325-22.812a3.714,3.714,0,0,1,.057-2.01,5.825,5.825,0,0,1,4.962-4.178,67.274,67.274,0,0,0,8.073-1.376l.127-.033a34.515,34.515,0,0,0,6.782-2.392s6.881-.618,8.057,1.719a2.765,2.765,0,0,1,.241,1.179C878.856,469.4,875.619,475.5,868.982,473.793Z" transform="translate(-718.344 -390.981)" fill="#6394e2"/>
    <path id="Path_77" data-name="Path 77" d="M841.39,435.6l-.278,3.009s-.668-.047-1.662-.151c-3.394-.353-10.594-1.345-8.049-3.253,2.189-1.639,5.884-.924,8.114-.26.813.244,1.438.48,1.716.592C841.333,435.572,841.39,435.6,841.39,435.6Z" transform="translate(-702.206 -366.634)" fill="#f8b9bf"/>
    <path id="Path_78" data-name="Path 78" d="M975.031,282.978s-1.018.8-2.262,1.672c-1.365.309-2.948.564-4.09.73a6.493,6.493,0,0,0-.3-4.048,15.236,15.236,0,0,0-2.041-3.753l6.883-2.148a6.323,6.323,0,0,0,.163,4.284A14.125,14.125,0,0,0,975.031,282.978Z" transform="translate(-815.646 -233.685)" fill="#f8b9bf"/>
    <path id="Path_79" data-name="Path 79" d="M885.5,440.254l-.2,2.161s-.668-.047-1.662-.151l.065-3.514c.813.244,1.438.48,1.716.592Z" transform="translate(-746.396 -370.444)" opacity="0.1"/>
    <path id="Path_80" data-name="Path 80" d="M846.852,423.015l-2.072-.192.068-3.754,1.657.153Z" transform="translate(-707.399 -350.917)" fill="#d9dfe8"/>
    <path id="Path_81" data-name="Path 81" d="M985.54,304.992s-1.018.8-2.262,1.672c-1.364.309-2.948.564-4.09.73a6.493,6.493,0,0,0-.3-4.048,36,36,0,0,0,5.006-1.626A14.122,14.122,0,0,0,985.54,304.992Z" transform="translate(-826.155 -255.699)" opacity="0.1"/>
    <path id="Path_82" data-name="Path 82" d="M974.4,302.22s1.151,2.613,1.877,3.794-8.427,2.277-8.427,2.277-.95-3.29-.5-3.667S973.638,302.984,974.4,302.22Z" transform="translate(-816.396 -256.118)" fill="#d9dfe8"/>
    <path id="Path_83" data-name="Path 83" d="M948.756,466.249a8.235,8.235,0,0,1-1.425,1.844c-4.043,3.841-10.67-.163-13.661-2.352a34.511,34.511,0,0,0,6.782-2.392s6.881-.618,8.057,1.719a2.764,2.764,0,0,1,.247,1.181Z" transform="translate(-788.289 -390.981)" opacity="0.1"/>
    <path id="Path_84" data-name="Path 84" d="M939.569,344.459c-4.6,4.365-12.522-1.415-14.659-3.118-.346-.276-.54-.447-.54-.447a10.664,10.664,0,0,0,2.173-4.515,39.625,39.625,0,0,0,1.182-5.982,22.2,22.2,0,0,1,3.5-9.568c.249-.374.488-.724.737-1.029a15.107,15.107,0,0,1,4.651-3.609c6.154-1.8,6.982,7.33,6.817,7.593S944.912,339.383,939.569,344.459Z" transform="translate(-780.502 -267.622)" fill="#4877f4"/>
    <path id="Path_85" data-name="Path 85" d="M940.165,362.591s-3.957,9.66-5.539,10.212c-.906.314-5.744-.281-9.715-.849-.346-.276-.54-.447-.54-.447a10.664,10.664,0,0,0,2.173-4.515l5.115.244a52.223,52.223,0,0,1,.467-9.566c.751-6.616,4.916-4.976,4.916-4.976C943.931,355,940.165,362.591,940.165,362.591Z" transform="translate(-780.502 -298.232)" opacity="0.1"/>
    <path id="Path_86" data-name="Path 86" d="M851.692,423.434l-.894-.083-.237-3.781.785.072Z" transform="translate(-712.239 -351.336)" opacity="0.1"/>
    <path id="Path_87" data-name="Path 87" d="M909.7,350.075s-4.165-1.638-4.916,4.976a52.228,52.228,0,0,0-.467,9.566l-12.479-.6.281,4.482s13.581,2.23,15.164,1.68,5.539-10.212,5.539-10.212S916.586,352.381,909.7,350.075Z" transform="translate(-753.262 -296.04)" fill="#4877f4"/>
    <path id="Path_88" data-name="Path 88" d="M974.241,280.966c-.182-.989.851-.976,1.221-1.906l-6.883,2.148a15.187,15.187,0,0,1,1.275,2.028,5.71,5.71,0,0,0,1.095.211C972.59,283.6,973.1,281.989,974.241,280.966Z" transform="translate(-817.522 -236.724)" opacity="0.1"/>
    <circle id="Ellipse_24" data-name="Ellipse 24" cx="5.686" cy="5.686" r="5.686" transform="translate(147.397 45.606) rotate(-84.72)" fill="#f8b9bf"/>
    <path id="Path_89" data-name="Path 89" d="M949.561,215.125c.07.592.694.953,1.275,1.086a5.587,5.587,0,0,1,1.719.451,2.639,2.639,0,0,1,.93,2.57c-.057.54-.138,1.2.3,1.516a1.179,1.179,0,0,0,.455.163,4.27,4.27,0,0,0,1.4.049,1.994,1.994,0,0,1,.813-.021,1.238,1.238,0,0,1,.761,1.007c.083.434.037.886.1,1.324a2.748,2.748,0,0,0,2.166,2.235,1.192,1.192,0,0,0,.764-.068,1.528,1.528,0,0,0,.6-.833l.976-2.335a18.2,18.2,0,0,0,1.116-3.23,9.094,9.094,0,0,0-.389-5.032,3.224,3.224,0,0,0-1.091-1.592c-1.085-.737-2.6-.228-3.835-.651-.408-.141-.776-.382-1.182-.527a3.641,3.641,0,0,0-2.721.247,12.867,12.867,0,0,0-2.277,1.586C950.806,213.57,949.439,214.1,949.561,215.125Z" transform="translate(-801.589 -179.792)" opacity="0.1"/>
    <path id="Path_90" data-name="Path 90" d="M950.482,214.355c.07.592.694.953,1.275,1.086a5.585,5.585,0,0,1,1.719.45,2.639,2.639,0,0,1,.93,2.57c-.057.54-.138,1.2.3,1.516a1.179,1.179,0,0,0,.455.163,4.27,4.27,0,0,0,1.4.049,1.993,1.993,0,0,1,.813-.021,1.237,1.237,0,0,1,.761,1.007c.083.434.037.886.1,1.324a2.748,2.748,0,0,0,2.166,2.235,1.192,1.192,0,0,0,.764-.068,1.528,1.528,0,0,0,.6-.833l.976-2.335a18.2,18.2,0,0,0,1.116-3.23,9.094,9.094,0,0,0-.389-5.032,3.225,3.225,0,0,0-1.091-1.592c-1.085-.737-2.6-.228-3.835-.651-.408-.141-.776-.382-1.182-.527a3.641,3.641,0,0,0-2.721.247,12.866,12.866,0,0,0-2.277,1.586C951.729,212.8,950.361,213.332,950.482,214.355Z" transform="translate(-802.361 -179.147)" fill="#b96b6b"/>
    <path id="Path_91" data-name="Path 91" d="M949.878,373.34s-2.171,8.434-4.333,9.215-1.207,1-1.207,1" transform="translate(-797.047 -315.672)" opacity="0.1"/>
    <rect id="Rectangle_101" data-name="Rectangle 101" width="2.36" height="15.51" transform="translate(150.574 88.565)" fill="#d6d6e3"/>
    <rect id="Rectangle_102" data-name="Rectangle 102" width="2.36" height="1.15" transform="translate(150.574 88.565)" opacity="0.1"/>
    <path id="Path_92" data-name="Path 92" d="M936.57,558.893v.325a.763.763,0,0,0,.763.763h10.275a.763.763,0,0,0,.763-.763v-.325a.763.763,0,0,0-.763-.763H937.333A.763.763,0,0,0,936.57,558.893Z" transform="translate(-790.718 -470.409)" fill="#d6d6e3"/>
    <path id="Path_93" data-name="Path 93" d="M937.65,558.408H949.1a.76.76,0,0,0-.589-.278H938.237A.76.76,0,0,0,937.65,558.408Z" transform="translate(-791.622 -470.409)" opacity="0.1"/>
    <rect id="Rectangle_103" data-name="Rectangle 103" width="19.387" height="1.854" rx="0.927" transform="translate(142.061 103.231)" fill="#d6d6e3"/>
    <circle id="Ellipse_25" data-name="Ellipse 25" cx="1.181" cy="1.181" r="1.181" transform="translate(159.172 105.085)" fill="#535461"/>
    <circle id="Ellipse_26" data-name="Ellipse 26" cx="1.181" cy="1.181" r="1.181" transform="translate(141.975 105.085)" fill="#535461"/>
    <circle id="Ellipse_27" data-name="Ellipse 27" cx="1.181" cy="1.181" r="1.181" transform="translate(150.574 105.085)" fill="#535461"/>
    <rect id="Rectangle_104" data-name="Rectangle 104" width="18.545" height="2.866" rx="1.433" transform="translate(149.246 69.514)" fill="#d6d6e3"/>
    <path id="Path_94" data-name="Path 94" d="M967.96,653.5a1.858,1.858,0,0,1-2.36,0" transform="translate(-815.026 -550.269)" opacity="0.1"/>
    <path id="Path_95" data-name="Path 95" d="M975.985,455.17v.226a1.179,1.179,0,0,1-1.179,1.179H958.619a1.179,1.179,0,0,1-1.179-1.179v-.226Z" transform="translate(-808.193 -384.194)" opacity="0.1"/>
    <rect id="Rectangle_105" data-name="Rectangle 105" width="3.189" height="40.635" transform="translate(133.748 73.611)" fill="#d6d6e3"/>
    <rect id="Rectangle_106" data-name="Rectangle 106" width="3.189" height="2.635" transform="translate(133.748 73.611)" opacity="0.1"/>
    <rect id="Rectangle_107" data-name="Rectangle 107" width="2.36" height="15.51" transform="translate(37.878 89.674)" fill="#d6d6e3"/>
    <rect id="Rectangle_108" data-name="Rectangle 108" width="2.36" height="1.15" transform="translate(37.878 89.674)" opacity="0.1"/>
    <path id="Path_96" data-name="Path 96" d="M255.41,565.756v.325a.763.763,0,0,1-.763.763H244.373a.763.763,0,0,1-.763-.763v-.325a.763.763,0,0,1,.763-.756h10.275a.763.763,0,0,1,.763.763Z" transform="translate(-210.454 -476.162)" fill="#d6d6e3"/>
    <path id="Path_97" data-name="Path 97" d="M256.132,565.27H244.68a.759.759,0,0,1,.589-.27h10.275A.759.759,0,0,1,256.132,565.27Z" transform="translate(-211.35 -476.162)" opacity="0.1"/>
    <rect id="Rectangle_109" data-name="Rectangle 109" width="19.387" height="1.854" rx="0.927" transform="translate(29.364 104.34)" fill="#d6d6e3"/>
    <circle id="Ellipse_28" data-name="Ellipse 28" cx="1.181" cy="1.181" r="1.181" transform="translate(29.279 106.194)" fill="#535461"/>
    <circle id="Ellipse_29" data-name="Ellipse 29" cx="1.181" cy="1.181" r="1.181" transform="translate(46.474 106.194)" fill="#535461"/>
    <circle id="Ellipse_30" data-name="Ellipse 30" cx="1.181" cy="1.181" r="1.181" transform="translate(37.876 106.194)" fill="#535461"/>
    <path id="Path_98" data-name="Path 98" d="M272.64,660.32a1.858,1.858,0,0,0,2.36,0" transform="translate(-234.763 -555.98)" opacity="0.1"/>
    <path id="Path_99" data-name="Path 99" d="M625.384,288.4s-2.648-4.812-1.68-9a8.321,8.321,0,0,0-.463-5.243A14,14,0,0,0,622,271.93" transform="translate(-527.306 -230.754)" fill="none" stroke="#535461" stroke-miterlimit="10" stroke-width="2"/>
    <path id="Path_100" data-name="Path 100" d="M613.585,250.508a9.278,9.278,0,0,1-.6,2.711,9.292,9.292,0,0,1-1.683-2.209,1.169,1.169,0,1,1,2.277-.5Z" transform="translate(-518.304 -211.974)" fill="#4877f4"/>
    <path id="Path_101" data-name="Path 101" d="M630.332,266.275c-.226.6-1.978,1.952-1.978,1.952a9.212,9.212,0,0,1-.211-2.765,1.169,1.169,0,1,1,2.191.813Z" transform="translate(-532.395 -224.662)" fill="#4877f4"/>
    <path id="Path_102" data-name="Path 102" d="M635.642,300.751a9.252,9.252,0,0,1-2.692.683,9.269,9.269,0,0,1,1.215-2.5,1.169,1.169,0,1,1,1.477,1.813Z" transform="translate(-536.475 -253.149)" fill="#4877f4"/>
    <path id="Path_103" data-name="Path 103" d="M635.887,330.464a9.223,9.223,0,0,1-2.537,1.129,9.259,9.259,0,0,1,.774-2.665,1.169,1.169,0,1,1,1.761,1.537Z" transform="translate(-536.81 -278.124)" fill="#4877f4"/>
    <path id="Path_104" data-name="Path 104" d="M612.21,279.334a9.22,9.22,0,0,0,2.757.325,9.245,9.245,0,0,0-1.526-2.319,1.169,1.169,0,1,0-1.231,1.987Z" transform="translate(-518.622 -235.123)" fill="#4877f4"/>
    <path id="Path_105" data-name="Path 105" d="M610.707,312.9a9.18,9.18,0,0,0,2.729-.507,9.238,9.238,0,0,0-2.15-1.756,1.169,1.169,0,0,0-.579,2.264Z" transform="translate(-517.151 -263.145)" fill="#4877f4"/>
    <path id="Path_106" data-name="Path 106" d="M615.764,346.338a9.273,9.273,0,0,0,2.776-.039,9.28,9.28,0,0,0-1.821-2.095,1.17,1.17,0,1,0-.955,2.135Z" transform="translate(-521.505 -291.189)" fill="#4877f4"/>
    <path id="Path_107" data-name="Path 107" d="M613.585,250.508a9.278,9.278,0,0,1-.6,2.711,9.292,9.292,0,0,1-1.683-2.209,1.169,1.169,0,1,1,2.277-.5Z" transform="translate(-518.304 -211.974)" fill="#4877f4"/>
    <path id="Path_108" data-name="Path 108" d="M630.332,266.275c-.226.6-1.978,1.952-1.978,1.952a9.212,9.212,0,0,1-.211-2.765,1.169,1.169,0,1,1,2.191.813Z" transform="translate(-532.395 -224.662)" fill="#4877f4"/>
    <path id="Path_109" data-name="Path 109" d="M635.642,300.751a9.252,9.252,0,0,1-2.692.683,9.269,9.269,0,0,1,1.215-2.5,1.169,1.169,0,1,1,1.477,1.813Z" transform="translate(-536.475 -253.149)" fill="#4877f4"/>
    <path id="Path_110" data-name="Path 110" d="M635.887,330.464a9.223,9.223,0,0,1-2.537,1.129,9.259,9.259,0,0,1,.774-2.665,1.169,1.169,0,1,1,1.761,1.537Z" transform="translate(-536.81 -278.124)" fill="#4877f4"/>
    <path id="Path_111" data-name="Path 111" d="M612.21,279.334a9.22,9.22,0,0,0,2.757.325,9.245,9.245,0,0,0-1.526-2.319,1.169,1.169,0,1,0-1.231,1.987Z" transform="translate(-518.622 -235.123)" fill="#4877f4"/>
    <path id="Path_112" data-name="Path 112" d="M610.707,312.9a9.18,9.18,0,0,0,2.729-.507,9.238,9.238,0,0,0-2.15-1.756,1.169,1.169,0,0,0-.579,2.264Z" transform="translate(-517.151 -263.145)" fill="#4877f4"/>
    <path id="Path_113" data-name="Path 113" d="M615.764,346.338a9.273,9.273,0,0,0,2.776-.039,9.28,9.28,0,0,0-1.821-2.095,1.17,1.17,0,1,0-.955,2.135Z" transform="translate(-521.505 -291.189)" fill="#4877f4"/>
    <path id="Path_114" data-name="Path 114" d="M621.834,376.477h0a2.787,2.787,0,0,1-2.783-2.963l.779-12.344h4.007l.779,12.344a2.787,2.787,0,0,1-2.783,2.963Z" transform="translate(-524.833 -305.481)" fill="#4877f4"/>
    <path id="Path_115" data-name="Path 115" d="M243.622,275.246l-4.132-2.636c-.021-3.713-.08-20.95.693-23.256a3.788,3.788,0,0,0,.033-2.051,5.937,5.937,0,0,0-4.868-4.479,69.943,69.943,0,0,1-8.05-1.732c2.311-.239,4.043-.446,4.043-.446l.046-.428,1.488-.072v-.063l.141-.008c3.475-.207,10.856-.894,8.348-2.953a5.783,5.783,0,0,0-3.166-1.151c3.62-.826,9.278-2.426,6.756-3.931-2.4-1.428-6.068-.306-8.258.607l-.135.057-.024-.2-.875.176h0l-.278.055-.013-.286-12.277,1.9a41.9,41.9,0,0,0-.5-4.2c.275-1.831,1.553-4.5,1.1-5.934-.524-1.664-2.674-2.209-3.578-3.711-.237-.392-.473-.759-.7-1.081a11.385,11.385,0,0,0-1.732-1.872,7.9,7.9,0,0,1,.638-2.805,13.589,13.589,0,0,1,.859-1.724,5.79,5.79,0,0,0,4.3-6.668,1.817,1.817,0,0,0,2.209-.283l-.231-.089a.734.734,0,0,0,.065-.076,4.365,4.365,0,0,1-1.347-.714,1.578,1.578,0,0,1-.236-.35c-.224-.455-.2-1-.413-1.464a1.693,1.693,0,0,0-.421-.55,2.9,2.9,0,0,0-1.376-.787,17.4,17.4,0,0,1-1.768-.488,5.977,5.977,0,0,0-6.36-1.789l-.2.07a2.652,2.652,0,1,0-5.174-1.171,2.646,2.646,0,0,1,.709-1.584c-.042.036-.086.07-.127.107a2.654,2.654,0,0,0-.115,3.752l.047.046a2.666,2.666,0,0,0,.665.582,2.654,2.654,0,0,1-1.75-2.174v.163a2.654,2.654,0,0,0,2.822,2.495l.073-.008-.039.054a5.97,5.97,0,0,0,.537,7.392,2.765,2.765,0,0,0,.426.683,2.212,2.212,0,0,0,.2.2,2.522,2.522,0,0,0,1.7.784q.163.194.346.372a9.679,9.679,0,0,1-.42,1.34,14.2,14.2,0,0,1-1.288,2.483c-3.513,1-3.822,6.964-3.695,7.19a92.391,92.391,0,0,0,2.078,20.953c-.107,3.235,1.779,8.584,8.476,7.174,8.375.447,11.122,1.73,11.122,1.73s-.8,14.567.34,16.687c.711,1.329.207,3.28-.325,4.658a5.117,5.117,0,0,0-.468,1.08c-.163.343-.281.551-.281.551h.114c-.429,1.491-.733,3.292-.733,3.292s10.153,2.061,14.619.712c1.734-.524,1.805-1.008,1.242-1.408a9.045,9.045,0,0,0,1.226-.268C250.189,276.351,243.622,275.246,243.622,275.246Z" transform="translate(-180.342 -167.672)" fill="url(#linear-gradient-2)"/>
    <path id="Path_116" data-name="Path 116" d="M232.709,224.855A5.855,5.855,0,1,1,226.855,219,5.855,5.855,0,0,1,232.709,224.855Z" transform="translate(-191.521 -186.432)" fill="#fa595f"/>
    <path id="Path_117" data-name="Path 117" d="M374.09,413.25l.594,2.963s.66-.119,1.638-.325c3.339-.707,10.394-2.454,7.661-4.084-2.35-1.4-5.949-.3-8.1.6-.787.325-1.379.628-1.644.769C374.144,413.219,374.09,413.25,374.09,413.25Z" transform="translate(-319.714 -347.322)" fill="#f8b9bf"/>
    <path id="Path_118" data-name="Path 118" d="M375.045,420.586l.426,2.127s.66-.119,1.638-.325l-.434-3.488c-.787.325-1.379.628-1.644.769Z" transform="translate(-320.501 -353.822)" opacity="0.1"/>
    <path id="Path_119" data-name="Path 119" d="M334.505,403.454l2.039-.408-.462-3.726-1.633.327Z" transform="translate(-280.064 -334.379)" fill="#d9dfe8"/>
    <path id="Path_120" data-name="Path 120" d="M334.505,404.342l.88-.177-.161-3.784-.774.154Z" transform="translate(-280.064 -335.267)" opacity="0.1"/>
    <path id="Path_121" data-name="Path 121" d="M240.427,342.389s3.97-2.069,5.412,4.432a51.733,51.733,0,0,1,1.464,9.463l12.347-1.908.192,4.487s-13.271,3.648-14.9,3.267-6.583-9.571-6.583-9.571S233.82,345.412,240.427,342.389Z" transform="translate(-204.783 -289.492)" fill="#4877f4"/>
    <g id="Group_25" data-name="Group 25" transform="translate(32.38 52.909)" opacity="0.1">
      <path id="Path_122" data-name="Path 122" d="M374.09,413.25l.594,2.963s.66-.119,1.638-.325c3.339-.707,10.394-2.454,7.661-4.084-2.35-1.4-5.949-.3-8.1.6-.787.325-1.379.628-1.644.769C374.144,413.219,374.09,413.25,374.09,413.25Z" transform="translate(-352.094 -400.231)"/>
      <path id="Path_123" data-name="Path 123" d="M375.045,420.586l.426,2.127s.66-.119,1.638-.325l-.434-3.488c-.787.325-1.379.628-1.644.769Z" transform="translate(-352.881 -406.731)" opacity="0.1"/>
      <path id="Path_124" data-name="Path 124" d="M334.505,403.454l2.039-.408-.462-3.726-1.633.327Z" transform="translate(-312.444 -387.288)"/>
      <path id="Path_125" data-name="Path 125" d="M334.505,404.342l.88-.177-.161-3.784-.774.154Z" transform="translate(-312.444 -388.176)" opacity="0.1"/>
      <path id="Path_126" data-name="Path 126" d="M242.427,344.389s3.97-2.069,5.412,4.432a51.735,51.735,0,0,1,1.464,9.463l12.347-1.908.192,4.487s-13.271,3.648-14.9,3.267-6.583-9.571-6.583-9.571S235.82,347.412,242.427,344.389Z" transform="translate(-238.838 -344.076)"/>
    </g>
    <path id="Path_127" data-name="Path 127" d="M358.875,654.2l4.869,3.09s6.439,1.078,2.059,2.4-14.333-.7-14.333-.7.756-4.479,1.561-5.072S358.875,654.2,358.875,654.2Z" transform="translate(-300.772 -550.445)" fill="#f37291"/>
    <path id="Path_128" data-name="Path 128" d="M242.614,451.956a34.764,34.764,0,0,0,6.795,2.727,67.771,67.771,0,0,0,8,1.732,5.824,5.824,0,0,1,4.773,4.391,3.714,3.714,0,0,1-.031,2.01c-.849,2.54-.677,23.5-.677,23.5l-7.618.366s1.205-3.807-.28-5.817,1-16.707,1-16.707-2.7-1.259-10.911-1.7c-7.7,1.626-10.464-6.855-9.185-9.138S242.614,451.956,242.614,451.956Z" transform="translate(-202.564 -381.349)" fill="#96a2d0"/>
    <g id="Group_26" data-name="Group 26" transform="translate(31.624 70.424)" opacity="0.1">
      <path id="Path_129" data-name="Path 129" d="M358.875,654.2l4.869,3.09s6.439,1.078,2.059,2.4-14.333-.7-14.333-.7.756-4.479,1.561-5.072S358.875,654.2,358.875,654.2Z" transform="translate(-332.396 -620.869)"/>
      <path id="Path_130" data-name="Path 130" d="M242.614,451.956a34.764,34.764,0,0,0,6.795,2.727,67.771,67.771,0,0,0,8,1.732,5.824,5.824,0,0,1,4.773,4.391,3.714,3.714,0,0,1-.031,2.01c-.849,2.54-.677,23.5-.677,23.5l-7.618.366s1.205-3.807-.28-5.817,1-16.707,1-16.707-2.7-1.259-10.911-1.7c-7.7,1.626-10.464-6.855-9.185-9.138S242.614,451.956,242.614,451.956Z" transform="translate(-234.188 -451.772)"/>
    </g>
    <path id="Path_131" data-name="Path 131" d="M343.955,664.308l4.869,3.09s6.439,1.078,2.059,2.4-14.333-.7-14.333-.7.756-4.479,1.561-5.072S343.955,664.308,343.955,664.308Z" transform="translate(-288.279 -558.911)" fill="#f37291"/>
    <path id="Path_132" data-name="Path 132" d="M234.848,473.409c8.213.437,10.911,1.7,10.911,1.7s-.779,14.282.325,16.361c1.179,2.205-1.054,6.164-1.054,6.164l7.618-.366v-.69c-.023-3.64-.078-20.54.678-22.806a3.714,3.714,0,0,0,.031-2.01,5.825,5.825,0,0,0-4.773-4.391,67.364,67.364,0,0,1-8-1.73l-.125-.039a34.109,34.109,0,0,1-6.668-2.688s-5.072-.351-6.343,1.932c-.163.3-.864.878-.893,1.348C226.361,469.335,228.151,474.819,234.848,473.409Z" transform="translate(-196.158 -390.659)" fill="#96a2d0"/>
    <path id="Path_133" data-name="Path 133" d="M351.81,439.8l.145,3.018s.67-.018,1.669-.078c3.407-.2,10.644-.877,8.185-2.895-2.114-1.735-5.838-1.182-8.094-.618-.828.208-1.464.416-1.74.516C351.867,439.781,351.81,439.8,351.81,439.8Z" transform="translate(-301.057 -370.383)" fill="#f8b9bf"/>
    <path id="Path_134" data-name="Path 134" d="M233,280.871s.976.841,2.186,1.771c1.35.368,2.927.694,4.054.911a6.505,6.505,0,0,1,.477-4.032,15.237,15.237,0,0,1,2.205-3.661l-6.782-2.451a6.331,6.331,0,0,1-.353,4.272A14.124,14.124,0,0,1,233,280.871Z" transform="translate(-201.569 -231.993)" fill="#f8b9bf"/>
    <path id="Path_135" data-name="Path 135" d="M352.06,443.495l.1,2.168s.67-.018,1.669-.078l.091-3.514c-.828.208-1.464.416-1.74.516Z" transform="translate(-301.266 -373.224)" opacity="0.1"/>
    <path id="Path_136" data-name="Path 136" d="M309.62,426.213l2.077-.1.1-3.754-1.662.08Z" transform="translate(-259.272 -353.672)" fill="#d9dfe8"/>
    <path id="Path_137" data-name="Path 137" d="M216.087,342.21c4.391,4.565,12.579-.86,14.781-2.467.358-.262.558-.423.558-.423-.813-.828-2.114-1.594-2.613-3.667a45.05,45.05,0,0,1-.966-6.427c-.135-1.716,1.638-4.983,1.125-6.613s-2.622-2.165-3.508-3.64c-.233-.384-.464-.745-.691-1.06a15.184,15.184,0,0,0-4.487-3.81c-6.074-2.074-6.551,6.6-6.4,6.871A89.689,89.689,0,0,0,216.087,342.21Z" transform="translate(-185.546 -265.8)" fill="#4877f4"/>
    <path id="Path_138" data-name="Path 138" d="M222.921,360.857s3.527,9.826,5.084,10.446c.891.354,5.752-.028,9.743-.42.358-.262.558-.423.558-.423a10.633,10.633,0,0,1-1.973-4.606l-5.121.018a52.177,52.177,0,0,0-.044-9.577c-.459-6.65-4.692-5.188-4.692-5.188C219.494,353.11,222.921,360.857,222.921,360.857Z" transform="translate(-192.425 -296.941)" opacity="0.1"/>
    <path id="Path_139" data-name="Path 139" d="M309.62,426.43l.9-.042.4-3.768-.789.037Z" transform="translate(-259.272 -353.89)" opacity="0.1"/>
    <path id="Path_140" data-name="Path 140" d="M227.217,348.518s4.228-1.452,4.692,5.188a52.048,52.048,0,0,1,.049,9.577l12.493-.046-.48,4.466s-13.661,1.626-15.222,1.01-5.085-10.444-5.085-10.444S220.234,350.519,227.217,348.518Z" transform="translate(-193.046 -294.773)" fill="#4877f4"/>
    <path id="Path_141" data-name="Path 141" d="M244.938,278.952c.226-.976-.813-1.007-1.138-1.952l6.785,2.439a15.189,15.189,0,0,0-1.363,1.969,5.711,5.711,0,0,1-1.1.163C246.47,281.653,246.03,280.022,244.938,278.952Z" transform="translate(-210.613 -234.999)" opacity="0.1"/>
    <circle id="Ellipse_31" data-name="Ellipse 31" cx="5.686" cy="5.686" r="5.686" transform="translate(31.669 34.917) rotate(-2.75)" fill="#f8b9bf"/>
    <path id="Path_142" data-name="Path 142" d="M253,375.14s1.8,8.52,3.923,9.39,1.161,1.055,1.161,1.055" transform="translate(-218.317 -317.179)" opacity="0.1"/>
    <path id="Path_143" data-name="Path 143" d="M281.833,395.586s-1.5.47-3.253-1.776" transform="translate(-239.736 -332.813)" opacity="0.1"/>
    <circle id="Ellipse_32" data-name="Ellipse 32" cx="2.602" cy="2.602" r="2.602" transform="translate(28.178 29.803)" fill="#fa595f"/>
    <path id="Path_144" data-name="Path 144" d="M212.9,208.12a2.6,2.6,0,0,1,0-3.56c-.042.034-.085.068-.124.106a2.6,2.6,0,0,0,3.565,3.793c.041-.037.076-.078.112-.117A2.6,2.6,0,0,1,212.9,208.12Z" transform="translate(-183.949 -174.34)" fill="#fa595f"/>
    <path id="Path_145" data-name="Path 145" d="M212.8,219.092a2.6,2.6,0,0,1-2.739-2.277v.163a2.6,2.6,0,0,0,5.194-.325,1.382,1.382,0,0,0-.018-.163A2.6,2.6,0,0,1,212.8,219.092Z" transform="translate(-182.36 -184.33)" fill="#fa595f"/>
    <path id="Path_146" data-name="Path 146" d="M237.164,224.511a11.654,11.654,0,0,0,1.952.571,2.419,2.419,0,0,1,1.6,1.148c.21.452.185.987.4,1.434a2.874,2.874,0,0,0,1.714,1.205c-.576.772-1.812.563-2.618.037a8.04,8.04,0,0,0-2.439-1.5,2.29,2.29,0,0,0-2.409,1.072,5.784,5.784,0,0,0-.475,1.477,5.536,5.536,0,0,1-2.114,3.384,2.938,2.938,0,0,1-3.727-.281,4.609,4.609,0,0,1-.849-2.191,4.45,4.45,0,0,1-.125-1.108,4.171,4.171,0,0,1,1.3-2.422c.74-.813,1.527-1.594,2.314-2.37.68-.67,1.464-1.805,2.488-1.885C235.362,222.985,236.2,224.037,237.164,224.511Z" transform="translate(-197.447 -189.843)" opacity="0.1"/>
    <path id="Path_147" data-name="Path 147" d="M236.164,223.511a11.654,11.654,0,0,0,1.952.571,2.419,2.419,0,0,1,1.6,1.148c.21.452.185.987.4,1.434a2.874,2.874,0,0,0,1.714,1.205c-.576.772-1.812.563-2.618.037a8.04,8.04,0,0,0-2.439-1.5,2.29,2.29,0,0,0-2.409,1.072,5.784,5.784,0,0,0-.475,1.477,5.536,5.536,0,0,1-2.114,3.384,2.938,2.938,0,0,1-3.727-.281,4.609,4.609,0,0,1-.849-2.191,4.452,4.452,0,0,1-.125-1.107,4.171,4.171,0,0,1,1.3-2.422c.74-.813,1.527-1.594,2.314-2.37.68-.67,1.464-1.805,2.488-1.885C234.362,221.985,235.2,223.037,236.164,223.511Z" transform="translate(-196.61 -189.006)" fill="#fa595f"/>
    <rect id="Rectangle_134" data-name="Rectangle 134" width="18.545" height="2.866" rx="1.433" transform="translate(23.02 70.623)" fill="#d6d6e3"/>
    <path id="Path_148" data-name="Path 148" d="M181.28,462v.226a1.179,1.179,0,0,0,1.179,1.179h16.187a1.179,1.179,0,0,0,1.179-1.179V462Z" transform="translate(-158.26 -389.913)" opacity="0.1"/>
    <rect id="Rectangle_135" data-name="Rectangle 135" width="3.189" height="40.63" transform="translate(55.677 73.611)" fill="#d6d6e3"/>
    <rect id="Rectangle_136" data-name="Rectangle 136" width="3.189" height="2.635" transform="translate(55.677 73.611)" opacity="0.1"/>
    <rect id="Rectangle_137" data-name="Rectangle 137" width="84.311" height="5.269" transform="translate(54.152 70.698)" fill="#d6d6e3"/>
  </g>
</svg>
