<svg xmlns="http://www.w3.org/2000/svg" xmlns:xlink="http://www.w3.org/1999/xlink" width="569" height="413" viewBox="0 0 569 413">
  <defs>
    <filter id="Rectangle_441" x="0" y="0" width="800" height="413" filterUnits="userSpaceOnUse">
      <feOffset dy="3" input="SourceAlpha"/>
      <feGaussianBlur stdDeviation="25" result="blur"/>
      <feFlood flood-color="#0b101c" flood-opacity="0.302"/>
      <feComposite operator="in" in2="blur"/>
      <feComposite in="SourceGraphic"/>
    </filter>
    <linearGradient id="linear-gradient" x2="0.706" y2="0.794" gradientUnits="objectBoundingBox">
      <stop offset="0" stop-color="#fff"/>
      <stop offset="1" stop-opacity="0"/>
    </linearGradient>
    <clipPath id="clip-path">
      <rect width="101" height="16" fill="none"/>
    </clipPath>
  </defs>
  <g id="Group_1196" data-name="Group 1196" transform="translate(-145 -190)">
    <g transform="matrix(1, 0, 0, 1, 145, 190)" filter="url(#Rectangle_441)">
      <rect id="Rectangle_441-2" data-name="Rectangle 441" width="419" height="263" rx="24" transform="translate(75 72)" fill="#4877f4"/>
    </g>
    <path id="Intersection_1" data-name="Intersection 1" d="M68.958,263,0,0H306.237a24,24,0,0,1,24,24V239a24,24,0,0,1-24,24Z" transform="translate(308.459 262)" opacity="0.347" fill="url(#linear-gradient)" style="mix-blend-mode: luminosity;isolation: isolate"/>
    <text id="Qubicles" transform="translate(413 372)" fill="#fff" stroke="rgba(0,0,0,0)" stroke-width="1" font-size="33" font-family="Poppins, sans-serif" font-weight="600"><tspan x="-73.276" y="0">Qubicles</tspan></text>
    <text id="_10_22" data-name="10/22" transform="translate(276 481)" fill="#dbdbdb" stroke="rgba(0,0,0,0)" stroke-width="1" font-size="14" font-family="SFProText-Regular, SF Pro Text"><tspan x="-18.46" y="0">10/22</tspan></text>
    <text id="_3426" data-name="3426" transform="translate(376 432)" fill="#fff" stroke="rgba(0,0,0,0)" stroke-width="1" font-size="34" font-family="CutiveMono-Regular, Cutive Mono"><tspan x="0" y="0">3426</tspan></text>
    <g id="Repeat_Grid_2" data-name="Repeat Grid 2" transform="translate(258 415)" clip-path="url(#clip-path)">
      <g transform="translate(-743 -389)">
        <circle id="Ellipse_295" data-name="Ellipse 295" cx="5" cy="5" r="5" transform="translate(746 392)" fill="#fff"/>
      </g>
      <g transform="translate(-717 -389)">
        <circle id="Ellipse_295-2" data-name="Ellipse 295" cx="5" cy="5" r="5" transform="translate(746 392)" fill="#fff"/>
      </g>
      <g transform="translate(-691 -389)">
        <circle id="Ellipse_295-3" data-name="Ellipse 295" cx="5" cy="5" r="5" transform="translate(746 392)" fill="#fff"/>
      </g>
      <g transform="translate(-665 -389)">
        <circle id="Ellipse_295-4" data-name="Ellipse 295" cx="5" cy="5" r="5" transform="translate(746 392)" fill="#fff"/>
      </g>
    </g>
    <g id="Group_1127" data-name="Group 1127" transform="translate(546.12 459.776)">
      <ellipse id="Ellipse_298" data-name="Ellipse 298" cx="17" cy="16.5" rx="17" ry="16.5" transform="translate(-0.12 0.224)" fill="#e61c24"/>
      <circle id="Ellipse_299" data-name="Ellipse 299" cx="16.682" cy="16.682" r="16.682" transform="translate(20.714 0)" fill="#f99f1b"/>
      <path id="Path_994" data-name="Path 994" d="M27.259,17.736h0a16.651,16.651,0,0,0,0,26.124h0a16.651,16.651,0,0,0,0-26.124Z" transform="translate(-0.219 -14.116)" fill="#f26622"/>
    </g>
    <g id="Group_1164" data-name="Group 1164" transform="translate(-1387.665 827.06)">
      <path id="Path_11" data-name="Path 11" d="M1688.524-477.342c-4.416-2.557-8.846-5.1-13.262-7.67a4,4,0,0,0-4.293,0c-4.443,2.57-8.873,5.113-13.317,7.684a3.871,3.871,0,0,0-2.051,3.527v15.491a3.893,3.893,0,0,0,2.078,3.568q6.624,3.814,13.235,7.643a4.058,4.058,0,0,0,4.361.014q6.6-3.835,13.207-7.629a3.94,3.94,0,0,0,2.119-3.65v-15.408A3.869,3.869,0,0,0,1688.524-477.342Zm-9.858,20.823a3.085,3.085,0,0,1-.014.506,1.062,1.062,0,0,1-1.135,1.039,4.626,4.626,0,0,1-.615-.027.987.987,0,0,1-.944-.9,4.007,4.007,0,0,1-.055-.7v-5.346a.943.943,0,0,0-.041-.438c-.137,0-.164.1-.219.164a5.811,5.811,0,0,1-8.285.779,6.665,6.665,0,0,1-2.256-4.2,8.319,8.319,0,0,1,.793-5.346,6.162,6.162,0,0,1,9.311-1.764c.246.219.451.479.724.752a4.96,4.96,0,0,1,.233-.984,1.681,1.681,0,0,1,2.283-.82.355.355,0,0,1,.219.328Z" transform="translate(2.992 3.07)" fill="#fff"/>
      <path id="Path_12" data-name="Path 12" d="M1697.463-462.213q0-3.5,0-7.008A21.315,21.315,0,0,0,1680.2-490.25a20.328,20.328,0,0,0-18.055,4.971,21.515,21.515,0,0,0-7.239,13.652,20.413,20.413,0,0,0-.182,2.818c0,4.543-.014,9.087.007,13.63a7.69,7.69,0,0,0,4.089,7.03q5.01,2.9,10.025,5.789a1.681,1.681,0,0,1,.878,1.821,1.617,1.617,0,0,1-1.492,1.3,2.09,2.09,0,0,1-1.28-.362q-2.461-1.427-4.926-2.848c-1.721-1-3.462-1.956-5.157-2.991a10.93,10.93,0,0,1-5.464-9.218.554.554,0,0,0-.313-.52c-.577-.317-1.141-.656-1.714-.979a3.549,3.549,0,0,1-1.911-3.272q-.022-3.794,0-7.588a3.541,3.541,0,0,1,1.916-3.268c.608-.34,1.206-.7,1.816-1.036a.634.634,0,0,0,.35-.55,24.161,24.161,0,0,1,6.159-13.883,23.923,23.923,0,0,1,14.976-8,23.954,23.954,0,0,1,19.123,5.431,24.209,24.209,0,0,1,8.728,15.49,3.037,3.037,0,0,1,.079.651,1,1,0,0,0,.68,1.038c.522.25,1.007.576,1.515.859a3.513,3.513,0,0,1,1.913,3.228c.021,2.569.025,5.138,0,7.706a3.517,3.517,0,0,1-1.906,3.194c-1.414.8-2.819,1.62-4.232,2.427-.688.394-1.117.138-1.118-.664Q1697.461-458.3,1697.463-462.213Z" transform="translate(0 0)" fill="#fff"/>
      <path id="Path_13" data-name="Path 13" d="M1672.7-471.253a13.874,13.874,0,0,1-.01,1.624,4.014,4.014,0,0,1-3.433,3.523,3.872,3.872,0,0,1-4.308-2.274,5.726,5.726,0,0,1,.029-4.979c1.351-2.884,5.269-2.718,6.9-.826A3.4,3.4,0,0,1,1672.7-471.253Z" transform="translate(6.219 6.767)" fill="#fff"/>
    </g>
  </g>
</svg>
