<svg xmlns="http://www.w3.org/2000/svg" width="21.5" height="21.955" viewBox="0 0 21.5 21.955">
  <g id="house" transform="translate(-1710.75 483.705)">
    <path id="Path_3" data-name="Path 3" d="M1720.079-482.363l-7.725,6.18a2.274,2.274,0,0,0-.854,1.777v9.631a2.276,2.276,0,0,0,2.275,2.275h2.45a2.276,2.276,0,0,0,2.275-2.275v-2.45a2.276,2.276,0,0,1,2.275-2.275h1.45a2.276,2.276,0,0,1,2.275,2.275v2.45a2.276,2.276,0,0,0,2.275,2.275h2.45a2.276,2.276,0,0,0,2.275-2.275v-9.631a2.274,2.274,0,0,0-.854-1.777l-7.725-6.18A2.274,2.274,0,0,0,1720.079-482.363Z" fill="none" stroke="#4877f4" stroke-linecap="round" stroke-linejoin="round" stroke-width="1.5"/>
  </g>
</svg>
