<svg xmlns="http://www.w3.org/2000/svg" width="16.977" height="18.547" viewBox="0 0 16.977 18.547">
  <g id="bell" transform="translate(0.75 0.75)">
    <path id="Path_9" data-name="Path 9" d="M15.156,8.739V6.417a5.417,5.417,0,1,0-10.834,0V8.739C4.322,11.293,2,11.912,2,13.382,2,14.7,5.018,15.7,9.739,15.7s7.739-1.006,7.739-2.322C17.477,11.912,15.156,11.293,15.156,8.739Z" transform="translate(-2 -1)" fill="none" stroke="#999" stroke-linecap="round" stroke-linejoin="round" stroke-miterlimit="10" stroke-width="1.5"/>
    <path id="Path_10" data-name="Path 10" d="M11.354,21.977c-.782,0-1.518-.026-2.209-.077a2.315,2.315,0,0,0,4.419,0C12.872,21.951,12.137,21.977,11.354,21.977Z" transform="translate(-3.616 -5.726)" fill="#999"/>
  </g>
</svg>
