<svg xmlns="http://www.w3.org/2000/svg" width="23.5" height="19.532" viewBox="0 0 23.5 19.532">
  <g id="users-mm" transform="translate(-1743.75 483.234)">
    <path id="Path_3" data-name="Path 3" d="M1762.5-464.452h2.792a1.208,1.208,0,0,0,1.208-1.208v-3.115a1,1,0,0,0-.627-.927l-3.748-1.5a1,1,0,0,1-.625-.925v-.878a3.983,3.983,0,0,0,2-3.445v-1.81a4.164,4.164,0,0,0-2.3-3.816,4.012,4.012,0,0,0-3.7.161" fill="none" stroke="#999" stroke-linecap="round" stroke-linejoin="round" stroke-width="1.5"/>
    <path id="Path_4" data-name="Path 4" d="M1757.873-468.7l-3.748-1.5a1,1,0,0,1-.625-.925v-.878a3.983,3.983,0,0,0,2-3.445v-1.828a4.116,4.116,0,0,0-3.607-4.153,4,4,0,0,0-4.393,3.981v2a3.983,3.983,0,0,0,2,3.445v.878a1,1,0,0,1-.627.927l-3.744,1.5a1,1,0,0,0-.629.93v2.111a1.208,1.208,0,0,0,1.208,1.208h11.584a1.208,1.208,0,0,0,1.208-1.208v-2.115A1,1,0,0,0,1757.873-468.7Z" fill="none" stroke="#999" stroke-linecap="round" stroke-linejoin="round" stroke-width="1.5"/>
  </g>
</svg>
