<svg xmlns="http://www.w3.org/2000/svg" width="20.472" height="21.14" viewBox="0 0 20.472 21.14">
  <g id="settings-gear" transform="translate(-0.76 -0.25)">
    <circle id="Ellipse_139" data-name="Ellipse 139" cx="2.619" cy="2.619" r="2.619" transform="translate(8.378 8.201)" stroke-width="1.5" stroke="#999" stroke-linecap="round" stroke-linejoin="round" stroke-miterlimit="10" fill="none"/>
    <path id="Path_683" data-name="Path 683" d="M18.2,10.82A7.239,7.239,0,0,0,18.056,9.4l2.427-1.784-1.964-3.4L15.751,5.422A7.172,7.172,0,0,0,13.293,4L12.96,1H9.032L8.7,4A7.172,7.172,0,0,0,6.241,5.422L3.474,4.208,1.51,7.612,3.937,9.4a7.207,7.207,0,0,0,0,2.848L1.51,14.028l1.964,3.4L6.241,16.22A7.172,7.172,0,0,0,8.7,17.642l.333,3H12.96l.333-3a7.172,7.172,0,0,0,2.458-1.422l2.767,1.214,1.964-3.4-2.427-1.785A7.239,7.239,0,0,0,18.2,10.82Z" fill="none" stroke="#999" stroke-linecap="round" stroke-linejoin="round" stroke-miterlimit="10" stroke-width="1.5"/>
  </g>
</svg>
