<svg xmlns="http://www.w3.org/2000/svg" width="18.525" height="18.525" viewBox="0 0 18.525 18.525">
  <g id="wallet-43" transform="translate(0.75 0.75)">
    <path id="Path_5" data-name="Path 5" d="M16.477,9.965V4.548H2.548A1.547,1.547,0,0,1,1,3V16.156a2.321,2.321,0,0,0,2.322,2.322H16.477V13.06" transform="translate(-1 -1.452)" fill="none" stroke="#999" stroke-linecap="round" stroke-linejoin="round" stroke-miterlimit="10" stroke-width="1.5"/>
    <path id="Path_6" data-name="Path 6" d="M13.382,1.774V1H2.548A1.547,1.547,0,0,0,1,2.548H1A1.547,1.547,0,0,0,2.548,4.1" transform="translate(-1 -1)" fill="none" stroke="#999" stroke-linecap="round" stroke-linejoin="round" stroke-miterlimit="10" stroke-width="1.5"/>
    <path id="Path_7" data-name="Path 7" d="M21.417,15.1H17.548A1.547,1.547,0,0,1,16,13.548h0A1.547,1.547,0,0,1,17.548,12h3.869Z" transform="translate(-4.392 -3.487)" fill="none" stroke="#999" stroke-linecap="round" stroke-linejoin="round" stroke-miterlimit="10" stroke-width="1.5"/>
  </g>
</svg>
