<svg xmlns="http://www.w3.org/2000/svg" width="458.262" height="248.882" viewBox="0 0 458.262 248.882">
  <g id="undraw_page_not_found_su7k" transform="translate(0.267)">
    <ellipse id="Ellipse_491" data-name="Ellipse 491" cx="224.715" cy="14.877" rx="224.715" ry="14.877" transform="translate(5.599 219.129)" fill="#f2f2f2"/>
    <path id="Path_1813" data-name="Path 1813" d="M498.728,324.894c-36.612,0-62.9,23.489-62.9,78.3,0,62.116,26.287,78.559,62.9,78.559s64.465-18.008,64.465-78.559C563.193,338.466,535.34,324.894,498.728,324.894Zm.241,136.238c-25.358,0-38.607-14.877-38.607-57.9,0-37.962,13.791-57.981,39.149-57.981s39.149,13.15,39.149,57.981C538.66,445.171,524.327,461.133,498.969,461.133Z" transform="translate(-277.026 -253.748)" fill="#444f5f"/>
    <path id="Path_1814" data-name="Path 1814" d="M231.39,446.731H216.253V402.155a8.927,8.927,0,0,0-8.927-8.927h-3.547a8.927,8.927,0,0,0-8.927,8.927v44.576h-42.7a5.1,5.1,0,0,1-4.506-7.477l45.191-85.532a8.927,8.927,0,0,0-4.081-12.243l-2.668-1.26a8.927,8.927,0,0,0-11.685,3.864L119.288,447.188a12.105,12.105,0,0,0-1.43,5.707h0A12.105,12.105,0,0,0,129.963,465h64.888v28.187a10.7,10.7,0,0,0,10.7,10.7h0a10.7,10.7,0,0,0,10.7-10.7V465H231.39a9.135,9.135,0,0,0,9.135-9.135h0a9.135,9.135,0,0,0-9.135-9.135Z" transform="translate(-94.511 -262.053)" fill="#4877f4"/>
    <path id="Path_1815" data-name="Path 1815" d="M889.387,446.731H874.249V402.154a8.927,8.927,0,0,0-8.927-8.927h-3.547a8.927,8.927,0,0,0-8.927,8.927v44.576h-42.7a5.1,5.1,0,0,1-4.506-7.477l45.191-85.532a8.927,8.927,0,0,0-4.081-12.243l-2.668-1.26a8.927,8.927,0,0,0-11.685,3.864L777.284,447.188a12.106,12.106,0,0,0-1.43,5.707h0A12.105,12.105,0,0,0,787.96,465h64.888v28.187a10.7,10.7,0,0,0,10.7,10.7h0a10.7,10.7,0,0,0,10.7-10.7V465h15.138a9.135,9.135,0,0,0,9.135-9.135h0a9.135,9.135,0,0,0-9.135-9.135Z" transform="translate(-472.202 -262.053)" fill="#4877f4"/>
    <path id="Path_1816" data-name="Path 1816" d="M241.193,434.478H226.055V389.9a8.927,8.927,0,0,0-8.927-8.927h-3.547a8.927,8.927,0,0,0-8.927,8.927v44.576h-42.7A5.1,5.1,0,0,1,157.45,427l45.191-85.532a8.927,8.927,0,0,0-4.081-12.243l-2.668-1.26a8.927,8.927,0,0,0-11.685,3.864L129.09,434.935a12.105,12.105,0,0,0-1.43,5.707h0a12.105,12.105,0,0,0,12.105,12.105h64.888v28.187a10.7,10.7,0,0,0,10.7,10.7h0a10.7,10.7,0,0,0,10.7-10.7V452.747h15.138a9.135,9.135,0,0,0,9.135-9.135h0A9.135,9.135,0,0,0,241.193,434.478Z" transform="translate(-100.138 -255.019)" fill="none" stroke="#3f3d56" stroke-miterlimit="10" stroke-width="1"/>
    <path id="Path_1817" data-name="Path 1817" d="M907.767,434.478H892.629V389.9a8.927,8.927,0,0,0-8.927-8.927h-3.547a8.927,8.927,0,0,0-8.927,8.927v44.576h-42.7A5.1,5.1,0,0,1,824.023,427l45.191-85.532a8.927,8.927,0,0,0-4.081-12.243l-2.668-1.26a8.927,8.927,0,0,0-11.685,3.864L795.664,434.935a12.1,12.1,0,0,0-1.43,5.707h0a12.105,12.105,0,0,0,12.105,12.105h64.888v28.187a10.7,10.7,0,0,0,10.7,10.7h0a10.7,10.7,0,0,0,10.7-10.7V452.747h15.138a9.135,9.135,0,0,0,9.135-9.135h0A9.135,9.135,0,0,0,907.767,434.478Z" transform="translate(-482.752 -255.019)" fill="none" stroke="#3f3d56" stroke-miterlimit="10" stroke-width="1"/>
    <path id="Path_1818" data-name="Path 1818" d="M518.333,313.866c-36.612,0-62.9,23.489-62.9,78.3,0,62.116,26.287,78.559,62.9,78.559S582.8,452.715,582.8,392.164C582.8,327.438,554.945,313.866,518.333,313.866Zm.241,136.238c-25.358,0-38.607-14.877-38.607-57.9,0-37.962,13.79-57.981,39.149-57.981s39.149,13.15,39.149,57.981C558.265,434.143,543.932,450.1,518.574,450.1Z" transform="translate(-288.28 -247.418)" fill="none" stroke="#3f3d56" stroke-miterlimit="10" stroke-width="1"/>
    <circle id="Ellipse_492" data-name="Ellipse 492" cx="5.496" cy="5.496" r="5.496" transform="translate(195.21 2.279)" fill="#444f5f"/>
    <ellipse id="Ellipse_493" data-name="Ellipse 493" cx="15.415" cy="19.973" rx="15.415" ry="19.973" transform="translate(198.696 0)" fill="#444f5f"/>
    <path id="Path_1819" data-name="Path 1819" d="M544.891,214.646c-7.722,0-14.118-7.357-15.24-16.957a25.967,25.967,0,0,0-.175,3.016c0,11.031,6.9,19.973,15.415,19.973s15.415-8.942,15.415-19.973a25.967,25.967,0,0,0-.175-3.016C559.009,207.289,552.613,214.646,544.891,214.646Z" transform="translate(-330.78 -180.732)" opacity="0.1"/>
    <path id="Path_1820" data-name="Path 1820" d="M607.866,334.6c-.331,1.36-1.758,2.45-3.339,3.211-3.324,1.6-7.423,2.078-11.4,2.238a19.247,19.247,0,0,1-3.044-.056,8.749,8.749,0,0,1-5.219-2.4.716.716,0,0,1,.019-1.212c2.117-2.325,5.65-3.751,9.208-4.778,2.7-.779,7.4-2.795,10.348-2.523C607.29,329.35,608.284,332.887,607.866,334.6Z" transform="translate(-362.387 -256.14)" fill="#3f3d56"/>
    <path id="Path_1821" data-name="Path 1821" d="M607.866,334.6c-.331,1.36-1.758,2.45-3.339,3.211-3.324,1.6-7.423,2.078-11.4,2.238a19.247,19.247,0,0,1-3.044-.056,8.749,8.749,0,0,1-5.219-2.4.716.716,0,0,1,.019-1.212c2.117-2.325,5.65-3.751,9.208-4.778,2.7-.779,7.4-2.795,10.348-2.523C607.29,329.35,608.284,332.887,607.866,334.6Z" transform="translate(-362.387 -256.14)" opacity="0.1"/>
    <path id="Path_1822" data-name="Path 1822" d="M538.858,288.272a8.422,8.422,0,0,0-.511,6.422,11.221,11.221,0,0,0,3.761,5.324c4.3,3.447,10.219,3.921,15.73,3.874a121.263,121.263,0,0,0,14.444-.99,17.269,17.269,0,0,0,4.687-1.088,7.184,7.184,0,0,0,4.02-4.058,4.943,4.943,0,0,0-1.335-5.357c-1.336-1.086-3.179-1.236-4.9-1.339l-9.835-.591a16.683,16.683,0,0,1,3.449-2.254,15.553,15.553,0,0,0,3.754-3.977,54.941,54.941,0,0,1,5.725-5.886,8.452,8.452,0,0,0,2.849,4.611c1.367,1.267,2.943,2.287,4.364,3.493,3.442,2.922,5.92,6.887,9.539,9.585a18.67,18.67,0,0,0,6.837-3.413l-1.407-2.548a1.679,1.679,0,0,0-.53-.662c-.4-.245-.911-.119-1.374-.188-1.236-.185-1.775-1.612-2.26-2.764-1.331-3.162-3.88-5.615-6.057-8.266a41.745,41.745,0,0,1-4.258-6.272,21.458,21.458,0,0,0-2.393-3.835,5.4,5.4,0,0,0-3.893-2.036,7.5,7.5,0,0,0-3.712,1.356,98.172,98.172,0,0,0-10.066,6.858,23.292,23.292,0,0,1-5.32,3.482c-.83.337-1.7.567-2.5.976a16.715,16.715,0,0,0-3.592,3.009A23.872,23.872,0,0,1,538.858,288.272Z" transform="translate(-335.637 -219.975)" fill="#3f3d56"/>
    <path id="Path_1823" data-name="Path 1823" d="M571.316,230.41a10.127,10.127,0,0,1-.739,3.422,4.279,4.279,0,0,1-2.457,2.374,5.272,5.272,0,0,1-2.4.078,4.636,4.636,0,0,1-1.952-.665,4.161,4.161,0,0,1-1.55-2.873c-.168-1.106-.093-2.236-.2-3.35a18.3,18.3,0,0,0-.512-2.665c-.072-.291-.146-.58-.219-.87s-.141-.579-.205-.869c-.059-.272-.114-.546-.161-.82-.039-.232-.074-.465-.1-.7a7.849,7.849,0,0,0-.344-2.05,6.228,6.228,0,0,0-.719-1.216c-.122-.174-.24-.349-.349-.529a2.509,2.509,0,0,1-.414-1.6,1.4,1.4,0,0,1,.063-.256c.011-.032.023-.064.036-.1a.768.768,0,0,0,.524-.489,1.462,1.462,0,0,0-.063-.757,4.815,4.815,0,0,0-.409-.975c-.113-.2-.495-.571-.5-.8-.005-.469.912-.847,1.283-1.032a7.155,7.155,0,0,1,3.662-.743,2.7,2.7,0,0,1,2.138.984,6.451,6.451,0,0,1,.52,2.118.626.626,0,0,0,.127.283.572.572,0,0,0,.315.145,1.939,1.939,0,0,0,.6.024h0a1.25,1.25,0,0,0,.158-.023,2.112,2.112,0,0,0,.866-.374q.249-.066.5-.109l.02,0c.672,2.119.759,4.391,1.308,6.55a16.811,16.811,0,0,1,.717,3.239c0,.048.005.1.007.147.008.355-.02.713-.005,1.067a2.98,2.98,0,0,0,.054.475,6.657,6.657,0,0,0,.224.743l0,.012c.025.078.05.157.07.236.015.058.028.114.039.172v0A6.364,6.364,0,0,1,571.316,230.41Z" transform="translate(-347.53 -189.473)" fill="#fbbebe"/>
    <circle id="Ellipse_494" data-name="Ellipse 494" cx="7.909" cy="7.909" r="7.909" transform="translate(206.47 11.26)" fill="#fbbebe"/>
    <path id="Path_1824" data-name="Path 1824" d="M622.338,255.767a12.97,12.97,0,0,0-2.231-6.008q.308,1.83.617,3.658a1.369,1.369,0,0,1-1.434-.441,4.4,4.4,0,0,1-.752-1.4,28.738,28.738,0,0,0-3.5-6.277c-5.035-.42-10.012-2.507-14.44-4.94s-8.574-5.347-12.943-7.882a18.566,18.566,0,0,0-2.362-1.206c-1.367-.548-2.9-.832-4.2-1.477-.087-.043-.174-.088-.26-.135a5.356,5.356,0,0,1-.828-.556,4.41,4.41,0,0,1-.4-.365,8.67,8.67,0,0,1-1.516-2.536c-.7-1.539-.944-3.4-1.638-4.934a4.773,4.773,0,0,1,1.066-.752h0c.056-.029.113-.058.17-.084a5.086,5.086,0,0,1,.854-.312q.249-.066.5-.109l.02,0a4.927,4.927,0,0,1,2.339.185,10.817,10.817,0,0,1,2.957,1.82,48.569,48.569,0,0,1,4.323,3.429c.764.732,1.461,1.536,2.283,2.2a17.956,17.956,0,0,0,2.154,1.428l13.34,7.945c1.505.9,3.012,1.794,4.484,2.743,2.236,1.442,4.391,3.005,6.545,4.567l3.807,2.76a4.143,4.143,0,0,1,1.079,1,3.608,3.608,0,0,1,.479,1.462A13.37,13.37,0,0,1,622.338,255.767Z" transform="translate(-357.747 -193.508)" fill="#fbbebe"/>
    <path id="Path_1825" data-name="Path 1825" d="M559.178,240.485c-.534,2.393-2.952,3.839-4.216,5.941-1.571,2.609-.93,5.641-.34,8.629l-3.235,2.787c-.6.511-1.19,1.024-1.831,1.476A24.434,24.434,0,0,1,546.634,261l-2.863,1.473a13.683,13.683,0,0,1-2.8,1.188,10.8,10.8,0,0,1-5.739-.414,2.594,2.594,0,0,1-.627-.256,1.021,1.021,0,0,1-.3-.269,1.666,1.666,0,0,1-.189-1.082,50.848,50.848,0,0,1,1.717-9.24,27.237,27.237,0,0,1,3.946-9.682,29.119,29.119,0,0,1,3.378-4.9,7.872,7.872,0,0,0,1.566-2.019,10.814,10.814,0,0,0,.389-3.513,7.306,7.306,0,0,1,.7-2.559h0a7.28,7.28,0,0,1,.743-1.228l.39.907q.129.3.255.594.165.382.327.761l.936,2.178a9.2,9.2,0,0,0,1.421,2.532,2.769,2.769,0,0,0,4.739-.363,9.057,9.057,0,0,0,.968-2.562,8.186,8.186,0,0,0,.107-3.338,39.449,39.449,0,0,0-1.89-6.3,6.366,6.366,0,0,1-.46-2.075,1.429,1.429,0,0,1,.024-.239l.012-.062a5.086,5.086,0,0,1,.854-.312q.249-.066.5-.109.871,4.713,1.744,9.426c.013.074.028.147.042.223.083.45.168.9.261,1.35.084.408.176.814.278,1.217l0,.012c.035.137.071.272.109.408v0c.1.37.219.737.349,1.1C558.309,236.025,559.683,238.221,559.178,240.485Z" transform="translate(-333.43 -193.6)" fill="#4877f4"/>
    <path id="Path_1826" data-name="Path 1826" d="M668.316,336.7a2.8,2.8,0,0,0,.26,1.339c.495.9,1.683,1.11,2.71,1.195a80.251,80.251,0,0,0,18.005-.549,2.081,2.081,0,0,0,.917-.284c.848-.594.325-2.043-.6-2.506a11.631,11.631,0,0,0-3.04-.553,9.575,9.575,0,0,1-2.845-1.234q-3.09-1.775-6.089-3.7c-1.19-.765-2.6-1.58-3.936-1.127C670.066,330.512,668.292,332.786,668.316,336.7Z" transform="translate(-410.472 -256.193)" fill="#3f3d56"/>
    <path id="Path_1827" data-name="Path 1827" d="M530.8,231.655h0c-.009.056-.019.111-.031.166-.015.091-.032.184-.05.275-.166.851-.37,1.7-.6,2.54-.643,2.326-1.505,4.614-2.361,6.869l-6.886,18.138c-.579,1.523-1.157,3.047-1.815,4.539-.22.5-.446,1-.672,1.505a20.943,20.943,0,0,0-1.839,5.617,11.694,11.694,0,0,0-.082,3.851,3.951,3.951,0,0,0,2.228,2.969c.587.229,1.428.536,1.267,1.146-.087.335-.468.5-.81.555a3.115,3.115,0,0,1-2.542-.732c-.642-.57-1.135-1.456-1.989-1.551a3.364,3.364,0,0,0-1.677.538c-2.209,1.009-4.783.3-7.1-.414a2.492,2.492,0,0,1,2.063-1.747,16.687,16.687,0,0,1,2.862-.08,1.5,1.5,0,0,0,.87-.224,1.578,1.578,0,0,0,.469-.8,33.636,33.636,0,0,0,1.369-5.6c.308-1.988.437-4.007.877-5.97.342-1.532.87-3.016,1.323-4.52a95.731,95.731,0,0,0,2.155-9.4,33.24,33.24,0,0,0,.607-3.991c.076-1.113.04-2.231.147-3.339a25.937,25.937,0,0,1,.9-4.259l1.229-4.554c.607-2.245,1.259-4.578,2.8-6.323a5.948,5.948,0,0,1,4.272-2.04,4.209,4.209,0,0,1,.908.1l.149.038a3.677,3.677,0,0,1,.926.383c.475-.3.716-.2,1.031.269a2.97,2.97,0,0,1,.375,1.617A22.326,22.326,0,0,1,530.8,231.655Z" transform="translate(-317.21 -196.302)" fill="#fbbebe"/>
    <path id="Path_1828" data-name="Path 1828" d="M560.884,233.219l-.02.02-.109.109-1.078,1.076-.528-2.218-1.811-7.606a4.21,4.21,0,0,1,.908.1,1.389,1.389,0,0,1,.063-.256l.086.294.614,2.088,1.162,3.965.192.653h0Z" transform="translate(-346.773 -196.088)" fill="#4877f4"/>
    <path id="Path_1829" data-name="Path 1829" d="M558.593,180.864a5.36,5.36,0,0,1-1.576,3.79,5.241,5.241,0,0,1-.579.5,5.337,5.337,0,0,1-3.21,1.075H546.8a5.363,5.363,0,1,1,0-10.727h6.431a5.38,5.38,0,0,1,5.366,5.361Z" transform="translate(-337.643 -167.998)" fill="#444f5f"/>
    <circle id="Ellipse_495" data-name="Ellipse 495" cx="5.496" cy="5.496" r="5.496" transform="translate(221.483 2.279)" fill="#444f5f"/>
    <path id="Path_1830" data-name="Path 1830" d="M595.283,163.234c-.067,0-.134,0-.2.005a5.494,5.494,0,0,1,0,10.982c.067,0,.134.005.2.005a5.5,5.5,0,0,0,0-10.992Z" transform="translate(-368.438 -160.955)" opacity="0.1"/>
    <path id="Path_1831" data-name="Path 1831" d="M526.79,163.234c.067,0,.134,0,.2.005a5.494,5.494,0,0,0,0,10.982c-.067,0-.134.005-.2.005a5.5,5.5,0,1,1,0-10.992Z" transform="translate(-326.083 -160.955)" opacity="0.1"/>
    <path id="Path_1832" data-name="Path 1832" d="M559.339,198.159a5.337,5.337,0,0,1-3.21,1.075H549.7a5.337,5.337,0,0,1-3.21-1.075Z" transform="translate(-340.544 -181.002)" opacity="0.1"/>
    <path id="Path_1833" data-name="Path 1833" d="M674.14,288.556s1.385,3.992,2.654,2.929l-1.011-5.218Z" transform="translate(-413.817 -231.576)" fill="#fbbebe"/>
    <path id="Path_1834" data-name="Path 1834" d="M1062.049,554.26a8.866,8.866,0,1,0,1.181-17l.222,4.563-2.159-3.911a8.833,8.833,0,0,0-4.551,4.994,8.7,8.7,0,0,0-.51,2.4A8.865,8.865,0,0,0,1062.049,554.26Z" transform="translate(-633.125 -375.531)" fill="#23e8b5"/>
    <path id="Path_1835" data-name="Path 1835" d="M1092.745,596.919c-.762-3.881,2.54-7.322,5.8-9.558s7.074-4.434,8.187-8.229c1.6-5.454-3.165-10.45-6.874-14.757a53.376,53.376,0,0,1-7.039-10.461,14.4,14.4,0,0,1-1.684-4.757c-.292-2.418.484-4.824,1.267-7.13q3.91-11.524,8.362-22.855" transform="translate(-653.138 -365.264)" fill="none" stroke="#3f3d56" stroke-miterlimit="10" stroke-width="1"/>
    <path id="Path_1836" data-name="Path 1836" d="M1062.906,551.5a8.866,8.866,0,1,0,1.181-17l.222,4.563-2.159-3.911a8.832,8.832,0,0,0-4.551,4.994,8.691,8.691,0,0,0-.51,2.4A8.864,8.864,0,0,0,1062.906,551.5Z" transform="translate(-633.617 -373.948)" fill="none" stroke="#3f3d56" stroke-miterlimit="10" stroke-width="1"/>
    <path id="Path_1837" data-name="Path 1837" d="M1091.734,507.6a8.856,8.856,0,0,1,6.381-5.622l.73,4.338,1.354-4.556a8.865,8.865,0,1,1-8.465,5.84Z" transform="translate(-653.211 -355.271)" fill="#23e8b5"/>
    <path id="Path_1838" data-name="Path 1838" d="M1092.877,503.926a8.856,8.856,0,0,1,6.381-5.622l.73,4.338,1.353-4.556a8.865,8.865,0,1,1-8.465,5.84Z" transform="translate(-653.867 -353.16)" fill="none" stroke="#3f3d56" stroke-miterlimit="10" stroke-width="1"/>
    <path id="Path_1839" data-name="Path 1839" d="M1100.17,602.31a8.865,8.865,0,0,0,7.846-15.772l-1.04,3.5-.737-4.389-.023-.009a8.866,8.866,0,0,0-6.047,16.668Z" transform="translate(-655.003 -403.111)" fill="#23e8b5"/>
    <path id="Path_1840" data-name="Path 1840" d="M1101.16,598.586a8.865,8.865,0,0,0,7.846-15.772l-1.04,3.5-.737-4.389-.023-.009a8.866,8.866,0,0,0-6.047,16.668Z" transform="translate(-655.572 -400.973)" fill="none" stroke="#3f3d56" stroke-miterlimit="10" stroke-width="1"/>
    <path id="Path_1841" data-name="Path 1841" d="M1086.194,646.044a8.861,8.861,0,1,0,1.708-6.943l3.95,5.945-5.4-3.156a8.783,8.783,0,0,0-.261,4.153Z" transform="translate(-650.258 -432.121)" fill="#23e8b5"/>
    <path id="Path_1842" data-name="Path 1842" d="M1087.052,643.286a8.861,8.861,0,1,0,1.708-6.943l3.95,5.945-5.4-3.156A8.783,8.783,0,0,0,1087.052,643.286Z" transform="translate(-650.75 -430.538)" fill="none" stroke="#3f3d56" stroke-miterlimit="10" stroke-width="1"/>
    <path id="Path_1843" data-name="Path 1843" d="M66.891,612.907a5.825,5.825,0,1,0,.776-11.172l.146,3-1.419-2.57a5.8,5.8,0,0,0-2.99,3.281,5.713,5.713,0,0,0-.335,1.576,5.824,5.824,0,0,0,3.822,5.886Z" transform="translate(-63.054 -412.581)" fill="#23e8b5"/>
    <path id="Path_1844" data-name="Path 1844" d="M87.059,640.935c-.5-2.55,1.669-4.81,3.812-6.28s4.648-2.913,5.379-5.407c1.051-3.584-2.08-6.866-4.516-9.7a35.069,35.069,0,0,1-4.625-6.873A9.461,9.461,0,0,1,86,609.555a10.787,10.787,0,0,1,.832-4.684q2.569-7.572,5.494-15.016" transform="translate(-76.203 -405.835)" fill="none" stroke="#3f3d56" stroke-miterlimit="10" stroke-width="1"/>
    <path id="Path_1845" data-name="Path 1845" d="M67.455,611.1a5.825,5.825,0,1,0,.776-11.172l.146,3-1.419-2.57a5.8,5.8,0,0,0-2.99,3.281,5.713,5.713,0,0,0-.335,1.576,5.824,5.824,0,0,0,3.822,5.886Z" transform="translate(-63.377 -411.541)" fill="none" stroke="#3f3d56" stroke-miterlimit="10" stroke-width="1"/>
    <path id="Path_1846" data-name="Path 1846" d="M86.4,582.253a5.818,5.818,0,0,1,4.193-3.694l.48,2.85.889-2.994a5.825,5.825,0,1,1-5.562,3.837Z" transform="translate(-76.251 -399.27)" fill="#23e8b5"/>
    <path id="Path_1847" data-name="Path 1847" d="M87.146,579.837a5.818,5.818,0,0,1,4.193-3.694l.48,2.85L92.708,576a5.825,5.825,0,1,1-5.562,3.837Z" transform="translate(-76.682 -397.883)" fill="none" stroke="#3f3d56" stroke-miterlimit="10" stroke-width="1"/>
    <path id="Path_1848" data-name="Path 1848" d="M91.937,644.477a5.824,5.824,0,0,0,5.155-10.362l-.683,2.3-.485-2.884-.015-.006a5.825,5.825,0,1,0-3.973,10.951Z" transform="translate(-77.429 -430.702)" fill="#23e8b5"/>
    <path id="Path_1849" data-name="Path 1849" d="M92.588,642.03a5.825,5.825,0,0,0,5.155-10.362l-.683,2.3-.485-2.884-.015-.006a5.825,5.825,0,1,0-3.973,10.951Z" transform="translate(-77.802 -429.297)" fill="none" stroke="#3f3d56" stroke-miterlimit="10" stroke-width="1"/>
    <path id="Path_1850" data-name="Path 1850" d="M82.755,673.211a5.822,5.822,0,1,0,1.123-4.561l2.6,3.906-3.546-2.073A5.77,5.77,0,0,0,82.755,673.211Z" transform="translate(-74.311 -449.762)" fill="#23e8b5"/>
    <path id="Path_1851" data-name="Path 1851" d="M83.319,671.4a5.822,5.822,0,1,0,1.123-4.561l2.6,3.906-3.546-2.073a5.77,5.77,0,0,0-.172,2.729Z" transform="translate(-74.634 -448.721)" fill="none" stroke="#3f3d56" stroke-miterlimit="10" stroke-width="1"/>
    <ellipse id="Ellipse_496" data-name="Ellipse 496" cx="7.242" cy="9.372" rx="7.242" ry="9.372" transform="translate(197.641 126.571)" fill="#444f5f"/>
    <ellipse id="Ellipse_497" data-name="Ellipse 497" cx="7.242" cy="9.372" rx="7.242" ry="9.372" transform="translate(237.046 126.784)" fill="#444f5f"/>
    <path id="Path_1852" data-name="Path 1852" d="M587.912,532.168c0,4.234-5.913,7.668-13.206,7.668S561.5,536.4,561.5,532.168c0-3.668,4.435-6.735,10.36-7.485a21.339,21.339,0,0,1,2.846-.183,21.6,21.6,0,0,1,4.741.511C584.4,526.114,587.912,528.9,587.912,532.168Z" transform="translate(-349.162 -368.322)" fill="#444f5f"/>
    <ellipse id="Ellipse_498" data-name="Ellipse 498" cx="7.242" cy="9.372" rx="7.242" ry="9.372" transform="translate(199.345 124.441)" fill="none" stroke="#3f3d56" stroke-miterlimit="10" stroke-width="1"/>
    <ellipse id="Ellipse_499" data-name="Ellipse 499" cx="7.242" cy="9.372" rx="7.242" ry="9.372" transform="translate(238.75 124.654)" fill="none" stroke="#3f3d56" stroke-miterlimit="10" stroke-width="1"/>
    <ellipse id="Ellipse_500" data-name="Ellipse 500" cx="13.206" cy="7.668" rx="13.206" ry="7.668" transform="translate(214.042 154.048)" fill="none" stroke="#3f3d56" stroke-miterlimit="10" stroke-width="1"/>
    <path id="Path_1853" data-name="Path 1853" d="M593.093,525.363a2.1,2.1,0,0,1-.562,1.445,1.848,1.848,0,0,1-1.355.6h-4.26A1.987,1.987,0,0,1,585,525.363a2.089,2.089,0,0,1,.349-1.168,20.021,20.021,0,0,1,2.846-.2,20.3,20.3,0,0,1,4.741.545,2.159,2.159,0,0,1,.158.818Z" transform="translate(-362.65 -368.035)" fill="#fff"/>
    <circle id="Ellipse_501" data-name="Ellipse 501" cx="2.13" cy="2.13" r="2.13" transform="translate(204.457 129.127)" fill="#fff"/>
    <circle id="Ellipse_502" data-name="Ellipse 502" cx="2.13" cy="2.13" r="2.13" transform="translate(244.075 129.127)" fill="#fff"/>
    <circle id="Ellipse_503" data-name="Ellipse 503" cx="2.13" cy="2.13" r="2.13" transform="translate(246.205 149.149)" fill="#4877f4" opacity="0.3"/>
    <circle id="Ellipse_504" data-name="Ellipse 504" cx="2.13" cy="2.13" r="2.13" transform="translate(194.233 149.149)" fill="#4877f4" opacity="0.3"/>
  </g>
</svg>
