<svg xmlns="http://www.w3.org/2000/svg" xmlns:xlink="http://www.w3.org/1999/xlink" width="357.872" height="325.98" viewBox="0 0 357.872 325.98">
  <defs>
    <clipPath id="clip-path">
      <circle id="Ellipse_510" data-name="Ellipse 510" cx="161" cy="161" r="161" transform="translate(687 205)" fill="#fff" stroke="#707070" stroke-width="1"/>
    </clipPath>
  </defs>
  <g id="Group_1925" data-name="Group 1925" transform="translate(-685 -201.02)">
    <path id="Path_1854" data-name="Path 1854" d="M717.508,569.8c-.006.777-.025,1.548-.056,2.324A165.421,165.421,0,0,1,677.5,610.071q-2.657,1.8-5.382,3.468a160.62,160.62,0,0,1-43.835,18.714q-1.221.317-2.443.615c-.584.143-1.175.286-1.765.41l-1.069-.093c-.018-.006-.043-.006-.062-.012-.143-.012-.286-.025-.422-.031-.609-.056-1.218-.118-1.827-.174l.143.273.361.684h-.006c-.131-.224-.261-.454-.385-.684-.05-.081-.106-.168-.149-.255s-.087-.155-.131-.23c-5.544-9.646-11.007-19.646-12.405-30.653-1.46-11.523,2.641-24.562,12.778-30.224a20.82,20.82,0,0,1,4.2-1.759c.609-.18,1.224-.329,1.846-.466a21.925,21.925,0,0,1,25.494,28.5c8.6-8.813,6.992-23.108,4.027-35.053s-6.563-25.246-.522-35.973c3.356-5.979,9.26-9.683,15.892-11.175.2-.043.4-.087.609-.124a31.993,31.993,0,0,1,22.99,4.027c12.672,7.986,19.18,23.126,21.293,37.956a79.3,79.3,0,0,1,.783,11.983Z" transform="translate(260.971 -110.82)" fill="#f2f2f2"/>
    <path id="Path_1855" data-name="Path 1855" d="M639.343,610.427a49.366,49.366,0,0,1,4.257,30.69,50.516,50.516,0,0,1-11.734,24.009c-.342.392-.69.771-1.044,1.144.572-.037,1.15-.087,1.722-.137.367-.031.74-.062,1.106-.1-.584.143-1.175.286-1.765.41l-1.069-.093c-.018-.006-.043-.006-.062-.012-.143-.012-.286-.025-.422-.031-.609-.056-1.218-.118-1.827-.174l.143.273.361.684H629c-.131-.224-.261-.454-.385-.684-.05-.081-.106-.168-.149-.255.112-.106.217-.218.323-.329a47.7,47.7,0,0,0,4.114-62.536c.609-.18,1.224-.329,1.846-.466A51.023,51.023,0,0,1,639.343,610.427Z" transform="translate(253.162 -143.985)" fill="#fff"/>
    <path id="Path_1856" data-name="Path 1856" d="M726.146,584.534a54.315,54.315,0,0,1-3.754,15.333,45.064,45.064,0,0,1-3.941,7.39c-.708,1.094-1.473,2.163-2.274,3.195q-2.657,1.8-5.382,3.468a46.517,46.517,0,0,0,3.313-3.7c.578-.7,1.125-1.411,1.653-2.138,5.911-8.148,8.515-17.955,8.962-27.918a117.859,117.859,0,0,0-3.35-31.9A133.677,133.677,0,0,0,710.124,517.6a.959.959,0,0,1,.385-1.268.825.825,0,0,1,.609-.124.685.685,0,0,1,.466.4c.615,1.2,1.224,2.4,1.8,3.617a135.268,135.268,0,0,1,10.6,31.8C726.128,562.638,727.271,573.732,726.146,584.534Z" transform="translate(222.294 -111.2)" fill="#fff"/>
    <path id="Path_1857" data-name="Path 1857" d="M450.5,643.458c.224-.392.448-.783.665-1.175,4.145-7.284,8.042-14.842,9.093-23.108,1.175-9.273-2.126-19.77-10.286-24.326a16.432,16.432,0,0,0-3.381-1.417c-.485-.143-.982-.267-1.485-.379A17.653,17.653,0,0,0,424.581,616c-6.917-7.091-5.625-18.6-3.238-28.217s5.283-20.323.416-28.956a19.059,19.059,0,0,0-12.791-9c-.162-.031-.329-.068-.491-.1a25.771,25.771,0,0,0-18.509,3.244c-10.2,6.426-15.438,18.614-17.141,30.553-.267,1.883-.454,3.791-.547,5.705-.037.671-.062,1.336-.075,2.007q4.913,5.939,10.429,11.454a166.039,166.039,0,0,0,16.949,14.8c.82.621,1.641,1.231,2.474,1.833a161.094,161.094,0,0,0,44.513,22.89c.876.286,1.765.572,2.648.845Z" transform="translate(350.154 -123.697)" fill="#f2f2f2"/>
    <path id="Path_1858" data-name="Path 1858" d="M488.876,669.757c-.883-.273-1.771-.559-2.648-.845-.51-.615-.994-1.243-1.461-1.889a40.714,40.714,0,0,1-7.129-16.439,39.748,39.748,0,0,1,3.424-24.7,41.389,41.389,0,0,1,3.7-6.128c.5.112,1,.236,1.486.379a38.4,38.4,0,0,0,.945,47.713C487.733,668.5,488.292,669.135,488.876,669.757Z" transform="translate(310.495 -150.393)" fill="#fff"/>
    <path id="Path_1859" data-name="Path 1859" d="M414.73,575.833a94.78,94.78,0,0,0-2.7,25.681,45.018,45.018,0,0,0,3.331,15.569c.367.864.764,1.709,1.2,2.548-.833-.6-1.653-1.212-2.474-1.833-.062-.143-.124-.28-.18-.423q-.41-.988-.764-2a44.553,44.553,0,0,1-2.262-10.342,87.776,87.776,0,0,1,1.74-26.172,108.709,108.709,0,0,1,8.533-25.594c.466-.982.957-1.945,1.455-2.909a.55.55,0,0,1,.373-.329.7.7,0,0,1,.491.1.779.779,0,0,1,.311,1.026,107.346,107.346,0,0,0-9.055,24.674Z" transform="translate(335.648 -124.003)" fill="#fff"/>
    <path id="Path_1860" data-name="Path 1860" d="M481.985,543.98a4.354,4.354,0,0,1-4.369-.8L470.7,537.15a4.355,4.355,0,0,1-.419-6.138l50.252-57.619a4.355,4.355,0,0,1,6.138-.419L533.587,479a4.355,4.355,0,0,1,.419,6.138l-50.252,57.62A4.324,4.324,0,0,1,481.985,543.98Z" transform="translate(313.438 -94.435)" fill="#4877f4"/>
    <path id="Path_1861" data-name="Path 1861" d="M595.675,454.257a4.371,4.371,0,0,1-1.332-.209A4.32,4.32,0,0,1,591.8,451.9l-4.2-8.153a4.355,4.355,0,0,1,1.873-5.86l67.954-35.036a4.355,4.355,0,0,1,5.861,1.873l4.2,8.153a4.355,4.355,0,0,1-1.873,5.86L597.66,453.773A4.324,4.324,0,0,1,595.675,454.257Z" transform="translate(268.814 -68.116)" fill="#4877f4"/>
    <path id="Path_1862" data-name="Path 1862" d="M593.756,466.346a4.363,4.363,0,0,1-3.9-2.4l-4.115-8.2a4.342,4.342,0,0,1-.337-2.99c.027-.111.059-.222.1-.332h0c.083-.25.174-.641.278-1.093.333-1.442.748-3.237,1.594-3.661l29.859-18.1a4.348,4.348,0,0,1,5.849,1.9l.013.025,7.532,15.525a4.355,4.355,0,0,1-1.938,5.836l-33.015,13.034A4.26,4.26,0,0,1,593.756,466.346Z" transform="translate(269.507 -78.233)" fill="#444f5f"/>
    <circle id="Ellipse_505" data-name="Ellipse 505" cx="33.263" cy="33.263" r="33.263" transform="translate(817.606 281.352)" fill="#4877f4"/>
    <path id="Path_1863" data-name="Path 1863" d="M560.306,658h-9.173a4.355,4.355,0,0,1-4.351-4.351v-77.7a4.356,4.356,0,0,1,4.351-4.351h9.173a4.355,4.355,0,0,1,4.351,4.351v77.7A4.356,4.356,0,0,1,560.306,658Z" transform="translate(284.079 -132.171)" fill="#4877f4"/>
    <path id="Path_1864" data-name="Path 1864" d="M602.4,606.014a4.348,4.348,0,0,1-3.545-1.818L554.389,542a4.355,4.355,0,0,1,1.009-6.069l7.462-5.335a4.355,4.355,0,0,1,6.069,1.008L613.4,593.8a4.355,4.355,0,0,1-1.009,6.069l-7.462,5.336a4.328,4.328,0,0,1-2.524.81Z" transform="translate(281.506 -116.344)" fill="#4877f4"/>
    <path id="Path_1865" data-name="Path 1865" d="M604.825,676.507a5.989,5.989,0,0,1-2.627-.657l-8.212-4.088c-2.147-1.069-3.331-3.072-2.638-4.463l21.164-42.511c.693-1.392,3-1.655,5.151-.586l8.212,4.088a5.791,5.791,0,0,1,2.354,2.046,2.459,2.459,0,0,1,.284,2.417l-21.164,42.511A2.666,2.666,0,0,1,604.825,676.507Z" transform="translate(267.286 -151.829)" fill="#4877f4"/>
    <path id="Path_1866" data-name="Path 1866" d="M537.774,501.436a4.364,4.364,0,0,1-4.556-.986L520.773,488.51a4.35,4.35,0,0,1-.05-6.152l0,0,26.45-22.868c.646-.658,2.481-.5,3.956-.373.463.04.862.074,1.126.072.116,0,.231,0,.345.011h0a4.343,4.343,0,0,1,2.741,1.242l6.532,6.44a4.356,4.356,0,0,1,.044,6.153l-22.532,27.355A4.387,4.387,0,0,1,537.774,501.436Z" transform="translate(294.415 -89.551)" fill="#444f5f"/>
    <path id="Path_1867" data-name="Path 1867" d="M571.829,377.722l-.035-1.243c2.312-.064,4.351-.209,5.883-1.329a3.821,3.821,0,0,0,1.48-2.814,2.184,2.184,0,0,0-.716-1.8c-1.017-.859-2.653-.581-3.846-.034l-1.028.472,1.972-14.413,1.232.169-1.678,12.26a4.388,4.388,0,0,1,4.151.6,3.4,3.4,0,0,1,1.156,2.792,5.054,5.054,0,0,1-1.989,3.775C576.442,377.593,573.884,377.664,571.829,377.722Z" transform="translate(274.612 -50.779)" fill="#2f2e41"/>
    <rect id="Rectangle_879" data-name="Rectangle 879" width="6.695" height="1.243" transform="translate(857.473 307.009)" fill="#2f2e41"/>
    <rect id="Rectangle_880" data-name="Rectangle 880" width="6.695" height="1.243" transform="translate(836.341 307.009)" fill="#2f2e41"/>
    <path id="Path_1868" data-name="Path 1868" d="M597.275,534.147H493.806a4.031,4.031,0,0,1-3.5-6.06l51.735-89.607a4,4,0,0,1,3.5-2.02h0a4,4,0,0,1,3.5,2.02l51.735,89.607a4.04,4.04,0,0,1-3.5,6.06Z" transform="translate(305.661 -81.02)" fill="#444f5f"/>
    <path id="Path_1869" data-name="Path 1869" d="M509.382,300.846c-3.688-14.785-17.986-26.138-33.306-25.855a35.284,35.284,0,0,0-20.857,7.563,33.712,33.712,0,0,0-7.648,8.368A42.6,42.6,0,0,0,442.68,302.7c-2.287,8.3-3.365,17.683-9.169,24.458a25.491,25.491,0,0,1-19.288,8.677,23.815,23.815,0,0,1-18.829-9.723c-4.369-5.825-6.52-13.88-4-20.91,1.239-3.45,3.9-6.708,7.711-7.283a8.988,8.988,0,0,1,8.9,4.26,8.848,8.848,0,0,1-.981,9.667,8.709,8.709,0,0,1-13.332-.368c-.745-.941-2.065.378-1.328,1.309a10.778,10.778,0,0,0,9.844,3.761,10.062,10.062,0,0,0,8.018-6.7,10.217,10.217,0,0,0-1.864-10.326,10.932,10.932,0,0,0-10.155-3.327c-3.933.833-6.789,4.067-8.271,7.652a21.355,21.355,0,0,0-1.112,11.715,27.448,27.448,0,0,0,12.564,18.509,25.875,25.875,0,0,0,22.181,2.016,27.183,27.183,0,0,0,9.738-6,29.145,29.145,0,0,0,6.708-10.706c3.28-8.587,3.76-18.2,8.4-26.267A33.057,33.057,0,0,1,466.4,278.577a30.911,30.911,0,0,1,22.941,1.1A33.754,33.754,0,0,1,505.681,295.9a30.212,30.212,0,0,1,1.9,5.425.933.933,0,0,0,1.8-.483Z" transform="translate(344 -19.903)" fill="#444f5f"/>
    <path id="Path_1870" data-name="Path 1870" d="M580.46,444.823H566.786a4.044,4.044,0,0,1-4.04-4.04V439.54a4.044,4.044,0,0,1,4.04-4.04H580.46a4.044,4.044,0,0,1,4.04,4.04v1.243a4.044,4.044,0,0,1-4.04,4.04Z" transform="translate(278.036 -80.656)" fill="#444f5f"/>
    <circle id="Ellipse_506" data-name="Ellipse 506" cx="3.729" cy="3.729" r="3.729" transform="translate(782.672 453.353)" fill="#e6e6e6"/>
    <circle id="Ellipse_507" data-name="Ellipse 507" cx="3.729" cy="3.729" r="3.729" transform="translate(962.91 393.688)" fill="#f2f2f2"/>
    <circle id="Ellipse_508" data-name="Ellipse 508" cx="3.729" cy="3.729" r="3.729" transform="translate(729.222 409.847)" fill="#f2f2f2"/>
    <path id="Path_1871" data-name="Path 1871" d="M637.86,350.836a161.393,161.393,0,0,1-32.343,97.447,165.42,165.42,0,0,1-39.951,37.949q-2.657,1.8-5.382,3.468a160.621,160.621,0,0,1-43.835,18.714q-1.221.317-2.443.615c-.584.143-1.175.286-1.765.41-.957.23-1.914.441-2.878.646h-.006a163.973,163.973,0,0,1-34.233,3.586q-2.237,0-4.469-.062-4.82-.121-9.59-.534a162.6,162.6,0,0,1-33.22-6.333c-.429-.131-.852-.261-1.28-.4-.883-.273-1.771-.559-2.648-.845a161.1,161.1,0,0,1-44.512-22.89c-.833-.6-1.653-1.212-2.474-1.833a166.042,166.042,0,0,1-16.948-14.8q-5.52-5.519-10.429-11.454a161.239,161.239,0,0,1-28.067-49.485A162.926,162.926,0,0,1,475.025,188c24.581,0,50.038,6.252,73.618,18.092l-.56,1.106c-23.406-11.747-48.67-17.955-73.058-17.955-89.1,0-161.593,72.493-161.593,161.593a160.816,160.816,0,0,0,36.1,101.679,162.75,162.75,0,0,0,26.358,25.842q1.1.858,2.219,1.7a161.23,161.23,0,0,0,44.251,23.549q1.2.42,2.424.82c1.2.392,2.411.777,3.63,1.137a160.128,160.128,0,0,0,33.375,6.321q4.773.392,9.615.5c1.206.031,2.411.043,3.623.043a161.108,161.108,0,0,0,33.568-3.512c.149-.031.3-.062.454-.1q1.547-.326,3.076-.7c1.193-.273,2.374-.572,3.555-.876A160.708,160.708,0,0,0,563.5,486q2.2-1.436,4.344-2.958a161.545,161.545,0,0,0,52.928-202.078l1.125-.535a161.389,161.389,0,0,1,15.966,70.411Z" transform="translate(372.906 13.02)" fill="#e6e6e6"/>
    <path id="Path_1872" data-name="Path 1872" d="M777.824,290.683c-15.669,0-29.952-3.8-42.454-11.306-13.222-7.931-40.489-3.34-42.534.706l-2.507,6.038,7.066-69.913.266-.248c.582-.557,14.743-13.5,51.847,4.7,28.162,13.811,51.183,7.3,59.773,3.863a2.8,2.8,0,0,1,3.837,2.783l-3.884,56.334a2.774,2.774,0,0,1-1.93,2.468A99.612,99.612,0,0,1,777.824,290.683Z" transform="translate(229.748 4.321)" fill="#f14667"/>
    <path id="Path_1873" data-name="Path 1873" d="M694.562,215.7A4.3,4.3,0,0,0,690.267,220V364.682a4.295,4.295,0,1,0,8.589,0V220A4.3,4.3,0,0,0,694.562,215.7Z" transform="translate(229.771 2.534)" fill="#444f5f"/>
    <g id="Mask_Group_5" data-name="Mask Group 5" clip-path="url(#clip-path)">
      <g id="construction-sign" transform="translate(875.436 395.573)">
        <path id="Path_1874" data-name="Path 1874" d="M52.1,118.875V4.851A2.851,2.851,0,0,0,49.253,2h-11.4A2.851,2.851,0,0,0,35,4.851V118.875Z" transform="translate(62.921 0)" fill="#d8d8d8"/>
        <path id="Path_1875" data-name="Path 1875" d="M24.1,127.427V5.059A2.96,2.96,0,0,0,21.253,2H9.851A2.96,2.96,0,0,0,7,5.059V127.427Z" transform="translate(11.104 0)" fill="#d8d8d8"/>
        <rect id="Rectangle_882" data-name="Rectangle 882" width="39" height="9" transform="translate(87 118.427)" fill="#b3b3b3"/>
        <rect id="Rectangle_883" data-name="Rectangle 883" width="17" height="6" transform="translate(18 70.427)" fill="#b3b3b3"/>
        <rect id="Rectangle_884" data-name="Rectangle 884" width="17" height="6" transform="translate(98 70.427)" fill="#b3b3b3"/>
        <path id="Path_1876" data-name="Path 1876" d="M129.278,6H3.851A2.851,2.851,0,0,0,1,8.851V60.162a2.851,2.851,0,0,0,2.851,2.851H129.278a2.851,2.851,0,0,0,2.851-2.851V8.851A2.851,2.851,0,0,0,129.278,6Z" transform="translate(0 7.402)" fill="#d8d8d8"/>
        <rect id="Rectangle_885" data-name="Rectangle 885" width="119" height="45" transform="translate(7 19.427)" fill="#fff"/>
        <path id="Path_1877" data-name="Path 1877" d="M122.726,33.692,97.07,8.036h25.656ZM51.46,8.036h22.8l45.61,45.61H97.07Zm22.8,45.61H51.46L5.851,8.036h22.8ZM3,27.99,28.656,53.646H3Z" transform="translate(3.701 11.17)" fill="#f14667"/>
        <path id="Path_1878" data-name="Path 1878" d="M24.167,13.4H6.966V4.851A2.851,2.851,0,0,1,9.817,2h11.5a2.851,2.851,0,0,1,2.851,2.851Z" transform="translate(11.041 0)" fill="#ffdd57"/>
        <path id="Path_1879" data-name="Path 1879" d="M52.167,13.4h-17.2V4.851A2.851,2.851,0,0,1,37.817,2h11.5a2.851,2.851,0,0,1,2.851,2.851Z" transform="translate(62.858 0)" fill="#ffdd57"/>
      </g>
    </g>
  </g>
</svg>
