<svg xmlns="http://www.w3.org/2000/svg" width="18.775" height="18.521" viewBox="0 0 18.775 18.521">
  <g id="currency-exchange-2" transform="translate(-0.122 -0.25)">
    <path id="Path_959" data-name="Path 959" d="M26.479,26.8l-2.979.426.426-2.979Z" transform="translate(-9.735 -10.059)" fill="#4a4a4a"/>
    <path id="Path_960" data-name="Path 960" d="M5.8,5.479,6.229,2.5,3.25,2.926Z" transform="translate(-0.974 -0.649)" fill="#4a4a4a"/>
    <path id="Path_961" data-name="Path 961" d="M26.479,26.8l-2.979.426.426-2.979Z" transform="translate(-9.735 -10.059)" fill="none" stroke="#4a4a4a" stroke-linecap="round" stroke-linejoin="round" stroke-miterlimit="10" stroke-width="1.5"/>
    <path id="Path_962" data-name="Path 962" d="M5.8,5.479,6.229,2.5,3.25,2.926Z" transform="translate(-0.974 -0.649)" fill="none" stroke="#4a4a4a" stroke-linecap="round" stroke-linejoin="round" stroke-miterlimit="10" stroke-width="1.5"/>
    <path id="Path_963" data-name="Path 963" d="M22.018,15.528A8.51,8.51,0,0,0,16,1" transform="translate(-6.49 0)" fill="none" stroke="#4a4a4a" stroke-linecap="round" stroke-linejoin="round" stroke-miterlimit="10" stroke-width="1.5"/>
    <path id="Path_964" data-name="Path 964" d="M3.492,5.393A8.51,8.51,0,0,0,9.51,19.921" transform="translate(0 -1.901)" fill="none" stroke="#4a4a4a" stroke-linecap="round" stroke-linejoin="round" stroke-miterlimit="10" stroke-width="1.5"/>
    <line id="Line_35" data-name="Line 35" y2="10.999" transform="translate(9.466 3.722)" fill="none" stroke="#4a4a4a" stroke-linecap="round" stroke-linejoin="round" stroke-miterlimit="10" stroke-width="1.2"/>
    <path id="Path_965" data-name="Path 965" d="M16.465,9.57c-1.29-.67-5.432-1.176-5.432,1.13,0,2.76,5.158,1.786,5.158,4.222s-3.353,2.253-5.674,1.462" transform="translate(-4.118 -3.464)" fill="none" stroke="#4a4a4a" stroke-linecap="round" stroke-linejoin="round" stroke-miterlimit="10" stroke-width="1.2"/>
  </g>
</svg>
