<svg xmlns="http://www.w3.org/2000/svg" width="14.029" height="14.03" viewBox="0 0 14.029 14.03">
  <g id="phone" transform="translate(-1.24 -1.227)">
    <path id="Path_955" data-name="Path 955" d="M10.344,9.719,9.325,10.992a10.747,10.747,0,0,1-3.82-3.82L6.779,6.154a.865.865,0,0,0,.25-1.027L5.868,2.514A.866.866,0,0,0,4.86,2.027L2.65,2.6a.87.87,0,0,0-.642.961A12.838,12.838,0,0,0,12.936,14.49a.87.87,0,0,0,.961-.642l.573-2.21a.866.866,0,0,0-.486-1.008L11.37,9.47a.866.866,0,0,0-1.027.249Z" transform="translate(0 0)" fill="none" stroke="#4a4a4a" stroke-linecap="round" stroke-linejoin="round" stroke-miterlimit="10" stroke-width="1.5"/>
  </g>
</svg>
