<svg xmlns="http://www.w3.org/2000/svg" width="21.69" height="21.672" viewBox="0 0 21.69 21.672">
  <g id="icon-6-thumb-up" transform="translate(0.5 0.5)">
    <g id="Page-1">
      <g id="icon-6-thumb-up-2" data-name="icon-6-thumb-up">
        <path id="thumb-up" d="M14.735,22.672h3.14a1.844,1.844,0,0,0,1.474-2.953,1.844,1.844,0,0,0,1.384-3.069A1.846,1.846,0,0,0,21.47,13.7a1.846,1.846,0,0,0-.65-3.575H16.4C17.172,6.417,16.8,2,13.812,2s-1.428,3.535-2.584,5.731a4.49,4.49,0,0,1-3.322,2.39H3.473A1.473,1.473,0,0,0,2,11.592v8.133A1.469,1.469,0,0,0,3.475,21.2H7.906l4.43,1.477ZM8.275,10.859a5.828,5.828,0,0,0,3.6-2.731c1.156-2.2-.178-5.39,1.941-5.39,2.326,0,2.584,4.061,1.7,8.121h5.321a1.107,1.107,0,0,1,0,2.215H18.242v.738h1.851a1.107,1.107,0,0,1,0,2.215H17.5v.738h1.851a1.107,1.107,0,0,1,0,2.215H16.766v.738h1.106a1.107,1.107,0,1,1,0,2.215H12.336l-4.43-1.477H3.479a.734.734,0,0,1-.74-.738V11.6a.738.738,0,0,1,.738-.738Z" transform="translate(-2 -2)" fill="#4877f4" stroke="#999" stroke-linecap="round" stroke-linejoin="round" stroke-width="1" fill-rule="evenodd"/>
      </g>
    </g>
  </g>
</svg>
