<svg xmlns="http://www.w3.org/2000/svg" width="37.1" height="46" viewBox="0 0 37.1 46">
  <g id="money-bag" transform="translate(-7.25 -1.25)">
    <line id="Line_129" data-name="Line 129" y2="20" transform="translate(25.5 20.5)" fill="none" stroke="#4877f4" stroke-linecap="round" stroke-linejoin="round" stroke-miterlimit="10" stroke-width="1.5"/>
    <path id="Path_1493" data-name="Path 1493" d="M34.577,31.063c-2.16-1.187-8.963-2.077-8.963,2.017,0,4.9,8.639,3.168,8.639,7.487s-5.615,4-9.5,2.591" transform="translate(-4.327 -7.251)" fill="none" stroke="#4877f4" stroke-linecap="round" stroke-linejoin="round" stroke-miterlimit="10" stroke-width="1.5"/>
    <path id="Path_1494" data-name="Path 1494" d="M31.035,18H20.565S8,31.257,8,39.416c0,6.119,4.45,11.218,17.8,11.218s17.8-5.1,17.8-11.218C43.6,31.257,31.035,18,31.035,18Z" transform="translate(0 -4.133)" fill="none" stroke="#4877f4" stroke-linecap="round" stroke-linejoin="round" stroke-miterlimit="10" stroke-width="1.5"/>
    <path id="Path_1495" data-name="Path 1495" d="M38.742,14.9,42.45,7.483,38,6" transform="translate(-7.75 -1.033)" fill="none" stroke="#4877f4" stroke-linecap="round" stroke-linejoin="round" stroke-miterlimit="10" stroke-width="1.5"/>
    <path id="Path_1496" data-name="Path 1496" d="M24.45,6,20,7.483,23.708,14.9" transform="translate(-3.1 -1.033)" fill="none" stroke="#4877f4" stroke-linecap="round" stroke-linejoin="round" stroke-miterlimit="10" stroke-width="1.5"/>
    <path id="Path_1497" data-name="Path 1497" d="M26.967,7.933,24,2H35.867L32.9,7.933" transform="translate(-4.133)" fill="none" stroke="#4877f4" stroke-linecap="round" stroke-linejoin="round" stroke-miterlimit="10" stroke-width="1.5"/>
  </g>
</svg>
