<svg xmlns="http://www.w3.org/2000/svg" width="44.728" height="41.845" viewBox="0 0 44.728 41.845">
  <g id="Group_1858" data-name="Group 1858" transform="translate(-653.25 -1228.388)">
    <g id="b-comment" transform="translate(654 1229.138)">
      <path id="Path_1487" data-name="Path 1487" d="M27,45.9A17.912,17.912,0,0,0,37.087,48.85a19.379,19.379,0,0,0,4.937-.64l5.87,3.522V45.382a10.294,10.294,0,0,0,4.323-8.06A9.138,9.138,0,0,0,51.113,33" transform="translate(-8.989 -11.386)" fill="none" stroke="#4877f4" stroke-linecap="round" stroke-linejoin="round" stroke-miterlimit="10" stroke-width="1.5"/>
      <path id="Path_1488" data-name="Path 1488" d="M21.452,3C10.709,3,2,9.774,2,18.13a13.178,13.178,0,0,0,4.323,9.5v9.952l9.817-4.908a24.624,24.624,0,0,0,5.313.586C32.2,33.259,40.9,26.485,40.9,18.13S32.2,3,21.452,3Z" transform="translate(-2 -3)" fill="none" stroke="#4877f4" stroke-linecap="round" stroke-linejoin="round" stroke-miterlimit="10" stroke-width="1.5"/>
    </g>
    <path id="Path_1489" data-name="Path 1489" d="M-8853.2-5632.689h21.209" transform="translate(9515.701 6872.697)" fill="none" stroke="#4877f4" stroke-linecap="round" stroke-width="1.5"/>
    <path id="Path_1491" data-name="Path 1491" d="M-8853.2-5632.689h13.873" transform="translate(9515.701 6880.224)" fill="none" stroke="#4877f4" stroke-linecap="round" stroke-width="1.5"/>
  </g>
</svg>
