<svg xmlns="http://www.w3.org/2000/svg" width="24.795" height="19.278" viewBox="0 0 24.795 19.278">
  <g id="Group_1928" data-name="Group 1928" transform="translate(0.75 0.75)">
    <g id="Group_657" data-name="Group 657" transform="translate(-1371 -108)">
      <path id="Path_769" data-name="Path 769" d="M1389.913,108.23v8.763" fill="none" stroke="#4a4a4a" stroke-linecap="round" stroke-width="1.5"/>
      <path id="Path_770" data-name="Path 770" d="M1389.913,108.23v8.763" transform="translate(1502.525 -1277.301) rotate(90)" fill="none" stroke="#4a4a4a" stroke-linecap="round" stroke-width="1.5"/>
    </g>
    <g id="single-02" transform="translate(-4 -1)">
      <path id="Path_685" data-name="Path 685" d="M12.889,20H9.333A5.333,5.333,0,0,0,4,25.333H4a18.987,18.987,0,0,0,7.111,1.185,18.987,18.987,0,0,0,7.111-1.185h0A5.333,5.333,0,0,0,12.889,20Z" transform="translate(0 -7.74)" fill="none" stroke="#4a4a4a" stroke-linecap="round" stroke-linejoin="round" stroke-miterlimit="10" stroke-width="1.5"/>
      <path id="Path_686" data-name="Path 686" d="M9,5.148a4.148,4.148,0,0,1,8.3,0c0,2.291-1.857,4.741-4.148,4.741S9,7.439,9,5.148Z" transform="translate(-2.037)" fill="none" stroke="#4a4a4a" stroke-linecap="round" stroke-linejoin="round" stroke-miterlimit="10" stroke-width="1.5"/>
    </g>
  </g>
</svg>
