<svg xmlns="http://www.w3.org/2000/svg" xmlns:xlink="http://www.w3.org/1999/xlink" width="60" height="60" viewBox="0 0 60 60">
  <defs>
    <clipPath id="clip-path">
      <circle id="Ellipse_300" data-name="Ellipse 300" cx="30" cy="30" r="30" transform="translate(665 735)" fill="#4877f4" stroke="#707070" stroke-width="1"/>
    </clipPath>
    <linearGradient id="linear-gradient" x1="0.5" y1="1" x2="0.5" gradientUnits="objectBoundingBox">
      <stop offset="0" stop-color="gray" stop-opacity="0.251"/>
      <stop offset="0.54" stop-color="gray" stop-opacity="0.122"/>
      <stop offset="1" stop-color="gray" stop-opacity="0.102"/>
    </linearGradient>
  </defs>
  <g id="Group_1304" data-name="Group 1304" transform="translate(-355 -705)">
    <circle id="Ellipse_306" data-name="Ellipse 306" cx="30" cy="30" r="30" transform="translate(355 705)" fill="#fff"/>
    <g id="Group_1301" data-name="Group 1301" transform="translate(-310 -30)">
      <circle id="Ellipse_305" data-name="Ellipse 305" cx="30" cy="30" r="30" transform="translate(665 735)" fill="#4877f4" opacity="0.1"/>
      <g id="Mask_Group_3" data-name="Mask Group 3" clip-path="url(#clip-path)">
        <g id="undraw_community_8nwl-2" transform="translate(657.508 745.47)">
          <path id="Path_1149" data-name="Path 1149" d="M68.179,31.848a1.721,1.721,0,0,1,.032-1.092c.206-.534.71-.92.887-1.465.329-1.014-.558-1.963-1.1-2.882a4.84,4.84,0,0,1-.648-2.822c.085-1.057.518-2.068.551-3.128a8.37,8.37,0,0,0-.606-2.885,9.987,9.987,0,0,0-.968-2.243,5.134,5.134,0,0,0-3.84-2.25c-.719-.064-1.423.17-2.13.078-.982-.127-1.909-.381-2.91-.413a3.406,3.406,0,0,0-2.649.789c-.495.533-.653,1.3-1.106,1.874-.643.809-1.767,1.086-2.478,1.835a2.6,2.6,0,0,0-.587,2.507c.1.319.259.616.364.933.44,1.326-.138,2.744-.487,4.1a.619.619,0,0,0-.021.344c.055.165.229.252.372.35a1.948,1.948,0,0,1,.757,1.47,5.526,5.526,0,0,1-.215,1.688,7.023,7.023,0,0,1-1.829,3.859,9.929,9.929,0,0,0-.7-1.36A7.388,7.388,0,0,1,47.7,27.448a.047.047,0,0,1,0-.012c0-.069,0-.138.008-.206.086-1.5.736-2.953.721-4.45q0-.182-.01-.364a7.509,7.509,0,0,0-1.405-3.538,8.616,8.616,0,0,0-1.88-2.156A8.754,8.754,0,0,0,41,15.234c-1.467-.205-2.8-.4-4.28-.5-1.59-.107-3.34-.167-4.6.812-1.639,1.276-1.73,3.741-2.979,5.4-.743.987-1.927,1.75-2.319,2.871a6.932,6.932,0,0,1-.264-.843l-.012-.057a8.207,8.207,0,0,0,.319-4.214,5.187,5.187,0,0,0,.047-.688,2.711,2.711,0,0,0-.081-.744A4.276,4.276,0,0,0,25.7,15.558a5.033,5.033,0,0,0-.558-.54,8.171,8.171,0,0,0-13.934,8.122,2.139,2.139,0,0,1-.576,1.257c-.152.151-.349.339-.316.532a.259.259,0,0,0,.022.162.453.453,0,0,0,.138.151,2.478,2.478,0,0,0,1.686.5A7.048,7.048,0,0,0,15,29.387q0,.069,0,.134c0,.076-.006.152-.01.229v.032c0-.007-2.4,3.124-4.612,3.24a4.491,4.491,0,0,0-3,1.772,7.76,7.76,0,0,0-1.568,2.7c-.092.639-.73,3.743-.73,3.743h18.4c-.218,1.118-.511,2.542-.511,2.542H52.761c-.069-.957-.145-1.843-.216-2.592H56.29l0,.023H73.562l1.1-1.644C74.386,34.774,71.56,32.14,68.179,31.848ZM25.168,26.5a4.463,4.463,0,0,0,1.239.446.745.745,0,0,0,.558-.043.641.641,0,0,0,.225-.319l.008.021a12.156,12.156,0,0,1,.978,3.634c.008.118.012.237.013.356a5.147,5.147,0,0,1-.434,2.083,40.148,40.148,0,0,1-4.492-2.753l-.1-.041c0,.008.034.094.074.239.01.035.02.074.03.115q-.148-.477-.266-.974l-.027-.118A7.057,7.057,0,0,0,25.168,26.5Z" transform="translate(-2.403 -8.383)" fill="url(#linear-gradient)"/>
          <path id="Path_1150" data-name="Path 1150" d="M12.853,25.971v0Z" transform="translate(-0.27 -4.574)" fill="#fff"/>
          <path id="Path_1151" data-name="Path 1151" d="M12.85,25.936v0Z" transform="translate(-0.271 -4.584)" fill="#fff"/>
          <path id="Path_1152" data-name="Path 1152" d="M12.847,25.872Z" transform="translate(-0.272 -4.588)" fill="#fff"/>
          <path id="Path_1153" data-name="Path 1153" d="M12.847,25.889Z" transform="translate(-0.271 -4.584)" fill="#fff"/>
          <path id="Path_1154" data-name="Path 1154" d="M12.847,25.881Z" transform="translate(-0.272 -4.586)" fill="#fff"/>
          <path id="Path_1155" data-name="Path 1155" d="M47.934,12.788a3.349,3.349,0,0,0-2.607.776c-.487.524-.643,1.283-1.089,1.844-.633.8-1.739,1.069-2.439,1.806a2.559,2.559,0,0,0-.578,2.468c.1.314.255.606.359.918.433,1.308-.132,2.7-.482,4.031a.606.606,0,0,0-.02.34c.054.162.225.248.366.344a1.9,1.9,0,0,1,.742,1.445,5.548,5.548,0,0,1-.211,1.662,6.626,6.626,0,0,1-1.938,3.912c-.5.389-1.158.7-1.287,1.324-.151.725.541,1.342,1.205,1.67,1.95.964,4.214.977,6.347,1.407,1.878.379,3.752,1.1,5.653.851a11.4,11.4,0,0,0,2.459-.7l4.993-1.84a1.3,1.3,0,0,0,.392-.2.927.927,0,0,0,.147-1.083,3.942,3.942,0,0,0-.723-.92,2.389,2.389,0,0,1-.692-2.336c.206-.526.7-.905.873-1.445.324-1-.551-1.933-1.081-2.837a4.764,4.764,0,0,1-.637-2.775c.083-1.041.509-2.036.54-3.079a8.242,8.242,0,0,0-.6-2.839,9.842,9.842,0,0,0-.953-2.208A5.057,5.057,0,0,0,52.9,13.11c-.708-.063-1.4.167-2.1.078C49.833,13.068,48.919,12.818,47.934,12.788Z" transform="translate(6.833 -8.181)" fill="#f7d6c8"/>
          <path id="Path_1156" data-name="Path 1156" d="M47.986,37.7s-5.661-3.549-3.459-7.64a6.312,6.312,0,0,0,.781-2.657,5.74,5.74,0,0,0,0-.646v-.031q-.011-.167-.03-.328a6.67,6.67,0,0,0-1.65-3.567s9.389-2.74,7.817-.27A3.457,3.457,0,0,0,51.422,26c.052.123.107.246.164.37a15.528,15.528,0,0,1,1.567,3.877C53.6,33.073,47.986,37.7,47.986,37.7Z" transform="translate(8.177 -5.781)" fill="#efb7b9"/>
          <path id="Path_1157" data-name="Path 1157" d="M51.445,22.561A3.457,3.457,0,0,0,51.422,26a6.344,6.344,0,0,1-6.146.4,6.661,6.661,0,0,0-1.648-3.57S53.017,20.09,51.445,22.561Z" transform="translate(8.177 -5.781)" opacity="0.1"/>
          <circle id="Ellipse_301" data-name="Ellipse 301" cx="6.334" cy="6.334" r="6.334" transform="translate(49.828 8.424)" fill="#efb7b9"/>
          <path id="Path_1158" data-name="Path 1158" d="M44.946,25.642v-.031l.008-.012A.205.205,0,0,0,44.946,25.642Z" transform="translate(8.539 -4.664)" opacity="0.1"/>
          <path id="Path_1159" data-name="Path 1159" d="M47.9,36.659s-5.661-3.549-3.459-7.64a6.312,6.312,0,0,0,.781-2.657,9.871,9.871,0,0,0,2.1,4.005,5.63,5.63,0,0,1,.862,2.874l.126.092.619-.374a6.587,6.587,0,0,1,.866-3.191c1.472-2.2,1.822-3.3,1.713-4.445A15.527,15.527,0,0,1,53.072,29.2C53.517,32.032,47.9,36.659,47.9,36.659Z" transform="translate(8.262 -4.74)" opacity="0.1"/>
          <path id="Path_1160" data-name="Path 1160" d="M59.19,28.145a8.572,8.572,0,0,1-5.506-2.863c.18,1.227-.112,2.324-1.685,4.68a6.6,6.6,0,0,0-.862,3.189l-.619.374-.126-.092a5.623,5.623,0,0,0-.862-2.874c-1.572-2.156-2.271-3.572-2.089-4.695a6.941,6.941,0,0,1-5.1,3.033c-3.369.225-6.2,2.606-6.47,6.963l1.078,1.483H47.581l0,.023h17l1.082-1.62C65.389,30.99,62.562,28.39,59.19,28.145Z" transform="translate(6.048 -4.751)" fill="#4877f4"/>
          <path id="Path_1161" data-name="Path 1161" d="M59.19,28.145a8.572,8.572,0,0,1-5.506-2.863c.18,1.227-.112,2.324-1.685,4.68a6.6,6.6,0,0,0-.862,3.189l-.619.374-.126-.092a5.623,5.623,0,0,0-.862-2.874c-1.572-2.156-2.271-3.572-2.089-4.695a6.941,6.941,0,0,1-5.1,3.033c-3.369.225-6.2,2.606-6.47,6.963l1.078,1.483H47.581l0,.023h17l1.082-1.62C65.389,30.99,62.562,28.39,59.19,28.145Z" transform="translate(6.048 -4.751)" opacity="0.05"/>
          <path id="Path_1162" data-name="Path 1162" d="M52.8,19.315a5.162,5.162,0,0,1-1.3,1.762,3.842,3.842,0,0,1-2.68,1.266,4.111,4.111,0,0,0,1.157-1.9c-.64.373-1.124.964-1.735,1.384a1.849,1.849,0,0,1-2.072.2,6.213,6.213,0,0,0,2.593-2.45c-1.451.376-2.2,2.011-3.5,2.744a3.974,3.974,0,0,1-2.031.458,1.593,1.593,0,0,1-1.333-.541,1.536,1.536,0,0,1-.206-.835,5.706,5.706,0,0,1,1.335-3.643,9.543,9.543,0,0,1,3.1-2.415,4.29,4.29,0,0,1,1.321-.482,4.776,4.776,0,0,1,1.739.17,9.914,9.914,0,0,1,2.163.688A2.64,2.64,0,0,1,52.8,19.315Z" transform="translate(7.645 -7.618)" opacity="0.1"/>
          <path id="Path_1163" data-name="Path 1163" d="M52.8,19.244a5.162,5.162,0,0,1-1.3,1.762,3.842,3.842,0,0,1-2.68,1.266,4.111,4.111,0,0,0,1.157-1.9c-.64.373-1.124.964-1.735,1.384a1.849,1.849,0,0,1-2.072.2,6.213,6.213,0,0,0,2.593-2.45c-1.451.376-2.2,2.011-3.5,2.744a3.974,3.974,0,0,1-2.031.458,1.593,1.593,0,0,1-1.333-.541,1.536,1.536,0,0,1-.206-.835,5.706,5.706,0,0,1,1.335-3.643,9.543,9.543,0,0,1,3.1-2.415,4.29,4.29,0,0,1,1.321-.482,4.776,4.776,0,0,1,1.739.17,9.914,9.914,0,0,1,2.163.688A2.64,2.64,0,0,1,52.8,19.244Z" transform="translate(7.645 -7.638)" fill="#f7d6c8"/>
          <circle id="Ellipse_302" data-name="Ellipse 302" cx="8.041" cy="8.041" r="8.041" transform="translate(8.728 3.914)" fill="#c3705a"/>
          <path id="Path_1164" data-name="Path 1164" d="M24.447,33.534S17.082,35.42,16.9,35.6s-6.2.494-4.448-3.19a13.573,13.573,0,0,0,.993-4.973c0-.076.007-.151.01-.226a36.733,36.733,0,0,0-.283-5.763s8.535-3.373,7.906,1.752a10.708,10.708,0,0,0,.258,3.76c.095.4.206.795.33,1.176A20.057,20.057,0,0,0,24.447,33.534Z" transform="translate(-0.467 -6.102)" fill="#ecb4b6"/>
          <path id="Path_1165" data-name="Path 1165" d="M21.112,26.961a6.92,6.92,0,0,1-7.882.251,36.734,36.734,0,0,0-.283-5.763s8.535-3.373,7.906,1.752A10.738,10.738,0,0,0,21.112,26.961Z" transform="translate(-0.244 -6.102)" opacity="0.1"/>
          <circle id="Ellipse_303" data-name="Ellipse 303" cx="6.918" cy="6.918" r="6.918" transform="translate(9.828 8.249)" fill="#ecb4b6"/>
          <path id="Path_1166" data-name="Path 1166" d="M24.447,32.009S17.082,33.9,16.9,34.074s-6.2.494-4.448-3.19a13.573,13.573,0,0,0,.993-4.973c.069.932.6,3.189.67,3.94a.654.654,0,0,0,.026.129,2.774,2.774,0,0,0,.884,1.083l.025.021a3.281,3.281,0,0,0,3.864.258,17.426,17.426,0,0,0,1.759-1.268,3.078,3.078,0,0,0,1.082-2.34,5.01,5.01,0,0,0-.089-1.127A20.045,20.045,0,0,0,24.447,32.009Z" transform="translate(-0.467 -4.578)" opacity="0.1"/>
          <path id="Path_1167" data-name="Path 1167" d="M35.565,37.214H5.509s.629-3.055.719-3.684a7.615,7.615,0,0,1,1.544-2.659,4.431,4.431,0,0,1,2.949-1.744c2.178-.114,4.537-3.19,4.537-3.19h0c.052.895.6,3.232.674,4a.654.654,0,0,0,.026.129,2.774,2.774,0,0,0,.884,1.083l.025.021a3.28,3.28,0,0,0,3.864.259,17.5,17.5,0,0,0,1.759-1.268,3.078,3.078,0,0,0,1.082-2.34,5.184,5.184,0,0,0-.188-1.548,2.449,2.449,0,0,0-.073-.235l.1.041a33.845,33.845,0,0,0,7.8,4.17,4.459,4.459,0,0,1,1.222.619,5.284,5.284,0,0,1,.83.745A7.727,7.727,0,0,1,34.5,33.519,13.082,13.082,0,0,1,35.565,37.214Z" transform="translate(-2.286 -4.571)" fill="#4877f4"/>
          <path id="Path_1168" data-name="Path 1168" d="M35.565,37.214H5.509s.629-3.055.719-3.684a7.615,7.615,0,0,1,1.544-2.659,4.431,4.431,0,0,1,2.949-1.744c2.178-.114,4.537-3.19,4.537-3.19h0c.052.895.6,3.232.674,4a.654.654,0,0,0,.026.129,2.774,2.774,0,0,0,.884,1.083l.025.021a3.28,3.28,0,0,0,3.864.259,17.5,17.5,0,0,0,1.759-1.268,3.078,3.078,0,0,0,1.082-2.34,5.184,5.184,0,0,0-.188-1.548,2.449,2.449,0,0,0-.073-.235l.1.041a33.845,33.845,0,0,0,7.8,4.17,4.459,4.459,0,0,1,1.222.619,5.284,5.284,0,0,1,.83.745A7.727,7.727,0,0,1,34.5,33.519,13.082,13.082,0,0,1,35.565,37.214Z" transform="translate(-2.286 -4.571)" opacity="0.05"/>
          <path id="Path_1169" data-name="Path 1169" d="M21.249,20.869a2.77,2.77,0,0,0,1.028,1.812.9.9,0,0,1,.225.153c.151.165.105.421.083.644a2.663,2.663,0,0,0,.79,2.09A3.927,3.927,0,0,0,25.4,26.606a.736.736,0,0,0,.551-.042.642.642,0,0,0,.226-.324,2.742,2.742,0,0,0-.054-1.755c-.176-.57-.434-1.114-.567-1.7a11.923,11.923,0,0,1,.291-4.21,3.614,3.614,0,0,0-.021-1.4A4.212,4.212,0,0,0,24.7,15.488a3.45,3.45,0,0,0-.826-.719c-.946-.517-2.163-.058-3.173-.434a11.9,11.9,0,0,1-1.132-.619,4.1,4.1,0,0,0-2.681-.248,12.22,12.22,0,0,0-2.565.957l-.635.288a4.767,4.767,0,0,0-2.335,1.743c-.513.92-.37,2.1-.883,3.016a2.5,2.5,0,0,0-.413.856,1.707,1.707,0,0,0,.108.678,5.428,5.428,0,0,1,.286,1.652,2.219,2.219,0,0,1-.589,1.532c-.168.167-.392.38-.289.593a.446.446,0,0,0,.138.149,2.437,2.437,0,0,0,2.322.344,1.508,1.508,0,0,0,.757-.571,2.236,2.236,0,0,0,.244-.639,8.922,8.922,0,0,0,.419-2.473,8.75,8.75,0,0,1-.028-1.445,1.292,1.292,0,0,1,.814-1.1,4.06,4.06,0,0,1,1.072.017c.518,0,1.152-.578,1.632-.41.413.146.74.936,1.081,1.239A3.92,3.92,0,0,0,21.249,20.869Z" transform="translate(-1.176 -8.025)" opacity="0.1"/>
          <path id="Path_1170" data-name="Path 1170" d="M21.248,20.8a2.77,2.77,0,0,0,1.028,1.812.9.9,0,0,1,.222.15c.151.165.105.421.083.644a2.663,2.663,0,0,0,.79,2.09,3.927,3.927,0,0,0,2.024,1.038.736.736,0,0,0,.551-.042.642.642,0,0,0,.226-.324,2.742,2.742,0,0,0-.054-1.755c-.176-.57-.434-1.114-.567-1.7a11.923,11.923,0,0,1,.291-4.21,3.615,3.615,0,0,0-.021-1.4A4.212,4.212,0,0,0,24.7,15.415a3.45,3.45,0,0,0-.826-.719c-.946-.517-2.163-.058-3.173-.434a11.9,11.9,0,0,1-1.132-.619,4.1,4.1,0,0,0-2.681-.248,12.22,12.22,0,0,0-2.565.957l-.627.289a4.767,4.767,0,0,0-2.335,1.743c-.513.92-.37,2.1-.883,3.016a2.5,2.5,0,0,0-.413.856,1.707,1.707,0,0,0,.108.678,5.428,5.428,0,0,1,.286,1.652,2.219,2.219,0,0,1-.589,1.532c-.168.167-.392.38-.289.593a.446.446,0,0,0,.138.149,2.437,2.437,0,0,0,2.322.344,1.508,1.508,0,0,0,.757-.571,2.236,2.236,0,0,0,.244-.639,8.922,8.922,0,0,0,.419-2.473,8.751,8.751,0,0,1-.028-1.445,1.292,1.292,0,0,1,.814-1.1,4.06,4.06,0,0,1,1.072.017c.518,0,1.152-.578,1.632-.41.413.146.74.936,1.081,1.239A3.893,3.893,0,0,0,21.248,20.8Z" transform="translate(-1.175 -8.045)" fill="#c3705a"/>
          <rect id="Rectangle_531" data-name="Rectangle 531" width="15.769" height="13.522" transform="translate(27.349 15.692)" fill="#463a3e"/>
          <rect id="Rectangle_532" data-name="Rectangle 532" width="15.769" height="13.522" transform="translate(27.349 15.692)" opacity="0.05"/>
          <path id="Path_1171" data-name="Path 1171" d="M37.943,40.936H24.452a6.862,6.862,0,0,1,1.676-3.219,11.908,11.908,0,0,0,1.9-3.042q.192-.443.344-.887a12.991,12.991,0,0,0,.605-2.713A.761.761,0,0,1,28.987,31a14.823,14.823,0,0,0,.084-1.922c0-.046,0-.091,0-.138A17.512,17.512,0,0,0,28.3,24.3l-.017-.054c-.147-.462-.254-.721-.254-.721s.268-.145.71-.359l.037-.018c1.625-.781,5.472-2.409,7.168-1.249l.028.019a2.461,2.461,0,0,1,.763,2.49v.015a.679.679,0,0,1-.008.069,25,25,0,0,0-.129,2.68c0,.045,0,.089,0,.138q0,.315.007.637v.087c.014.7.045,1.413.088,2.141.06,1.01.145,2.038.244,3.047.042.432.087.86.138,1.282l.017.149c.058.514.118,1.018.179,1.507l0,.032C37.5,38.129,37.763,39.824,37.943,40.936Z" transform="translate(2.914 -5.791)" fill="#c17174"/>
          <path id="Path_1172" data-name="Path 1172" d="M35.956,24.406v.015a24.754,24.754,0,0,0-.138,2.753c0,.045,0,.089,0,.138a6.567,6.567,0,0,1-7.52,1.768v-.138a17.477,17.477,0,0,0-.792-4.694c-.147-.462-.254-.721-.254-.721s.268-.145.71-.359c1.609-.778,5.536-2.457,7.231-1.251A2.464,2.464,0,0,1,35.956,24.406Z" transform="translate(3.683 -5.791)" opacity="0.1"/>
          <circle id="Ellipse_304" data-name="Ellipse 304" cx="6.561" cy="6.561" r="6.561" transform="translate(27.968 10.54)" fill="#c17174"/>
          <path id="Path_1173" data-name="Path 1173" d="M33.36,38.4h-14s.629-3.055.719-3.684a7.615,7.615,0,0,1,1.544-2.659A6.791,6.791,0,0,1,25.8,30.574c2.677-.04,3.456.882,3.667,1.563a1.526,1.526,0,0,1,.055.708l.507.734Z" transform="translate(1.517 -3.298)" opacity="0.1"/>
          <path id="Path_1174" data-name="Path 1174" d="M33.324,38.433h-14s.629-3.055.719-3.684a7.615,7.615,0,0,1,1.544-2.659,6.791,6.791,0,0,1,4.177-1.482c2.677-.04,3.456.882,3.667,1.563a1.526,1.526,0,0,1,.055.708l.507.734Z" transform="translate(1.507 -3.289)" fill="#4877f4"/>
          <path id="Path_1175" data-name="Path 1175" d="M45.457,38.448H30.792a47.175,47.175,0,0,0,2.634-6.373c.039-.355.418-.688.919-.971a5.222,5.222,0,0,1,.488-.246l.03-.014q.138-.061.279-.112a5.586,5.586,0,0,1,3.923.031c1.2.458,2.753,1.074,3.959,1.652l.01,0c.31.149.6.294.852.434a3.345,3.345,0,0,1,1.021.737,4.7,4.7,0,0,1,.217,1.17C45.229,35.645,45.344,36.959,45.457,38.448Z" transform="translate(4.654 -3.348)" opacity="0.1"/>
          <path id="Path_1176" data-name="Path 1176" d="M45.492,38.483H30.827a47.177,47.177,0,0,0,2.634-6.373c.039-.355.418-.688.919-.971a5.222,5.222,0,0,1,.488-.246l.03-.014q.138-.061.279-.112A5.586,5.586,0,0,1,39.1,30.8c1.2.458,2.753,1.074,3.959,1.652l.01,0c.31.149.6.294.852.434a3.345,3.345,0,0,1,1.021.737,4.7,4.7,0,0,1,.217,1.17C45.265,35.681,45.379,36.994,45.492,38.483Z" transform="translate(4.664 -3.339)" fill="#4877f4"/>
          <path id="Path_1177" data-name="Path 1177" d="M46.283,35.7q0,.317-.017.635-.01.155-.023.31c-.006.074-.014.148-.021.222l-.01.085c-.112,1-.319,2-.344,3V40.1a12.527,12.527,0,0,0,.355,2.8H37.777c-.014-.171-.021-.344-.019-.514a4.514,4.514,0,0,1,.025-.461c.13-1.267.778-2.453.876-3.712l0-.058c.006-.094.01-.189.008-.284v-.025a4.866,4.866,0,0,0-.191-1.229l-.017-.06a12.382,12.382,0,0,0-.413-1.17l-.03-.076c-.229-.573-.47-1.14-.633-1.71a4.549,4.549,0,0,1-.2-1.308c0-.079,0-.158.011-.237s.013-.129.023-.195a3.052,3.052,0,0,1,.061-.3A6.67,6.67,0,0,1,38,30h0a4.474,4.474,0,0,0,.666-1.706,1.968,1.968,0,0,0,.008-.224h0a1.976,1.976,0,0,0-.028-.288,4.937,4.937,0,0,0-.465-1.181c-.018-.039-.036-.078-.053-.118,0-.006-.006-.012-.008-.019a15.808,15.808,0,0,1-.754-2.487c-.009-.036-.018-.073-.028-.109-.052-.206-.1-.413-.161-.619a6.634,6.634,0,0,0-1.583-3.077,2.936,2.936,0,0,0-3.214-.707,3.47,3.47,0,0,0-1.616,2.446c-.221.986-.239,2.015-.526,2.984q-.031.106-.069.211c-.012.036-.025.069-.037.108a10.816,10.816,0,0,1-.439,1.044l-.017.036a8.713,8.713,0,0,0-1.15,3.325v.1a2.885,2.885,0,0,0,.12.785,3.91,3.91,0,0,0,.677,1.239q.086.112.176.222c.289.355.6.7.878,1.065l.009.012a4.354,4.354,0,0,1,.525.876,3.2,3.2,0,0,1,.014,2.471,4.642,4.642,0,0,1-.268.527c-.177.306-.372.6-.525.921a3.439,3.439,0,0,0-.138.326c-.344.887-.418,1.867-.7,2.782a6.316,6.316,0,0,1-1,1.947H19.344c.1-.509.619-3.028.7-3.594a7.615,7.615,0,0,1,1.544-2.659q-.117.092-.225.185a7.657,7.657,0,0,0-1.5,1.725c.02-.062.041-.125.061-.187.126-.376.262-.748.4-1.116a8.1,8.1,0,0,1,1.645-2.941c.451-.453,1-.8,1.429-1.275a4.55,4.55,0,0,0,1.061-3.115c0-.117,0-.233-.012-.35a11.95,11.95,0,0,0-.964-3.579,5.141,5.141,0,0,1-.5-1.927,2.147,2.147,0,0,1,.02-.275c.189-1.361,1.566-2.176,2.393-3.274,1.229-1.633,1.319-4.061,2.931-5.315,1.239-.964,2.96-.9,4.524-.8,1.455.1,2.768.287,4.212.489a8.526,8.526,0,0,1,4.068,1.472,8.478,8.478,0,0,1,1.85,2.123,7.4,7.4,0,0,1,1.383,3.482c.006.09.01.18.01.268.014,1.473-.625,2.9-.71,4.38,0,.069-.006.138-.007.206a.047.047,0,0,0,0,.011,7.22,7.22,0,0,0,1.147,3.717A9.969,9.969,0,0,1,46.283,35.7Z" transform="translate(1.512 -7.753)" opacity="0.1"/>
          <path id="Path_1178" data-name="Path 1178" d="M46.288,35.72c0,.182-.007.364-.017.545q-.01.155-.023.31t-.031.307c-.112,1-.319,2-.344,3v.232a12.93,12.93,0,0,0,.375,2.8H37.789c-.016-.171-.025-.344-.027-.514a4.923,4.923,0,0,1,.025-.551c.13-1.267.778-2.453.876-3.712.007-.092.012-.184.012-.275V37.8a4.924,4.924,0,0,0-.206-1.315,12.38,12.38,0,0,0-.413-1.17c-.238-.6-.494-1.192-.664-1.79a4.654,4.654,0,0,1-.2-1.22,3.2,3.2,0,0,1,.011-.328c.006-.065.013-.129.023-.195a3.052,3.052,0,0,1,.061-.3A6.669,6.669,0,0,1,38,29.923a4.466,4.466,0,0,0,.667-1.708c0-.045.006-.09.008-.138h0a1.927,1.927,0,0,0-.028-.378,4.937,4.937,0,0,0-.465-1.181c-.018-.039-.036-.078-.053-.118a15.472,15.472,0,0,1-.761-2.505c-.061-.244-.123-.487-.188-.729A6.634,6.634,0,0,0,35.6,20.089a2.923,2.923,0,0,0-3.212-.7,3.47,3.47,0,0,0-1.616,2.446c-.221.986-.239,2.015-.526,2.984-.032.107-.069.213-.1.319-.128.363-.288.723-.456,1.081a8.343,8.343,0,0,0-1.15,3.415v.014a2.885,2.885,0,0,0,.12.785,3.91,3.91,0,0,0,.677,1.239q.086.112.176.222c.293.359.61.707.887,1.077a4.354,4.354,0,0,1,.525.876,3.2,3.2,0,0,1,.014,2.471,4.642,4.642,0,0,1-.268.527c-.177.306-.372.6-.525.921A3.441,3.441,0,0,0,30,38.1c-.344.887-.418,1.867-.7,2.782a6.332,6.332,0,0,1-1.069,2.037H19.328s.629-3.055.719-3.684a7.29,7.29,0,0,1,1.319-2.384c.069-.092.147-.184.225-.275a7.712,7.712,0,0,0-1.662,1.813l-.061.1c.143-.44.3-.874.463-1.3a8.1,8.1,0,0,1,1.645-2.941c.451-.453,1-.8,1.429-1.275a4.535,4.535,0,0,0,1.061-3.028c0-.147,0-.294-.012-.44a11.95,11.95,0,0,0-.964-3.579,5.5,5.5,0,0,1-.5-1.84,2.236,2.236,0,0,1,.02-.363c.19-1.353,1.567-2.165,2.393-3.266,1.229-1.633,1.319-4.061,2.931-5.315,1.239-.964,2.96-.9,4.524-.8,1.455.1,2.768.287,4.212.489a8.548,8.548,0,0,1,4.068,1.469,8.529,8.529,0,0,1,1.85,2.123A7.4,7.4,0,0,1,44.376,21.9q.012.18.01.359c-.012,1.441-.627,2.841-.71,4.29-.006.1-.008.195-.007.293a.047.047,0,0,0,0,.011,7.273,7.273,0,0,0,1.147,3.625,9.969,9.969,0,0,1,1.472,5.246Z" transform="translate(1.507 -7.771)" fill="#463a3e"/>
        </g>
      </g>
    </g>
  </g>
</svg>
