<svg xmlns="http://www.w3.org/2000/svg" width="221.764" height="184.614" viewBox="0 0 221.764 184.614">
  <g id="Group_1312" data-name="Group 1312" transform="translate(-764.118 -159)">
    <path id="Path_1196" data-name="Path 1196" d="M554.888,218.78a38.791,38.791,0,0,1-9.238,4.883c-.851.319-1.716.613-2.584.877h-38.51c-.166-.294-.332-.583-.5-.877-3.329-5.922-6.377-12.077-7.229-18.774-1-7.876,1.8-16.794,8.74-20.664a14.121,14.121,0,0,1,2.869-1.2c.413-.123.834-.226,1.26-.315a14.992,14.992,0,0,1,17.433,19.489c5.879-6.028,4.781-15.8,2.754-23.972s-4.491-17.263-.358-24.6a16.21,16.21,0,0,1,10.864-7.637l.417-.089a21.905,21.905,0,0,1,15.721,2.754c8.663,5.462,13.116,15.815,14.56,25.96C573.419,190.93,568.268,209.142,554.888,218.78Z" transform="translate(414.25 13.541)" fill="#f2f2f2"/>
    <path id="Path_1197" data-name="Path 1197" d="M520.8,217.1a33.742,33.742,0,0,1,2.912,20.988,34.609,34.609,0,0,1-6.658,14.772c-.23.294-.464.588-.707.877h-1.592c.255-.289.507-.579.749-.877a32.927,32.927,0,0,0,7.088-26.45,33.259,33.259,0,0,0-6.19-14.193c.413-.123.834-.226,1.26-.315A34.206,34.206,0,0,1,520.8,217.1Z" transform="translate(406.287 -15.655)" fill="#fff"/>
    <path id="Path_1198" data-name="Path 1198" d="M567.77,192.953a37.23,37.23,0,0,1-2.567,10.481,32.368,32.368,0,0,1-5.015,8.191,41.374,41.374,0,0,1-15.9,11.46c-.771.324-1.554.63-2.337.911q-1.3.473-2.622.877H534.59c1.162-.26,2.311-.549,3.452-.877a50.588,50.588,0,0,0,8.2-3.112,38.524,38.524,0,0,0,14.423-11.835c4.04-5.573,5.824-12.278,6.126-19.093a80.45,80.45,0,0,0-2.286-21.814,91.446,91.446,0,0,0-7.693-20.958.658.658,0,0,1,.26-.868.553.553,0,0,1,.417-.089.507.507,0,0,1,.323.277c.422.822.834,1.643,1.23,2.473a92.76,92.76,0,0,1,7.25,21.745A74.6,74.6,0,0,1,567.77,192.953Z" transform="translate(397.571 13.208)" fill="#fff"/>
    <path id="Path_1210" data-name="Path 1210" d="M524.691,421.878h-97.2a8.969,8.969,0,0,0,0,17.938h87.192l7.108,10.926a1.7,1.7,0,0,0,1.435.8,1.78,1.78,0,0,0,.51-.073,1.706,1.706,0,0,0,1.245-1.665v-9.989a8.968,8.968,0,1,0-.292-17.934Zm0,16.784h-.869V449.8a.575.575,0,0,1-1.06.314l-7.444-11.453H427.493a7.812,7.812,0,0,1,0-15.623h97.2a7.812,7.812,0,0,1,0,15.623Z" transform="translate(448.573 -107.924)" fill="#4a4a4a"/>
    <path id="Path_1211" data-name="Path 1211" d="M401.155,353.77H243.785a8.966,8.966,0,1,0,0,17.933h1.446v10.561a1.7,1.7,0,0,0,1.239,1.665,1.847,1.847,0,0,0,.516.073,1.694,1.694,0,0,0,1.435-.79L255.9,371.7H401.155a8.966,8.966,0,1,0,0-17.933Zm0,16.778H255.272l-7.82,12.03a.579.579,0,0,1-1.065-.314V370.548h-2.6a7.812,7.812,0,0,1,0-15.623h157.37a7.812,7.812,0,0,1,0,15.623Z" transform="translate(529.299 -77.996)" fill="#ccc"/>
    <path id="Path_1212" data-name="Path 1212" d="M340.983,217.53h-97.2a8.966,8.966,0,0,0,0,17.933h1.446v10.561a1.7,1.7,0,0,0,1.239,1.665,1.858,1.858,0,0,0,.516.079,1.7,1.7,0,0,0,1.435-.8l7.478-11.509h85.084a8.966,8.966,0,0,0,0-17.933Zm0,16.778H255.272l-7.82,12.036a.581.581,0,0,1-1.065-.32V234.308h-2.6a7.812,7.812,0,0,1,0-15.623h97.2a7.812,7.812,0,0,1,0,15.623Z" transform="translate(529.299 -18.129)" fill="#ccc"/>
    <path id="Path_1213" data-name="Path 1213" d="M494.307,285.648H358.346a8.966,8.966,0,0,0,0,17.933h123.7l9.362,14.4a1.7,1.7,0,0,0,1.435.8,1.79,1.79,0,0,0,.51-.078,1.7,1.7,0,0,0,1.245-1.665V303.581a8.968,8.968,0,1,0-.292-17.934Zm0,16.778h-.869v14.609a.555.555,0,0,1-.409.555.565.565,0,0,1-.65-.235l-9.7-14.928H358.346a7.812,7.812,0,0,1,0-15.623H494.307a7.812,7.812,0,0,1,0,15.623Z" transform="translate(478.958 -48.061)" fill="#4a4a4a"/>
    <ellipse id="Ellipse_318" data-name="Ellipse 318" cx="4.629" cy="4.629" rx="4.629" ry="4.629" transform="translate(874.043 318.586)" fill="#4877f4"/>
    <ellipse id="Ellipse_319" data-name="Ellipse 319" cx="4.629" cy="4.629" rx="4.629" ry="4.629" transform="translate(887.928 318.586)" fill="#4877f4"/>
    <ellipse id="Ellipse_320" data-name="Ellipse 320" cx="4.629" cy="4.629" rx="4.629" ry="4.629" transform="translate(901.813 318.586)" fill="#4877f4"/>
    <path id="Path_1214" data-name="Path 1214" d="M402.994,365.68H276.455a2.372,2.372,0,0,0-2.371,2.371v.415a2.372,2.372,0,0,0,2.371,2.371H402.994a2.376,2.376,0,0,0,2.371-2.371v-.415a2.376,2.376,0,0,0-2.371-2.371Z" transform="translate(512.044 -83.23)" fill="#dbdbdb"/>
    <path id="Path_1215" data-name="Path 1215" d="M345.26,228.41H256.325a2.376,2.376,0,0,0-2.371,2.371v.415a2.376,2.376,0,0,0,2.371,2.371H345.26a2.376,2.376,0,0,0,2.371-2.371v-.415A2.376,2.376,0,0,0,345.26,228.41Z" transform="translate(520.89 -22.91)" fill="#dbdbdb"/>
    <path id="Path_1216" data-name="Path 1216" d="M494.4,297.56H405.466a2.376,2.376,0,0,0-2.371,2.371v.415a2.376,2.376,0,0,0,2.371,2.371H494.4a2.371,2.371,0,0,0,2.366-2.371v-.415a2.371,2.371,0,0,0-2.366-2.371Z" transform="translate(455.354 -53.296)" fill="#4877f4"/>
  </g>
</svg>
