<svg xmlns="http://www.w3.org/2000/svg" width="62" height="62" viewBox="0 0 62 62"><defs><style>.a{fill:none;stroke:#4877f4;stroke-linecap:round;stroke-linejoin:round;stroke-miterlimit:10;}</style></defs><g transform="translate(-1.5 -1.5)"><path class="a" d="M42.359,41.358A67.494,67.494,0,0,0,28.433,40c-11.326,0-18.8,2.37-22.827,4.155A6.077,6.077,0,0,0,2,49.726V60.333H34.533" transform="translate(0 0.633)"/><path class="a" d="M14,16.233a14.233,14.233,0,0,1,28.467,0c0,7.861-6.372,16.267-14.233,16.267S14,24.094,14,16.233Z" transform="translate(0.2 0)"/><line class="a" y2="8" transform="translate(51 47)"/><line class="a" x2="8" transform="translate(47 51)"/><circle class="a" cx="12" cy="12" r="12" transform="translate(39 39)"/></g></svg>