<svg xmlns="http://www.w3.org/2000/svg" width="76.39" height="62" viewBox="0 0 76.39 62">
  <g id="Group_30" data-name="Group 30" transform="translate(-735.628 -131.5)">
    <path id="Path_1175" data-name="Path 1175" d="M10,17.087a9.087,9.087,0,0,1,18.175,0c0,5.019-4.068,10.9-9.087,10.9S10,22.106,10,17.087Z" transform="translate(754.734 133.145)" fill="rgba(255,255,255,0)" stroke="#4877f4" stroke-linecap="round" stroke-linejoin="round" stroke-miterlimit="10" stroke-width="1"/>
    <path id="Path_1173" data-name="Path 1173" d="M10,17.087a9.087,9.087,0,0,1,18.175,0c0,5.019-4.068,10.9-9.087,10.9S10,22.106,10,17.087Z" transform="translate(733.397 142.289)" fill="#fff" stroke="#4877f4" stroke-linecap="round" stroke-linejoin="round" stroke-miterlimit="10" stroke-width="1"/>
    <path id="Path_1177" data-name="Path 1177" d="M34.715,53.266H2V44.648a7.268,7.268,0,0,1,5.21-6.976A39.679,39.679,0,0,1,18.357,36a39.821,39.821,0,0,1,11.132,1.694,7.275,7.275,0,0,1,5.225,6.981Z" transform="translate(776.803 121.445)" fill="rgba(255,255,255,0)" stroke="#4877f4" stroke-linecap="round" stroke-linejoin="round" stroke-miterlimit="10" stroke-width="1"/>
    <path id="Path_1174" data-name="Path 1174" d="M34.715,53.266H2V44.648a7.268,7.268,0,0,1,5.21-6.976A39.679,39.679,0,0,1,18.357,36a39.821,39.821,0,0,1,11.132,1.694,7.275,7.275,0,0,1,5.225,6.981Z" transform="translate(755.466 130.59)" fill="#fff" stroke="#4877f4" stroke-linecap="round" stroke-linejoin="round" stroke-miterlimit="10" stroke-width="1"/>
    <path id="Path_1172" data-name="Path 1172" d="M34.715,53.266H2V44.648a7.268,7.268,0,0,1,5.21-6.976A39.679,39.679,0,0,1,18.357,36a39.821,39.821,0,0,1,11.132,1.694,7.275,7.275,0,0,1,5.225,6.981Z" transform="translate(734.128 139.734)" fill="#fff" stroke="#4877f4" stroke-linecap="round" stroke-linejoin="round" stroke-miterlimit="10" stroke-width="1"/>
    <path id="Path_1176" data-name="Path 1176" d="M10,17.087a9.087,9.087,0,0,1,18.175,0c0,5.019-4.068,10.9-9.087,10.9S10,22.106,10,17.087Z" transform="translate(776.072 124)" fill="rgba(255,255,255,0)" stroke="#4877f4" stroke-linecap="round" stroke-linejoin="round" stroke-miterlimit="10" stroke-width="1"/>
  </g>
</svg>
