<svg xmlns="http://www.w3.org/2000/svg" width="59.861" height="61.999" viewBox="0 0 59.861 61.999">
  <g id="Group_28" data-name="Group 28" transform="translate(1 30.5)">
    <g id="property-agreement">
      <line id="Line_83" data-name="Line 83" x2="24" transform="translate(11.5 -15)" fill="none" stroke="#4877f4" stroke-linecap="round" stroke-linejoin="round" stroke-width="1"/>
      <line id="Line_84" data-name="Line 84" x2="24" transform="translate(11.5 -5)" fill="none" stroke="#4877f4" stroke-linecap="round" stroke-linejoin="round" stroke-width="1"/>
      <line id="Line_85" data-name="Line 85" x2="24" transform="translate(11.5 5)" fill="none" stroke="#4877f4" stroke-linecap="round" stroke-linejoin="round" stroke-width="1"/>
      <line id="Line_86" data-name="Line 86" x2="10" transform="translate(11.5 15)" fill="none" stroke="#4877f4" stroke-linecap="round" stroke-linejoin="round" stroke-width="1"/>
      <path id="Path_1133" data-name="Path 1133" d="M26.779,30.62H3.022A3.522,3.522,0,0,1-.5,27.1V-26.478A3.522,3.522,0,0,1,3.022-30H44.478A3.522,3.522,0,0,1,48-26.478V-2.133" fill="none" stroke="#4877f4" stroke-linecap="round" stroke-linejoin="round" stroke-width="1"/>
    </g>
    <g id="single-03">
      <path id="Path_1050" data-name="Path 1050" d="M42.33,20.765a7.873,7.873,0,0,0-4.437,7.085h0S41.042,31,48.127,31,58.361,27.85,58.361,27.85h0a7.873,7.873,0,0,0-4.439-7.085" fill="none" stroke="#4877f4" stroke-linecap="round" stroke-linejoin="round" stroke-width="1"/>
      <path id="Path_1051" data-name="Path 1051" d="M53.637,12.893c0,3.044-2.467,7.085-5.511,7.085s-5.51-4.042-5.51-7.085a5.511,5.511,0,1,1,11.021-.148C53.638,12.794,53.638,12.844,53.637,12.893Z" fill="none" stroke="#4877f4" stroke-linecap="round" stroke-linejoin="round" stroke-width="1"/>
    </g>
  </g>
</svg>
