<svg xmlns="http://www.w3.org/2000/svg" width="70.057" height="62" viewBox="0 0 70.057 62"><defs><style>.a{fill:none;stroke:#4877f4;stroke-linecap:round;stroke-linejoin:round;stroke-miterlimit:10;}</style></defs><g transform="translate(-1.5 -4.5)"><path class="a" d="M53.321,18h8.057a5.755,5.755,0,0,1,5.755,5.755V46.774a5.755,5.755,0,0,1-5.755,5.755H57.925V64.038L41.811,52.528H28" transform="translate(3.925 1.962)"/><path class="a" d="M51.491,5H7.755A5.755,5.755,0,0,0,2,10.755V37.226a5.755,5.755,0,0,0,5.755,5.755h5.755V59.094L31.925,42.981H51.491a5.755,5.755,0,0,0,5.755-5.755V10.755A5.755,5.755,0,0,0,51.491,5Z" transform="translate(0)"/></g></svg>