<svg xmlns="http://www.w3.org/2000/svg" width="21.5" height="19.167" viewBox="0 0 21.5 19.167"><defs><style>.a{fill:none;stroke:#4a4a4a;stroke-linecap:round;stroke-linejoin:round;stroke-miterlimit:10;stroke-width:1.5px;}</style></defs><g transform="translate(-1.25 -4.25)"><path class="a" d="M35.33,18h2.332a1.666,1.666,0,0,1,1.666,1.666V26.33A1.666,1.666,0,0,1,37.663,28h-1v3.332L32,28H28" transform="translate(-17.329 -8.661)"/><path class="a" d="M16.328,5H3.666A1.666,1.666,0,0,0,2,6.667v7.667A1.666,1.666,0,0,0,3.666,16H5.332v4.667L10.663,16h5.664a1.666,1.666,0,0,0,1.666-1.667V6.667A1.666,1.666,0,0,0,16.328,5Z" transform="translate(0 0)"/></g></svg>