<svg xmlns="http://www.w3.org/2000/svg" width="66.357" height="62" viewBox="0 0 66.357 62"><defs><style>.a{fill:none;stroke:#4877f4;stroke-linecap:round;stroke-linejoin:round;stroke-miterlimit:10;}</style></defs><g transform="translate(-1.5 -2.5)"><path class="a" d="M27,52.51A27.082,27.082,0,0,0,42.25,56.964,29.3,29.3,0,0,0,49.714,56l8.875,5.326v-9.6c4.039-3.143,6.536-7.441,6.536-12.186A13.816,13.816,0,0,0,63.456,33" transform="translate(2.232 2.678)"/><path class="a" d="M31.411,3C15.167,3,2,13.241,2,25.875A19.925,19.925,0,0,0,8.536,40.238V55.286l14.843-7.421a37.23,37.23,0,0,0,8.032.886c16.243,0,29.411-10.241,29.411-22.875S47.654,3,31.411,3Z"/></g></svg>