<svg xmlns="http://www.w3.org/2000/svg" width="78.873" height="62" viewBox="0 0 78.873 62"><defs><style>.a{fill:none;stroke:#4877f4;stroke-linecap:round;stroke-linejoin:round;stroke-miterlimit:10;}</style></defs><g transform="translate(-1.5 -7.5)"><line class="a" x2="29" transform="translate(50.873 16)"/><line class="a" x2="29" transform="translate(50.873 31)"/><line class="a" x2="16" transform="translate(63.873 47)"/><line class="a" x2="16" transform="translate(63.873 63)"/><path class="a" d="M48.723,60.66H2V48.352a10.381,10.381,0,0,1,7.441-9.964A56.669,56.669,0,0,1,25.362,36a56.871,56.871,0,0,1,15.9,2.419,10.391,10.391,0,0,1,7.463,9.97Z" transform="translate(0 8.34)"/><path class="a" d="M10,20.979a12.979,12.979,0,1,1,25.957,0c0,7.168-5.811,15.574-12.979,15.574S10,28.147,10,20.979Z" transform="translate(2.383)"/></g></svg>