<svg xmlns="http://www.w3.org/2000/svg" width="61.613" height="62.026" viewBox="0 0 61.613 62.026">
  <g id="filter" transform="translate(48 85.5)">
    <path id="Path_1119" data-name="Path 1119" d="M12.513-75.741-10.1-53.13a2.05,2.05,0,0,0-.6,1.449v19.7a2.049,2.049,0,0,1-.913,1.706L-20.5-24.348a2.05,2.05,0,0,1-3.187-1.706V-51.681a2.05,2.05,0,0,0-.6-1.449L-46.9-75.741a2.05,2.05,0,0,1-.6-1.449v-5.76A2.05,2.05,0,0,1-45.45-85H11.063a2.05,2.05,0,0,1,2.05,2.05v5.76A2.05,2.05,0,0,1,12.513-75.741Z" transform="translate(0 0)" fill="none" stroke="#4877f4" stroke-linecap="round" stroke-linejoin="round" stroke-width="1"/>
  </g>
</svg>
