<svg xmlns="http://www.w3.org/2000/svg" width="63.419" height="62.017" viewBox="0 0 63.419 62.017"><defs><style>.a{fill:none;stroke:#4877f4;stroke-linecap:round;stroke-linejoin:round;stroke-miterlimit:10;}</style></defs><g transform="translate(-1.5 -2.5)"><path class="a" d="M23.206,28l7.2,17.889a5.579,5.579,0,0,1-3.088,7.243h0a5.577,5.577,0,0,1-7.249-3.09L11.125,28" transform="translate(3.82 10.465)"/><path class="a" d="M30.372,12.93h-15.6A12.767,12.767,0,0,0,2,25.7H2A12.767,12.767,0,0,0,14.767,38.465h15.6l22.7,9.93V3Z" transform="translate(0)"/><path class="a" d="M42,15a5.674,5.674,0,1,1,0,11.349" transform="translate(16.744 5.023)"/></g></svg>