<svg xmlns="http://www.w3.org/2000/svg" width="59.43" height="62" viewBox="0 0 59.43 62"><defs><style>.a,.e{fill:none;}.a,.b,.c{stroke:#4877f4;}.a,.c{stroke-linecap:round;stroke-linejoin:round;stroke-miterlimit:10;}.b,.c{fill:#fff;}.d{stroke:none;}</style></defs><g transform="translate(-2.5 -1.5)"><line class="a" x2="21" transform="translate(3 46)"/><line class="a" x2="41" transform="translate(3 12)"/><path class="a" d="M40.432,63H7.159A4.159,4.159,0,0,1,3,58.841V6.159A4.159,4.159,0,0,1,7.159,2h33.31a4.16,4.16,0,0,1,4.159,4.167l-.037,26.678"/><g class="b" transform="translate(7 17)"><circle class="d" cx="5" cy="5" r="5"/><circle class="e" cx="5" cy="5" r="4.5"/></g><g class="b" transform="translate(7 31)"><circle class="d" cx="5" cy="5" r="5"/><circle class="e" cx="5" cy="5" r="4.5"/></g><g class="b" transform="translate(19 17)"><circle class="d" cx="5" cy="5" r="5"/><circle class="e" cx="5" cy="5" r="4.5"/></g><g class="b" transform="translate(19 31)"><circle class="d" cx="5" cy="5" r="5"/><circle class="e" cx="5" cy="5" r="4.5"/></g><g class="b" transform="translate(31 17)"><circle class="d" cx="5" cy="5" r="5"/><circle class="e" cx="5" cy="5" r="4.5"/></g><path class="c" d="M43.485,53.269,23.233,33.017a7.624,7.624,0,0,1,0-10.783h0a7.624,7.624,0,0,1,10.783,0L54.269,42.485" transform="translate(6.955 6.955)"/></g></svg>