<svg xmlns="http://www.w3.org/2000/svg" width="61.999" height="62" viewBox="0 0 61.999 62">
  <g id="multiple-11" transform="translate(74.75 32.354)">
    <path id="Path_1094" data-name="Path 1094" d="M-64.546-16.6h0a5.545,5.545,0,0,1-5.545-5.546h0a5.547,5.547,0,0,1,5.545-5.545h0A5.547,5.547,0,0,1-59-22.15h0A5.545,5.545,0,0,1-64.546-16.6Z" fill="none" stroke="#4877f4" stroke-linecap="round" stroke-linejoin="round" stroke-width="1"/>
    <path id="Path_1095" data-name="Path 1095" d="M-60.386,24.987h-4.508a4.173,4.173,0,0,1-4.156-3.8L-70.091,9.737l-1.129-.376a4.431,4.431,0,0,1-3.03-4.2V-4.127a5.546,5.546,0,0,1,5.545-5.545h8.318a5.546,5.546,0,0,1,4.751,2.685" fill="none" stroke="#4877f4" stroke-linecap="round" stroke-linejoin="round" stroke-width="1"/>
    <path id="Path_1096" data-name="Path 1096" d="M-22.955-16.6h0a5.546,5.546,0,0,0,5.545-5.545h0a5.546,5.546,0,0,0-5.545-5.546h0A5.547,5.547,0,0,0-28.5-22.15h0A5.545,5.545,0,0,0-22.955-16.6Z" fill="none" stroke="#4877f4" stroke-linecap="round" stroke-linejoin="round" stroke-width="1"/>
    <path id="Path_1097" data-name="Path 1097" d="M-27.114,24.987h4.507a4.173,4.173,0,0,0,4.156-3.8L-17.41,9.737l1.129-.376a4.431,4.431,0,0,0,3.03-4.2V-4.127A5.546,5.546,0,0,0-18.8-9.672h-8.318a5.546,5.546,0,0,0-4.751,2.685" fill="none" stroke="#4877f4" stroke-linecap="round" stroke-linejoin="round" stroke-width="1"/>
    <path id="Path_1098" data-name="Path 1098" d="M-43.75-15.218h0a8.318,8.318,0,0,1-8.318-8.318h0a8.318,8.318,0,0,1,8.318-8.318h0a8.318,8.318,0,0,1,8.318,8.318h0a8.318,8.318,0,0,1-8.318,8.318Z" fill="none" stroke="#4877f4" stroke-linecap="round" stroke-linejoin="round" stroke-width="1"/>
    <path id="Path_1099" data-name="Path 1099" d="M-40.655,29.146h-6.188A4.172,4.172,0,0,1-51,25.32l-1.068-12.806-2.192-.55a4.431,4.431,0,0,1-3.353-4.3V-2.741a5.546,5.546,0,0,1,5.545-5.545h16.637a5.546,5.546,0,0,1,5.545,5.545V7.666a4.431,4.431,0,0,1-3.353,4.3l-2.192.55L-36.5,25.319A4.173,4.173,0,0,1-40.655,29.146Z" fill="none" stroke="#4877f4" stroke-linecap="round" stroke-linejoin="round" stroke-width="1"/>
  </g>
</svg>
