<svg xmlns="http://www.w3.org/2000/svg" width="23" height="18.25" viewBox="0 0 23 18.25"><defs><style>.a,.b{fill:none;stroke-linecap:round;stroke-linejoin:round;stroke-miterlimit:10;}.a{stroke:#4a4a4a;stroke-width:1.5px;}.c,.d{stroke:none;}.d{fill:#4a4a4a;}</style></defs><g transform="translate(-0.5 -7.25)"><path class="a" d="M7,18.149V9.538A1.621,1.621,0,0,1,8.692,8h13.54a1.621,1.621,0,0,1,1.692,1.538v8.611" transform="translate(-3.462)"/><g class="b" transform="translate(0 -25.768)"><path class="c" d="M14.667,47v1.23H9.333V47H2v.308a2.57,2.57,0,0,0,2.667,2.46H19.333A2.57,2.57,0,0,0,22,47.308V47Z"/><path class="d" d="M 2 46.99999237060547 L 2 47.30753326416016 C 2 48.66631317138672 3.193910598754883 49.76781463623047 4.666669845581055 49.76781463623047 L 19.33333969116211 49.76781463623047 C 20.80608940124512 49.76781463623047 22 48.66631317138672 22 47.30753326416016 L 22 46.99999237060547 L 14.66666984558105 46.99999237060547 L 14.66666984558105 48.23013305664062 L 9.333330154418945 48.23013305664062 L 9.333330154418945 46.99999237060547 L 2 46.99999237060547 M 2 45.49999237060547 L 9.333330154418945 45.49999237060547 C 10.06963348388672 45.49999237060547 10.68202304840088 46.03049468994141 10.80912113189697 46.73013305664062 L 13.19087886810303 46.73013305664062 C 13.31797695159912 46.03049468994141 13.93036651611328 45.49999237060547 14.66666984558105 45.49999237060547 L 22 45.49999237060547 C 22.82843017578125 45.49999237060547 23.5 46.17156219482422 23.5 46.99999237060547 L 23.5 47.30753326416016 C 23.5 49.49124526977539 21.63084030151367 51.26781463623047 19.33333969116211 51.26781463623047 L 4.666669845581055 51.26781463623047 C 2.369159698486328 51.26781463623047 0.5 49.49124526977539 0.5 47.30753326416016 L 0.5 46.99999237060547 C 0.5 46.17156219482422 1.17156982421875 45.49999237060547 2 45.49999237060547 Z"/></g><g class="b" transform="translate(-16.505 -8.529)"><path class="c" d="M27,21v4.306l3.69-2.153Z"/><path class="d" d="M 27.0000057220459 21 L 27.0000057220459 25.30550003051758 L 30.6904239654541 23.15275001525879 L 27.0000057220459 21 M 27.0000057220459 19.5 C 27.26120185852051 19.5 27.5223445892334 19.56814002990723 27.75581550598145 19.70433044433594 L 31.44623565673828 21.85708045959473 C 31.90705490112305 22.12590026855469 32.19042205810547 22.61924934387207 32.19042205810547 23.15275001525879 C 32.19042205810547 23.68625068664551 31.90705490112305 24.17959976196289 31.44623565673828 24.44841957092285 L 27.75581550598145 26.60116958618164 C 27.52237319946289 26.73734474182129 27.26116943359375 26.80550003051758 27.0000057220459 26.80550003051758 C 26.74213600158691 26.80550003051758 26.48430633544922 26.73911666870117 26.25291442871094 26.60621070861816 C 25.78717422485352 26.33871078491211 25.50000381469727 25.84259986877441 25.50000381469727 25.30550003051758 L 25.50000381469727 21 C 25.50000381469727 20.46290016174316 25.78717422485352 19.96678924560547 26.25291442871094 19.69928932189941 C 26.48427772521973 19.5664005279541 26.74216651916504 19.5 27.0000057220459 19.5 Z"/></g></g></svg>