<svg xmlns="http://www.w3.org/2000/svg" width="51.833" height="61.916" viewBox="0 0 51.833 61.916">
  <g id="todo" transform="translate(-12 26.416)">
    <path id="Path_1105" data-name="Path 1105" d="M30.8,7.55l5.083,5.083L46.05,2.467" fill="none" stroke="#4877f4" stroke-linecap="round" stroke-linejoin="round" stroke-width="1"/>
    <path id="Path_1106" data-name="Path 1106" d="M55.2-16.85h5.092a3.042,3.042,0,0,1,3.041,3.041V31.959A3.042,3.042,0,0,1,60.292,35H15.541A3.042,3.042,0,0,1,12.5,31.959V-13.809a3.042,3.042,0,0,1,3.041-3.041h5.092" fill="none" stroke="#4877f4" stroke-linecap="round" stroke-linejoin="round" stroke-width="1"/>
    <path id="Path_1107" data-name="Path 1107" d="M47.154-18.883a2.523,2.523,0,0,1-2.4-1.889,7.12,7.12,0,0,0-6.924-5.143,7.121,7.121,0,0,0-6.764,5.172,2.469,2.469,0,0,1-2.35,1.86h-.537a2.464,2.464,0,0,0-2.465,2.465v3.2a2.464,2.464,0,0,0,2.465,2.465h19.47a2.464,2.464,0,0,0,2.465-2.465v-3.2a2.464,2.464,0,0,0-2.465-2.465Z" fill="none" stroke="#4877f4" stroke-linecap="round" stroke-linejoin="round" stroke-width="1"/>
    <circle id="Ellipse_344" data-name="Ellipse 344" cx="1" cy="1" r="1" transform="translate(37 -19)" fill="#4877f4"/>
    <path id="Path_1108" data-name="Path 1108" d="M57.233-10.75V25.859A3.042,3.042,0,0,1,54.192,28.9H21.641A3.042,3.042,0,0,1,18.6,25.859V-10.75" fill="none" stroke="#4877f4" stroke-linecap="round" stroke-linejoin="round" stroke-width="1"/>
  </g>
</svg>
