<svg xmlns="http://www.w3.org/2000/svg" width="56.046" height="62" viewBox="0 0 56.046 62">
  <g id="medal" transform="translate(-10.928 26.5)">
    <path id="Path_1146" data-name="Path 1146" d="M37.188-5.59l-7.907-19.2A1.95,1.95,0,0,0,27.479-26H13.395a1.95,1.95,0,0,0-1.8,2.692L22.379,2.884" fill="none" stroke="#4877f4" stroke-linecap="round" stroke-linejoin="round" stroke-width="1"/>
    <path id="Path_1147" data-name="Path 1147" d="M40.234-5.59l7.907-19.2A1.95,1.95,0,0,1,49.943-26H64.027a1.95,1.95,0,0,1,1.8,2.692L55.043,2.884" transform="translate(0.48)" fill="none" stroke="#4877f4" stroke-linecap="round" stroke-linejoin="round" stroke-width="1"/>
    <circle id="Ellipse_357" data-name="Ellipse 357" cx="20.333" cy="20.333" r="20.333" transform="translate(18.618 -5.667)" stroke-width="1" stroke="#4877f4" stroke-linecap="round" stroke-linejoin="round" fill="none"/>
    <path id="Path_1148" data-name="Path 1148" d="M38.683,3.538l3.457,7,7.727,1.118L44.275,17.11l1.322,7.7-6.913-3.629L31.77,24.811l1.322-7.7L27.5,11.663l7.727-1.118Z" transform="translate(0.268 0.492)" fill="none" stroke="#4877f4" stroke-linecap="round" stroke-linejoin="round" stroke-width="1"/>
  </g>
</svg>
