<svg xmlns="http://www.w3.org/2000/svg" width="62.134" height="61.999" viewBox="0 0 62.134 61.999">
  <g id="telephone" transform="translate(-16.936 80.757)">
    <path id="Path_1058" data-name="Path 1058" d="M75.292-36.681,63.575-51.323a9.843,9.843,0,0,0-7.685-3.693H40.11a9.843,9.843,0,0,0-7.686,3.694L20.708-36.679a9.846,9.846,0,0,0-2.157,6.149v4.962a6.31,6.31,0,0,0,6.31,6.31H71.137a6.31,6.31,0,0,0,6.31-6.31h0l0-4.958A9.837,9.837,0,0,0,75.292-36.681Z" fill="none" stroke="#4877f4" stroke-linecap="round" stroke-linejoin="round" stroke-width="1"/>
    <path id="Path_1059" data-name="Path 1059" d="M17.487-70.913,18-66.264a5.552,5.552,0,0,0,5.517,4.939h3.316a5.552,5.552,0,0,0,5.386-4.207h0a5.55,5.55,0,0,1,5.386-4.207h20.78a5.55,5.55,0,0,1,5.386,4.207h0a5.552,5.552,0,0,0,5.386,4.207h3.319A5.551,5.551,0,0,0,78-66.264l.516-4.649a8.414,8.414,0,0,0-7.432-9.293,8.493,8.493,0,0,0-.929-.051h-44.3a8.412,8.412,0,0,0-8.412,8.415A8.492,8.492,0,0,0,17.487-70.913Z" fill="none" stroke="#4877f4" stroke-linecap="round" stroke-linejoin="round" stroke-width="1"/>
    <circle id="Ellipse_301" data-name="Ellipse 301" cx="8.414" cy="8.414" r="8.414" transform="translate(39.586 -46.602)" stroke-width="1" stroke="#4877f4" stroke-linecap="round" stroke-linejoin="round" fill="none"/>
  </g>
</svg>
