<svg xmlns="http://www.w3.org/2000/svg" width="62" height="62" viewBox="0 0 62 62"><defs><style>.a{fill:none;stroke:#4877f4;stroke-linecap:round;stroke-linejoin:round;stroke-miterlimit:10;}</style></defs><g transform="translate(-3.5 -3.5)"><path class="a" d="M24.7,39.946H7.268A3.268,3.268,0,0,1,4,36.679V7.268A3.268,3.268,0,0,1,7.268,4H24.7a3.268,3.268,0,0,1,3.268,3.268V36.679A3.268,3.268,0,0,1,24.7,39.946Z"/><path class="a" d="M34,5h0A17.429,17.429,0,0,1,51.429,22.429h0" transform="translate(2.679 0.089)"/><path class="a" d="M14,43h0A17.429,17.429,0,0,0,31.429,60.429h0" transform="translate(0.893 3.482)"/><line class="a" x2="24" transform="translate(4 11)"/><line class="a" x2="24" transform="translate(4 31)"/><path class="a" d="M58.7,62.946H41.268A3.268,3.268,0,0,1,38,59.679V30.268A3.268,3.268,0,0,1,41.268,27H58.7a3.268,3.268,0,0,1,3.268,3.268V59.679A3.268,3.268,0,0,1,58.7,62.946Z" transform="translate(3.036 2.054)"/><line class="a" x2="24" transform="translate(41 36)"/><line class="a" x2="24" transform="translate(41 56)"/></g></svg>