<svg xmlns="http://www.w3.org/2000/svg" width="62.207" height="62.207" viewBox="0 0 62.207 62.207">
  <g id="Group_23" data-name="Group 23" transform="translate(-944.5 -131.5)">
    <g id="search-property" transform="translate(941 128)">
      <line id="Line_18" data-name="Line 18" x2="16" y2="16" transform="translate(49 49)" fill="none" stroke="#4877f4" stroke-linecap="round" stroke-linejoin="round" stroke-miterlimit="10" stroke-width="1"/>
      <circle id="Ellipse_297" data-name="Ellipse 297" cx="26" cy="26" r="26" transform="translate(4 4)" stroke-width="1" stroke="#4877f4" stroke-linecap="round" stroke-linejoin="round" stroke-miterlimit="10" fill="none"/>
    </g>
    <g id="single-03" transform="translate(959.5 145.5)">
      <path id="Path_1050" data-name="Path 1050" d="M5.892,9A7.792,7.792,0,0,0,1.5,16.013h0S4.617,19.13,11.63,19.13s10.13-3.117,10.13-3.117h0A7.792,7.792,0,0,0,17.365,9" transform="translate(0 4.746)" fill="none" stroke="#4877f4" stroke-linecap="round" stroke-linejoin="round" stroke-width="1"/>
      <path id="Path_1051" data-name="Path 1051" d="M15.409,5.954c0,3.012-2.442,7.013-5.454,7.013S4.5,8.967,4.5,5.954a5.454,5.454,0,1,1,10.909,0Z" transform="translate(1.675)" fill="none" stroke="#4877f4" stroke-linecap="round" stroke-linejoin="round" stroke-width="1"/>
    </g>
  </g>
</svg>
