<svg xmlns="http://www.w3.org/2000/svg" width="42.828" height="45.027" viewBox="0 0 42.828 45.027">
  <g id="Group_1847" data-name="Group 1847" transform="translate(0.82 0.799)">
    <path id="Path_1443" data-name="Path 1443" d="M207.2,54.842s-24.049-8.017-24.314,15.533a2.136,2.136,0,0,1-.145.755l-2.675,6.79a1.334,1.334,0,0,0,.749,1.729l2.216.879a1.369,1.369,0,0,1,.859,1.158c.2,2.239,1.919,8.279,14.779,8.279" transform="translate(-179.975 -53.526)" fill="none" stroke="#4877f4" stroke-linecap="round" stroke-miterlimit="10" stroke-width="1.5"/>
    <line id="Line_111" data-name="Line 111" y1="7.753" transform="translate(11.075 35.725)" fill="none" stroke="#4877f4" stroke-linecap="round" stroke-miterlimit="10" stroke-width="1.5"/>
    <line id="Line_112" data-name="Line 112" y1="11.41" transform="translate(28.915 32.067)" fill="none" stroke="#4877f4" stroke-linecap="round" stroke-miterlimit="10" stroke-width="1.5"/>
    <ellipse id="Ellipse_426" data-name="Ellipse 426" cx="5.43" cy="5.43" rx="5.43" ry="5.43" transform="translate(23.484 10.918)" fill="none" stroke="#4877f4" stroke-linecap="round" stroke-miterlimit="10" stroke-width="1.5"/>
    <line id="Line_113" data-name="Line 113" x2="4.742" transform="translate(36.515 16.348)" fill="none" stroke="#4877f4" stroke-linecap="round" stroke-miterlimit="10" stroke-width="1.5"/>
    <line id="Line_114" data-name="Line 114" y1="2.879" x2="3.768" transform="translate(36.93 4.789)" fill="none" stroke="#4877f4" stroke-linecap="round" stroke-miterlimit="10" stroke-width="1.5"/>
    <line id="Line_115" data-name="Line 115" x2="3.768" y2="2.879" transform="translate(36.559 25.028)" fill="none" stroke="#4877f4" stroke-linecap="round" stroke-miterlimit="10" stroke-width="1.5"/>
    <ellipse id="Ellipse_427" data-name="Ellipse 427" cx="0.768" cy="0.768" rx="0.768" ry="0.768" transform="translate(40.003 9.152)" fill="#4877f4"/>
    <ellipse id="Ellipse_428" data-name="Ellipse 428" cx="0.768" cy="0.768" rx="0.768" ry="0.768" transform="translate(40.003 22.009)" fill="#4877f4"/>
    <line id="Line_116" data-name="Line 116" x1="4.742" transform="translate(16.571 16.348)" fill="none" stroke="#4877f4" stroke-linecap="round" stroke-miterlimit="10" stroke-width="1.5"/>
    <line id="Line_117" data-name="Line 117" x1="3.768" y1="2.879" transform="translate(17.131 4.789)" fill="none" stroke="#4877f4" stroke-linecap="round" stroke-miterlimit="10" stroke-width="1.5"/>
    <line id="Line_118" data-name="Line 118" x1="3.768" y2="2.879" transform="translate(17.502 25.028)" fill="none" stroke="#4877f4" stroke-linecap="round" stroke-miterlimit="10" stroke-width="1.5"/>
    <ellipse id="Ellipse_429" data-name="Ellipse 429" cx="0.768" cy="0.768" rx="0.768" ry="0.768" transform="translate(16.291 9.152)" fill="#4877f4"/>
    <ellipse id="Ellipse_430" data-name="Ellipse 430" cx="0.768" cy="0.768" rx="0.768" ry="0.768" transform="translate(28.147 25.699)" fill="#4877f4"/>
    <ellipse id="Ellipse_431" data-name="Ellipse 431" cx="0.768" cy="0.768" rx="0.768" ry="0.768" transform="translate(28.147 5.461)" fill="#4877f4"/>
    <ellipse id="Ellipse_432" data-name="Ellipse 432" cx="0.768" cy="0.768" rx="0.768" ry="0.768" transform="translate(16.291 22.009)" fill="#4877f4"/>
  </g>
</svg>
