<svg xmlns="http://www.w3.org/2000/svg" width="44.5" height="44.5" viewBox="0 0 44.5 44.5">
  <g id="Group_1899" data-name="Group 1899" transform="translate(-650.25 -1074.25)">
    <g id="gold-coin" transform="translate(651 1074.697)">
      <circle id="Ellipse_420" data-name="Ellipse 420" cx="21.5" cy="21.5" r="21.5" transform="translate(0 0.303)" fill="none" stroke="#4877f4" stroke-linecap="round" stroke-linejoin="round" stroke-miterlimit="10" stroke-width="1.5"/>
      <line id="Line_105" data-name="Line 105" y1="2" transform="translate(22 32.303)" fill="none" stroke="#4877f4" stroke-linecap="round" stroke-linejoin="round" stroke-miterlimit="10" stroke-width="1.5"/>
      <line id="Line_106" data-name="Line 106" x1="2.068" y1="0.672" transform="translate(31.393 24.878)" fill="none" stroke="#4877f4" stroke-linecap="round" stroke-linejoin="round" stroke-miterlimit="10" stroke-width="1.5"/>
      <line id="Line_107" data-name="Line 107" x1="1.278" y2="1.759" transform="translate(27.707 11.775)" fill="none" stroke="#4877f4" stroke-linecap="round" stroke-linejoin="round" stroke-miterlimit="10" stroke-width="1.5"/>
      <line id="Line_108" data-name="Line 108" x2="1.278" y2="1.759" transform="translate(14.501 11.775)" fill="none" stroke="#4877f4" stroke-linecap="round" stroke-linejoin="round" stroke-miterlimit="10" stroke-width="1.5"/>
      <line id="Line_109" data-name="Line 109" y1="0.672" x2="2.068" transform="translate(10.025 24.878)" fill="none" stroke="#4877f4" stroke-linecap="round" stroke-linejoin="round" stroke-miterlimit="10" stroke-width="1.5"/>
      <circle id="Ellipse_421" data-name="Ellipse 421" cx="17.5" cy="17.5" r="17.5" transform="translate(4 4.303)" fill="none" stroke="#4877f4" stroke-linecap="round" stroke-linejoin="round" stroke-miterlimit="10" stroke-width="1.5"/>
    </g>
    <g id="Polygon_23" data-name="Polygon 23" transform="translate(664.046 1088.213)" fill="none">
      <path d="M8.083,1.776a1,1,0,0,1,1.787,0l1.558,3.1a1,1,0,0,0,.777.544l3.513.412a1,1,0,0,1,.542,1.745l-2.489,2.18a1,1,0,0,0-.321.953l.655,3.195a1,1,0,0,1-1.437,1.09L9.434,13.329a1,1,0,0,0-.915,0L5.285,14.992A1,1,0,0,1,3.848,13.9L4.5,10.707a1,1,0,0,0-.321-.953L1.693,7.574a1,1,0,0,1,.542-1.745l3.513-.412a1,1,0,0,0,.777-.544Z" stroke="none"/>
      <path d="M 8.976552963256836 3.337757110595703 L 7.865546226501465 5.546234130859375 C 7.48675537109375 6.299203872680664 6.760835647583008 6.807403564453125 5.923726081848145 6.905673980712891 L 3.527935981750488 7.186939239501953 L 5.170105934143066 8.625353813171387 C 5.844736099243164 9.216303825378418 6.151986122131348 10.12920379638672 5.971936225891113 11.00783348083496 L 5.526645660400391 13.18061923980713 L 7.833385467529297 11.99457359313965 C 8.185416221618652 11.81357383728027 8.580716133117676 11.71789360046387 8.976555824279785 11.71789360046387 C 9.372395515441895 11.71789360046387 9.767695426940918 11.81357383728027 10.11971569061279 11.99456405639648 L 12.42646598815918 13.1806173324585 L 11.98117637634277 11.00781440734863 C 11.80112648010254 10.12920379638672 12.10837554931641 9.216303825378418 12.78302574157715 8.625333786010742 L 14.4251823425293 7.186938285827637 L 12.02940559387207 6.905673980712891 C 11.19229602813721 6.807403564453125 10.46637535095215 6.299223899841309 10.08754539489746 5.546234130859375 L 8.976552963256836 3.337757110595703 M 8.97655200958252 1.225176811218262 C 9.330888748168945 1.225176811218262 9.685225486755371 1.408708572387695 9.869885444641113 1.775774002075195 L 11.42754554748535 4.872134208679199 C 11.57861518859863 5.17241382598877 11.87043571472168 5.376713752746582 12.20428562164307 5.41590404510498 L 15.7177562713623 5.828383445739746 C 16.57845497131348 5.929433822631836 16.91194534301758 7.00279426574707 16.26005554199219 7.573794364929199 L 13.77137565612793 9.753684043884277 C 13.50091552734375 9.990593910217285 13.37845611572266 10.35445404052734 13.45063591003418 10.70668411254883 L 14.10540580749512 13.90163421630859 C 14.23983001708984 14.55755805969238 13.72085571289062 15.10476016998291 13.12645053863525 15.10476016998291 C 12.97550582885742 15.10476016998291 12.81971740722656 15.06948089599609 12.66850566864014 14.99173355102539 L 9.433815956115723 13.32856369018555 C 9.290326118469238 13.25478363037109 9.133440971374512 13.21789360046387 8.976555824279785 13.21789360046387 C 8.819670677185059 13.21789360046387 8.662785530090332 13.25478363037109 8.519295692443848 13.32856369018555 L 5.284605979919434 14.99173355102539 C 5.133440017700195 15.0694580078125 4.97756290435791 15.10476016998291 4.826661109924316 15.10476016998291 C 4.232198715209961 15.10476016998291 3.713271141052246 14.55760765075684 3.847705841064453 13.90163421630859 L 4.502475738525391 10.70668411254883 C 4.574655532836914 10.35445404052734 4.45219612121582 9.990593910217285 4.181735992431641 9.753684043884277 L 1.693056106567383 7.573794364929199 C 1.041166305541992 7.00279426574707 1.374656677246094 5.929433822631836 2.235355377197266 5.828383445739746 L 5.748826026916504 5.41590404510498 C 6.082675933837891 5.376713752746582 6.374495506286621 5.17241382598877 6.525555610656738 4.872134208679199 L 8.083226203918457 1.775774002075195 C 8.267880439758301 1.408708572387695 8.62221622467041 1.225176811218262 8.97655200958252 1.225176811218262 Z" stroke="none" fill="#4877f4"/>
    </g>
  </g>
</svg>
